<svg xmlns="http://www.w3.org/2000/svg" xmlns:xlink="http://www.w3.org/1999/xlink" width="1080" zoomAndPan="magnify" viewBox="0 0 810 809.999993" height="1080" preserveAspectRatio="xMidYMid meet" version="1.0"><defs><clipPath id="fd6e4daf06"><path d="M 648.148438 658.011719 L 729 658.011719 L 729 739 L 648.148438 739 Z M 648.148438 658.011719 " clip-rule="nonzero"/></clipPath><clipPath id="2891ae0570"><path d="M 598.101562 710.6875 L 634.851562 710.6875 L 634.851562 747.4375 L 598.101562 747.4375 Z M 598.101562 710.6875 " clip-rule="nonzero"/></clipPath></defs><path fill="#ff6a00" d="M 758.933594 406.582031 C 753.796875 595.933594 581.21875 763.277344 404.414062 761.097656 C 259.054688 759.304688 160.882812 643.53125 141.773438 620.984375 C 116.816406 591.550781 51.113281 514.054688 49.898438 406.582031 C 47.871094 228.097656 224.8125 61.90625 404.414062 52.0625 C 501.890625 46.71875 574.714844 88.8125 596.429688 102.441406 C 701.144531 168.105469 762.117188 289.496094 758.933594 406.582031 Z M 758.933594 406.582031 " fill-opacity="1" fill-rule="nonzero"/><g clip-path="url(#fd6e4daf06)"><path fill="#ff6a00" d="M 728.636719 698.765625 C 728.054688 720.199219 708.519531 739.140625 688.507812 738.894531 C 672.054688 738.691406 660.941406 725.585938 658.777344 723.035156 C 655.953125 719.703125 648.515625 710.933594 648.378906 698.765625 C 648.148438 678.5625 668.175781 659.753906 688.507812 658.636719 C 699.539062 658.03125 707.785156 662.796875 710.242188 664.339844 C 722.09375 671.773438 728.996094 685.511719 728.636719 698.765625 Z M 728.636719 698.765625 " fill-opacity="1" fill-rule="nonzero"/></g><g clip-path="url(#2891ae0570)"><path fill="#ff6a00" d="M 634.417969 729.082031 C 634.15625 738.75 625.339844 747.296875 616.3125 747.1875 C 608.886719 747.09375 603.871094 741.183594 602.898438 740.03125 C 601.621094 738.527344 598.265625 734.570312 598.203125 729.082031 C 598.101562 719.964844 607.136719 711.476562 616.3125 710.972656 C 621.289062 710.699219 625.007812 712.851562 626.117188 713.546875 C 631.464844 716.898438 634.582031 723.101562 634.417969 729.082031 Z M 634.417969 729.082031 " fill-opacity="1" fill-rule="nonzero"/></g></svg>