<svg xmlns="http://www.w3.org/2000/svg" xmlns:xlink="http://www.w3.org/1999/xlink" width="1080" zoomAndPan="magnify" viewBox="0 0 810 809.999993" height="1080" preserveAspectRatio="xMidYMid meet" version="1.0"><defs><clipPath id="680c7216ab"><path d="M 647 22.535156 L 795.75 22.535156 L 795.75 484 L 647 484 Z M 647 22.535156 " clip-rule="nonzero"/></clipPath></defs><path fill="#ff6a00" d="M 20.210938 672.613281 C 21.054688 670.367188 21.332031 668.691406 18.417969 667.699219 C 15.375 666.671875 15.230469 664.929688 17.589844 662.410156 C 18.613281 661.316406 19.542969 660.144531 20.617188 659.105469 C 21.625 658.128906 22.765625 657.28125 24.230469 656.0625 C 22.554688 652.9375 19.558594 650.789062 16.140625 649.09375 C 15.75 648.898438 15.113281 649.144531 14.789062 648.917969 C 10.914062 646.246094 6.847656 643.789062 3.316406 640.730469 C 0.238281 638.078125 0.777344 635.082031 3.867188 632.296875 C 4.859375 631.402344 5.464844 630.101562 6.585938 628.488281 C 6.699219 629.53125 6.667969 630.214844 6.894531 630.800781 C 7.074219 631.273438 7.546875 631.859375 7.96875 631.925781 C 8.394531 631.972656 9.109375 631.550781 9.304688 631.144531 C 11.257812 627.285156 11.226562 627.269531 14.105469 625.382812 C 13.355469 625.203125 12.542969 625.136719 11.859375 624.796875 C 10.753906 624.257812 9.726562 623.558594 8.667969 622.941406 C 9.644531 622.371094 10.621094 621.3125 11.617188 621.28125 C 20.746094 621.050781 29.894531 620.921875 39.023438 620.953125 C 45.617188 620.988281 52.207031 621.246094 58.78125 621.574219 C 60.050781 621.636719 61.386719 622.371094 62.476562 623.117188 C 64.738281 624.699219 65.015625 626.324219 61.535156 627.691406 C 62.625 628.585938 63.390625 629.207031 64.609375 630.199219 C 65.359375 627.59375 65.910156 625.65625 66.496094 623.605469 C 69.933594 623.605469 74.246094 623.394531 78.527344 623.722656 C 79.992188 623.835938 81.339844 625.332031 82.742188 626.195312 C 82.773438 626.570312 82.804688 626.945312 82.839844 627.316406 C 84.289062 626.339844 85.71875 625.332031 87.21875 624.421875 C 87.671875 624.144531 88.40625 623.949219 88.84375 624.128906 C 91.824219 625.332031 94.851562 625.804688 98.058594 625.578125 C 99.878906 625.445312 101.996094 625.300781 103.507812 626.082031 C 107.824219 628.292969 112.476562 626.863281 116.871094 627.871094 C 123.464844 629.402344 130.105469 630.6875 136.730469 632.085938 C 138.992188 632.558594 141.269531 632.949219 143.5 633.519531 C 150.058594 635.195312 156.601562 636.96875 163.175781 638.664062 C 166.96875 639.640625 170.792969 640.519531 174.570312 641.527344 C 175.660156 641.820312 176.652344 642.519531 177.746094 642.84375 C 179.746094 643.464844 181.796875 643.984375 183.832031 644.488281 C 184.726562 644.71875 185.6875 644.71875 186.550781 645.027344 C 192.621094 647.175781 198.625 649.453125 204.730469 651.503906 C 208.425781 652.742188 212.265625 653.539062 215.992188 654.710938 C 223.757812 657.152344 231.472656 659.738281 239.234375 662.179688 C 249.128906 665.304688 259.058594 668.285156 268.953125 671.425781 C 273.886719 672.988281 278.71875 674.910156 283.667969 676.421875 C 287.347656 677.546875 291.238281 678.019531 294.867188 679.253906 C 299.179688 680.734375 303.3125 682.722656 307.984375 684.675781 C 309.058594 684.609375 311.011719 684.023438 312.6875 684.480469 C 319.558594 686.320312 326.277344 688.664062 333.148438 690.46875 C 341.449219 692.648438 350.089844 693.757812 358.097656 696.652344 C 368.171875 700.300781 379.0625 700.65625 388.890625 704.96875 C 390.570312 705.703125 392.277344 706.320312 393.773438 706.921875 C 393.921875 708.128906 393.710938 710.03125 394.246094 710.277344 C 395.941406 711.042969 398.804688 712.132812 399.617188 711.382812 C 403.394531 707.835938 405.671875 710.945312 408.40625 712.652344 C 409.789062 713.53125 411.304688 714.214844 412.753906 714.980469 C 416.59375 716.964844 420.417969 718.984375 424.292969 720.921875 C 427.695312 722.628906 431.828125 722.957031 434.300781 726.421875 C 435.621094 728.277344 437.363281 729.855469 438.5 731.792969 C 439.054688 732.722656 439.105469 734.558594 438.5 735.359375 C 437.980469 736.074219 436.09375 736.449219 435.132812 736.089844 C 432.332031 735.046875 431.175781 735.765625 430.542969 738.695312 C 429.988281 741.25 426.425781 742.488281 423.722656 741.363281 C 420.648438 740.09375 418.042969 740.875 415.210938 742.371094 C 415.730469 743.007812 415.84375 743.25 416.039062 743.332031 C 417.097656 743.871094 418.171875 744.375 419.230469 744.894531 C 418.15625 745.449219 417.113281 746.375 415.992188 746.507812 C 413.730469 746.765625 411.417969 746.589844 408.324219 746.589844 C 411.582031 742.683594 409.675781 740.160156 407.269531 737.410156 C 405.28125 739.753906 403.394531 739.539062 400.757812 738.15625 C 397.8125 736.609375 394.296875 736.15625 390.992188 735.324219 C 390.519531 735.210938 389.917969 735.585938 388.910156 735.863281 C 392.914062 737.996094 396.65625 737.703125 398.285156 741.25 C 398.445312 741.589844 400.105469 741.722656 400.628906 741.347656 C 403.363281 739.363281 404.828125 742.144531 406.796875 742.894531 C 406.84375 742.910156 406.617188 744.667969 406.144531 744.910156 C 403.476562 746.328125 400.726562 747.273438 399.277344 745.1875 C 395.808594 744.765625 393.335938 744.324219 390.84375 744.179688 C 389.039062 744.082031 387.183594 744.570312 385.394531 744.421875 C 373.542969 743.429688 361.695312 742.339844 349.847656 741.296875 C 345.160156 740.890625 340.472656 740.632812 335.785156 740.242188 C 327.15625 739.507812 318.53125 738.875 309.921875 737.914062 C 303.753906 737.214844 297.632812 736.042969 291.480469 735.082031 C 287.722656 734.480469 283.945312 733.84375 280.183594 733.257812 C 272.4375 732.039062 264.675781 730.996094 256.960938 729.597656 C 249.617188 728.277344 242.34375 726.585938 235.019531 725.085938 C 229.84375 724.03125 224.652344 723.117188 219.492188 721.980469 C 217.390625 721.523438 215.390625 720.644531 213.339844 719.960938 C 212.917969 719.8125 212.460938 719.390625 212.085938 719.457031 C 205.917969 720.5625 200.398438 717.859375 194.621094 716.625 C 187.738281 715.144531 180.820312 713.808594 173.953125 712.214844 C 165.847656 710.339844 157.789062 708.324219 149.734375 706.273438 C 148.316406 705.914062 147.0625 704.792969 145.648438 704.578125 C 143.386719 704.238281 140.976562 704.710938 138.761719 704.222656 C 135.3125 703.457031 132.007812 701.992188 128.558594 701.179688 C 124.539062 700.203125 120.421875 699.597656 116.335938 698.835938 C 111.664062 697.972656 107.023438 696.945312 102.320312 696.277344 C 93.09375 694.992188 83.832031 693.953125 74.585938 692.730469 C 73.007812 692.519531 71.511719 691.851562 69.949219 691.574219 C 67.71875 691.183594 65.457031 690.988281 63.226562 690.679688 C 60.035156 690.226562 56.828125 689.835938 53.671875 689.265625 C 49.539062 688.515625 45.386719 687.765625 41.300781 686.773438 C 38.257812 686.027344 35.296875 684.902344 32.300781 683.941406 C 32.1875 683.910156 32.074219 683.761719 32.007812 683.78125 C 27.304688 685.78125 23.398438 682.902344 19.132812 681.890625 C 15.636719 681.0625 11.84375 681.535156 8.292969 680.851562 C 6.144531 680.425781 4.046875 679.109375 2.222656 677.789062 C 0.546875 676.585938 1.539062 675.445312 3.003906 674.648438 C 4.875 673.625 6.699219 672.46875 8.585938 671.476562 C 9.140625 671.183594 9.921875 671.066406 10.558594 671.148438 C 13.730469 671.574219 16.90625 672.109375 20.207031 672.613281 Z M 115.683594 688.125 C 117.132812 688.628906 118.371094 689.246094 119.6875 689.507812 C 123.496094 690.257812 127.335938 690.859375 131.164062 691.511719 C 132.074219 691.65625 132.984375 691.882812 133.898438 691.882812 C 136.808594 691.882812 139.886719 691.070312 141.855469 694.359375 C 142.164062 694.878906 143.566406 694.945312 144.460938 694.910156 C 146.707031 694.8125 147.878906 694.441406 146.496094 691.527344 C 145.109375 688.628906 142.832031 688.449219 140.472656 688.042969 C 134.613281 687.050781 128.722656 686.1875 122.84375 685.242188 C 122.519531 685.195312 122.226562 684.933594 121.917969 684.773438 C 117.539062 682.640625 117.441406 682.6875 115.714844 688.140625 Z M 148.269531 694.554688 C 151.101562 695.742188 153.445312 696.832031 155.886719 697.679688 C 156.308594 697.824219 157.398438 697.125 157.609375 696.605469 C 158.277344 694.960938 155.429688 691.003906 153.183594 690.027344 C 150.335938 688.777344 150.351562 691.101562 149.667969 692.664062 C 149.441406 693.171875 149.015625 693.578125 148.285156 694.570312 Z M 112.039062 687.78125 C 112.394531 687.878906 112.753906 687.996094 113.097656 688.09375 C 113.699219 687 114.789062 685.910156 114.757812 684.835938 C 114.738281 684.121094 113.195312 682.964844 112.234375 682.851562 C 109.890625 682.558594 107.496094 682.753906 104.289062 682.753906 C 105.496094 684.332031 106.261719 685.925781 107.53125 686.726562 C 108.132812 687.097656 109.695312 685.910156 110.996094 685.359375 C 111.257812 685.960938 111.648438 686.871094 112.023438 687.78125 Z M 404.730469 731.695312 C 404.648438 732.070312 404.582031 732.460938 404.5 732.835938 C 407.675781 733.566406 410.847656 734.316406 414.414062 735.144531 C 412.558594 731.433594 408.765625 730.261719 404.730469 731.695312 Z M 22.570312 674.175781 C 24.800781 674.421875 26.363281 674.695312 27.941406 674.730469 C 28.589844 674.746094 29.257812 674.273438 29.925781 674.03125 C 29.601562 673.25 29.390625 671.863281 28.902344 671.765625 C 26.753906 671.3125 24.523438 671.214844 22.066406 670.96875 C 22.292969 672.402344 22.457031 673.492188 22.570312 674.175781 Z M 384.171875 734.691406 C 381.4375 735.164062 379.386719 735.535156 377.222656 735.910156 C 380.070312 739.734375 381.84375 739.605469 384.171875 734.691406 Z M 88.226562 634.398438 C 88.925781 634.121094 89.640625 633.828125 90.34375 633.550781 C 89.902344 632.152344 89.445312 630.753906 89.007812 629.351562 C 88.03125 629.679688 87.039062 630.003906 86.0625 630.328125 C 86.777344 631.695312 87.511719 633.046875 88.226562 634.414062 Z M 124.261719 671.980469 C 122.796875 668.054688 120.730469 667.40625 116.074219 669.734375 C 119.183594 670.578125 121.429688 671.199219 124.261719 671.980469 Z M 152.613281 676.097656 C 151.066406 675.21875 149.78125 674.371094 148.398438 673.738281 C 147.894531 673.507812 147.128906 673.6875 146.558594 673.882812 C 146.378906 673.949219 146.265625 674.746094 146.414062 675.085938 C 147.160156 676.910156 150.988281 677.511719 152.628906 676.097656 Z M 89.789062 663.171875 C 89.675781 663.628906 89.5625 664.085938 89.445312 664.539062 C 91.027344 666.332031 92.570312 668.21875 95.941406 664.507812 C 93.417969 663.953125 91.613281 663.5625 89.789062 663.171875 Z M 161.566406 696.003906 C 161.207031 696.605469 160.851562 697.191406 160.476562 697.792969 C 161.550781 698.214844 162.65625 699.03125 163.683594 698.933594 C 164.464844 698.851562 165.472656 697.710938 165.683594 696.863281 C 165.8125 696.375 164.640625 695.171875 163.894531 694.976562 C 163.257812 694.8125 162.347656 695.628906 161.566406 696.003906 Z M 98.300781 680.75 C 99.78125 682.429688 101.050781 683.875 102.335938 685.308594 L 103.460938 684.1875 C 102.140625 682.867188 100.824219 681.566406 99.488281 680.261719 C 99.457031 680.230469 99.292969 680.34375 98.300781 680.75 Z M 135.980469 675.21875 C 135.558594 671.296875 133.816406 669.960938 130.558594 670.675781 C 132.316406 672.140625 133.976562 673.542969 135.980469 675.21875 Z M 425.742188 736.789062 C 423.039062 736.546875 420.679688 736.351562 417.765625 736.089844 C 420.695312 739.425781 423.121094 739.019531 425.742188 736.789062 Z M 425.742188 736.789062 " fill-opacity="1" fill-rule="nonzero"/><path fill="#ff6a00" d="M 446.6875 461.089844 C 442.992188 465.324219 441.449219 462.148438 439.316406 459.96875 C 433.832031 454.371094 428.003906 449.078125 422.601562 443.414062 C 418.710938 439.332031 415.210938 434.855469 411.613281 430.476562 C 407.105469 424.992188 403.152344 419.097656 397.648438 414.394531 C 394.929688 412.085938 393.011719 408.699219 391.1875 405.542969 C 390.03125 403.539062 389.1875 400.984375 392.035156 398.804688 C 392.390625 399.519531 392.585938 400.121094 392.945312 400.578125 C 393.402344 401.148438 393.953125 401.667969 394.558594 402.074219 C 394.671875 402.15625 395.535156 401.570312 395.5 401.375 C 395.386719 400.625 395.207031 399.796875 394.785156 399.210938 C 393.367188 397.257812 391.855469 395.386719 390.324219 393.53125 C 390 393.121094 389.300781 392.585938 389.007812 392.699219 C 388.46875 392.894531 387.917969 393.480469 387.722656 394.035156 C 387.296875 395.207031 387.101562 396.441406 386.808594 397.679688 C 389.527344 398.65625 389.722656 399.78125 387.234375 402.253906 C 384.335938 400.039062 384.808594 397.125 385.507812 394.179688 C 385.816406 392.894531 386.140625 391.625 386.453125 390.355469 C 384.96875 390.03125 383.488281 389.703125 381.84375 389.347656 C 382.332031 391.804688 382.722656 393.707031 383.246094 396.3125 C 380.460938 395.109375 378.070312 394.878906 377.695312 391.949219 C 377.644531 391.578125 377.289062 391.167969 376.960938 390.910156 C 374.667969 389.039062 372.339844 387.199219 370.046875 385.328125 C 367.117188 382.933594 363.8125 380.867188 361.417969 378.035156 C 359.027344 375.1875 354.890625 373.25 355.511719 368.253906 C 355.671875 367.015625 354.011719 364.65625 352.777344 364.3125 C 348.347656 363.078125 345.535156 360.246094 342.523438 356.988281 C 340.097656 354.351562 336.679688 352.644531 335.328125 348.980469 C 328.394531 346.671875 325.203125 339.867188 319.65625 335.863281 C 316.953125 333.910156 314.363281 331.730469 311.972656 329.386719 C 310.589844 328.035156 307.9375 326.277344 311.777344 324.453125 C 312.101562 324.308594 312.039062 323.363281 312.152344 322.777344 C 311.550781 322.828125 310.671875 322.632812 310.410156 322.941406 C 307.9375 325.984375 306.015625 324.46875 304.207031 322.257812 C 300.5625 317.78125 297.097656 313.160156 293.304688 308.828125 C 289.722656 304.746094 285.734375 301 282.039062 297.011719 C 280.835938 295.710938 279.972656 294.117188 278.949219 292.652344 C 278.574219 292.113281 278.363281 291.316406 277.859375 291.023438 C 272.957031 288.222656 268.972656 284.578125 266.675781 279.304688 C 266.480469 278.847656 265.910156 278.296875 265.457031 278.230469 C 262.605469 277.792969 261.550781 276.425781 263.226562 273.347656 C 261.417969 272.664062 259.808594 272.175781 258.292969 271.445312 C 257.546875 271.085938 256.910156 270.371094 256.40625 269.6875 C 256.292969 269.539062 256.941406 268.449219 257.269531 268.433594 C 258.113281 268.398438 258.976562 268.726562 260.246094 268.984375 C 261.273438 268.089844 262.703125 266.835938 264.738281 265.046875 C 261.597656 264.429688 259.367188 264.003906 256.976562 263.535156 C 256.765625 264.152344 256.683594 264.753906 256.375 265.160156 C 255.949219 265.714844 255.332031 266.136719 254.8125 266.625 C 254.550781 265.84375 253.851562 264.902344 254.078125 264.316406 C 256.648438 257.851562 253.542969 252.449219 251.101562 246.882812 C 250.628906 245.808594 250.269531 244.703125 249.910156 243.578125 C 248.984375 240.683594 247.925781 237.816406 247.210938 234.855469 C 246.414062 231.566406 246.722656 227.773438 245.160156 224.992188 C 243.253906 221.589844 243.855469 218.027344 242.800781 214.707031 C 242.179688 212.734375 240.375 211.109375 239.933594 209.140625 C 239.578125 207.527344 239.902344 205.117188 240.925781 203.996094 C 242.410156 202.367188 244.28125 200.15625 247.324219 202.613281 C 249.210938 204.140625 250.855469 205.296875 251.980469 207.722656 C 253.132812 210.195312 255.820312 211.972656 257.886719 214.003906 C 258.164062 214.28125 258.878906 214.445312 259.207031 214.28125 C 264.316406 211.5625 267.148438 216.039062 270.90625 217.78125 C 273.691406 219.066406 276.863281 220.304688 279.828125 220.238281 C 285.230469 220.140625 290.796875 225.804688 289.722656 231.113281 C 289.59375 231.761719 289.902344 232.496094 290.03125 233.359375 C 294.460938 230.65625 295.109375 230.753906 298.398438 234.335938 C 298.789062 234.757812 299.128906 235.488281 299.585938 235.570312 C 305.949219 236.660156 305.007812 242.714844 307.15625 246.65625 C 307.398438 247.09375 307.1875 247.761719 307.886719 248.625 C 308.621094 247.289062 309.351562 245.957031 310.378906 244.082031 C 310.507812 245.644531 310.589844 246.589844 310.621094 247.109375 C 312.980469 247.617188 315.113281 248.054688 317.164062 248.496094 C 316.398438 250.9375 315.894531 252.5 315.40625 254.0625 C 315.765625 254.257812 316.121094 254.453125 316.496094 254.648438 C 317.523438 253.6875 318.546875 252.726562 320.109375 251.261719 C 321.234375 252.613281 322.257812 254.175781 323.59375 255.410156 C 325.871094 257.511719 328.378906 259.367188 330.707031 261.433594 C 333.34375 263.777344 335.996094 265.796875 335.832031 270.238281 C 335.703125 274.324219 338.355469 270.304688 339.234375 271.410156 C 341.707031 273.28125 344.425781 274.910156 346.574219 277.089844 C 348.039062 278.574219 348.707031 280.835938 349.796875 282.707031 C 350.238281 283.457031 350.921875 284.757812 351.375 284.707031 C 356.453125 284.203125 357.691406 288.648438 360.261719 291.382812 C 360.785156 291.933594 361.402344 292.421875 362.019531 292.878906 C 365.375 295.335938 368.726562 297.792969 372.097656 300.21875 C 373.757812 301.40625 375.691406 302.320312 377.140625 303.71875 C 381.960938 308.4375 387.019531 312.996094 391.15625 318.253906 C 394.230469 322.175781 398.007812 325.152344 401.523438 328.507812 C 402.304688 329.253906 402.582031 330.523438 403.3125 331.371094 C 406.175781 334.625 408.324219 339.152344 411.402344 341.300781 C 414.398438 343.398438 417.40625 345.613281 420.078125 348.070312 C 423.933594 351.601562 427.351562 355.621094 430.882812 359.496094 C 433.976562 362.898438 437.035156 366.363281 439.949219 369.914062 C 441.480469 371.785156 442.636719 373.964844 444.066406 375.917969 C 444.996094 377.171875 446.117188 378.277344 447.191406 379.433594 C 447.582031 379.859375 448.382812 380.132812 448.460938 380.558594 C 449.226562 384.96875 452.710938 387.652344 455.054688 391.054688 C 456.421875 393.058594 458.375 394.652344 459.9375 396.523438 C 463.402344 400.660156 466.707031 404.921875 470.222656 409.023438 C 477.289062 417.277344 484.59375 425.332031 491.546875 433.683594 C 497.632812 440.992188 503.425781 448.527344 509.1875 456.078125 C 510.6875 458.046875 511.53125 460.503906 512.738281 462.703125 C 513.03125 463.257812 513.550781 463.710938 514.039062 464.117188 C 514.753906 464.6875 515.699219 465.015625 516.269531 465.679688 C 519.539062 469.554688 522.679688 473.527344 525.953125 477.417969 C 526.816406 478.441406 528.035156 479.191406 528.914062 480.214844 C 531.046875 482.707031 533.082031 485.277344 535.132812 487.847656 C 535.328125 488.109375 535.296875 488.679688 535.507812 488.777344 C 541.660156 491.460938 544.394531 497.453125 547.828125 502.449219 C 551.292969 507.492188 553.621094 513.46875 555.707031 519.292969 C 557.105469 523.199219 554.761719 525.332031 550.480469 525.089844 C 544.457031 524.714844 542.863281 526.308594 543.269531 532.28125 C 543.351562 533.4375 543.644531 534.59375 543.628906 535.734375 C 543.628906 536.855469 543.597656 538.109375 543.109375 539.070312 C 541.464844 542.257812 533.292969 544.359375 530.414062 542.210938 C 521.445312 535.488281 512.605469 528.621094 503.703125 521.800781 C 500.480469 519.328125 497.113281 517.015625 494.066406 514.347656 C 491.953125 512.492188 490.277344 510.148438 487.671875 507.21875 C 483.734375 506.875 475.335938 498.867188 475.726562 495.15625 C 474.179688 494.40625 472.519531 494.082031 471.558594 493.074219 C 467.570312 488.90625 463.910156 484.449219 459.921875 480.296875 C 456.992188 477.253906 453.492188 474.746094 450.742188 471.574219 C 449.046875 469.621094 448.203125 466.917969 447.113281 464.476562 C 446.769531 463.710938 446.867188 462.769531 446.671875 461.171875 Z M 425.984375 367.878906 C 421.820312 371.085938 421.703125 371.65625 425.074219 374.894531 C 425.96875 375.757812 427.433594 376.015625 428.523438 376.734375 C 429.304688 377.253906 430.003906 377.984375 430.527344 378.765625 C 432.578125 381.925781 434.1875 385.472656 436.679688 388.238281 C 438.695312 390.484375 440.601562 392.472656 441.429688 395.5 C 442.472656 399.308594 444.769531 400.660156 448.527344 399.976562 C 449.066406 401.878906 449.277344 404.027344 450.238281 405.738281 C 451.636719 408.210938 453.460938 410.488281 455.363281 412.621094 C 455.785156 413.09375 457.285156 412.589844 458.292969 412.523438 C 458.113281 411.597656 458.195312 410.523438 457.722656 409.789062 C 455.804688 406.84375 453.753906 403.996094 451.683594 401.148438 C 450.921875 400.089844 449.667969 399.273438 449.195312 398.136719 C 447.972656 395.191406 447.503906 391.773438 443.253906 391.445312 C 442.683594 391.398438 442.082031 390.113281 441.707031 389.296875 C 441.039062 387.847656 440.519531 386.320312 439.933594 384.820312 C 438.777344 381.792969 437.199219 379.449219 434.253906 380.558594 C 433.421875 378.199219 432.660156 376.050781 431.859375 373.804688 C 425.316406 376.082031 427.890625 370.125 426 367.894531 Z M 418.773438 384.058594 C 417.878906 387.589844 424.144531 397.078125 427.320312 397.09375 C 425.5625 392.046875 423.023438 387.816406 418.773438 384.058594 Z M 444.671875 416.675781 C 444.214844 415.582031 444.132812 415.113281 443.855469 414.753906 C 442.164062 412.539062 440.472656 410.328125 438.679688 408.195312 C 438.402344 407.867188 437.410156 407.691406 437.183594 407.902344 C 436.742188 408.308594 436.222656 409.300781 436.433594 409.609375 C 438.109375 412.199219 439.867188 414.738281 441.820312 417.128906 C 442.097656 417.472656 443.53125 416.886719 444.671875 416.675781 Z M 282.871094 285 C 281.570312 286.402344 279.777344 287.558594 279.941406 288.289062 C 280.332031 290.0625 281.519531 291.707031 282.609375 293.238281 C 282.902344 293.660156 284.140625 293.675781 284.792969 293.449219 C 285.164062 293.316406 285.507812 292.324219 285.457031 291.773438 C 285.296875 290.308594 284.988281 288.859375 284.546875 287.460938 C 284.320312 286.726562 283.667969 286.125 282.871094 285 Z M 340.863281 344.847656 C 341.042969 347.371094 341.105469 349.390625 341.382812 351.359375 C 341.449219 351.863281 342.214844 352.613281 342.667969 352.613281 C 343.15625 352.613281 343.890625 351.960938 344.085938 351.441406 C 344.71875 349.648438 345.160156 347.777344 345.746094 345.710938 C 344.28125 345.449219 343.191406 345.253906 340.863281 344.847656 Z M 378.476562 388.679688 C 378.476562 386.222656 378.542969 383.765625 378.410156 381.324219 C 378.378906 380.851562 377.597656 380.117188 377.109375 380.070312 C 376.621094 380.019531 375.921875 380.574219 375.5625 381.046875 C 372.992188 384.527344 376.066406 386.417969 378.460938 388.679688 Z M 415.894531 383.667969 C 416.675781 378.296875 415.066406 377.285156 410.214844 374.632812 C 411.386719 377.644531 412.363281 380.394531 413.566406 383.0625 C 413.761719 383.488281 414.933594 383.453125 415.894531 383.683594 Z M 319.574219 332.300781 C 321.429688 330.933594 322.746094 329.9375 324.667969 328.507812 C 322.585938 327.773438 321.542969 327.398438 320.792969 327.140625 C 320.632812 325.5625 320.515625 324.308594 320.386719 323.054688 C 319.898438 323.085938 319.425781 323.136719 318.9375 323.167969 C 319.117188 325.789062 319.296875 328.410156 319.558594 332.300781 Z M 430.722656 399.585938 C 428.507812 402.839844 432.121094 404.15625 432.660156 406.289062 C 432.804688 406.890625 434.464844 407.105469 435.441406 407.476562 C 435.507812 407.25 435.589844 407.007812 435.652344 406.777344 C 434.074219 404.484375 432.511719 402.1875 430.722656 399.585938 Z M 370.4375 379.027344 C 370.957031 379.238281 371.460938 379.46875 371.980469 379.679688 C 372.40625 378.589844 373.007812 377.515625 373.171875 376.390625 C 373.25 375.871094 372.488281 375.203125 372.113281 374.617188 C 371.558594 376.097656 370.988281 377.5625 370.4375 379.042969 Z M 363.484375 370.449219 C 363.273438 369.996094 363.078125 369.539062 362.867188 369.082031 C 361.941406 368.433594 361.027344 367.75 360.035156 367.210938 C 359.953125 367.179688 358.847656 368.53125 358.976562 368.707031 C 359.613281 369.652344 360.394531 370.597656 361.355469 371.148438 C 361.792969 371.394531 362.753906 370.710938 363.484375 370.449219 Z M 525.203125 485.667969 C 523.851562 485.113281 522.875 484.707031 521.039062 483.957031 C 522.015625 486.433594 522.664062 488.09375 523.558594 490.339844 C 524.210938 488.484375 524.652344 487.261719 525.203125 485.667969 Z M 525.203125 485.667969 " fill-opacity="1" fill-rule="nonzero"/><g clip-path="url(#680c7216ab)"><path fill="#ff6a00" d="M 724.4375 375.578125 C 723.363281 370.972656 722.46875 366.316406 721.183594 361.773438 C 719.882812 357.183594 718.203125 352.710938 716.609375 347.925781 C 715.0625 348.511719 714.152344 348.851562 712.898438 349.324219 C 712.019531 346.949219 710.570312 344.878906 713.078125 342.457031 C 714.414062 341.152344 713.355469 334.675781 711.695312 332.542969 C 711.402344 332.886719 711.15625 333.210938 710.863281 333.488281 C 710.277344 334.023438 709.691406 334.59375 709.007812 335 C 708.878906 335.082031 708.015625 334.414062 708.046875 334.269531 C 708.292969 333.4375 708.601562 332.59375 709.105469 331.910156 C 709.789062 330.980469 711.464844 330.003906 711.320312 329.386719 C 710.863281 327.496094 710.082031 325.464844 708.796875 324.0625 C 706.191406 321.230469 703.945312 318.449219 703.964844 314.332031 C 703.964844 313.175781 703.410156 311.9375 702.871094 310.847656 C 701.75 308.535156 700.121094 306.386719 699.4375 303.980469 C 699.144531 302.953125 700.691406 301.40625 701.375 300.121094 C 701.328125 298.964844 701.035156 297.566406 701.230469 296.246094 C 701.71875 292.78125 700.105469 289.902344 696.800781 288.761719 C 694.621094 288.011719 692.324219 283.4375 692.78125 280.199219 C 693.757812 281.0625 694.492188 281.957031 695.433594 282.445312 C 695.988281 282.738281 696.867188 282.414062 697.597656 282.363281 C 697.453125 281.679688 697.46875 280.527344 697.109375 280.394531 C 695.679688 279.859375 695.191406 277.1875 692.796875 278.457031 C 692.585938 278.574219 690.664062 276.359375 690.292969 275.007812 C 688.648438 269.179688 687.34375 263.273438 685.78125 257.429688 C 685 254.515625 685.605469 252.792969 688.484375 250.871094 C 688.242188 247.453125 688.011719 244.082031 687.753906 240.714844 C 687.460938 236.824219 686.695312 235.832031 682.070312 233.714844 C 685.570312 231.894531 685.164062 229.042969 684.269531 225.871094 C 681.386719 226.050781 681.191406 224.355469 681.746094 221.898438 C 683.128906 215.894531 682.105469 210.035156 680.394531 204.222656 C 679.402344 200.839844 678.785156 197.339844 677.695312 194.003906 C 677.011719 191.871094 675.773438 189.917969 674.550781 187.394531 C 678.898438 179.792969 676.878906 172.207031 671.152344 164.785156 C 677.515625 163.320312 673.429688 158.765625 673.640625 155.640625 C 673.851562 152.433594 672.828125 149.0625 671.867188 145.90625 C 671.65625 145.191406 669.554688 145.027344 668.027344 144.507812 C 668.058594 144.472656 668.496094 143.464844 669.246094 143.042969 C 671.328125 141.886719 671.070312 141.105469 669.277344 139.851562 C 668.105469 139.039062 667.308594 137.6875 665.992188 136.15625 C 667.601562 135.996094 668.660156 135.898438 669.214844 135.832031 C 667.699219 132.167969 666.136719 128.554688 664.738281 124.878906 C 664.445312 124.097656 664.363281 122.84375 664.785156 122.257812 C 666.1875 120.371094 665.746094 118.726562 664.882812 116.804688 C 663.160156 112.964844 663.988281 108.699219 663.371094 104.808594 C 662.671875 100.464844 664.296875 95.289062 660.328125 91.59375 C 659.691406 91.007812 659.074219 89.933594 659.15625 89.152344 C 659.546875 84.886719 657.871094 81.195312 656.566406 77.304688 C 655.640625 74.570312 655.640625 71.492188 655.378906 68.5625 C 655.183594 66.382812 656.046875 64.105469 652.90625 62.867188 C 651.945312 62.492188 651.992188 59.53125 651.585938 57.738281 C 650.917969 54.859375 650.15625 52.011719 649.570312 49.113281 C 649.03125 46.460938 647.957031 43.597656 651.945312 41.804688 C 650.351562 40.519531 649.160156 39.574219 647.972656 38.617188 C 647.988281 38.402344 648.023438 38.191406 648.039062 37.980469 C 648.902344 38.160156 649.765625 38.453125 650.644531 38.484375 C 652.660156 38.550781 655.640625 40.308594 655.429688 35.960938 C 655.429688 35.652344 656.664062 34.871094 656.910156 35.003906 C 660.621094 37.265625 662.148438 33.796875 664.476562 32.300781 C 665.175781 31.84375 666.367188 31.566406 667.097656 31.84375 C 669.914062 32.871094 672.792969 33.878906 675.332031 35.441406 C 676.75 36.320312 677.515625 38.242188 678.574219 39.671875 C 682.203125 36.109375 682.023438 34.480469 678.425781 30.65625 C 675.675781 27.726562 677.839844 25.1875 679.859375 22.484375 C 680.507812 23.480469 681.03125 24.277344 681.550781 25.074219 C 681.679688 24.75 681.796875 24.4375 681.925781 24.113281 C 684.9375 25.121094 687.964844 26.097656 690.957031 27.171875 C 691.464844 27.351562 692.226562 27.9375 692.195312 28.296875 C 691.886719 32.675781 696.378906 34.515625 697.355469 38.324219 C 698.265625 41.902344 700.496094 45.125 701.503906 48.691406 C 703.214844 54.746094 704.320312 60.960938 705.867188 67.066406 C 707.054688 71.722656 708.683594 76.246094 709.855469 80.902344 C 711.109375 85.863281 712.035156 90.894531 713.109375 95.90625 C 713.371094 97.128906 713.664062 98.332031 713.957031 99.535156 C 714.640625 102.304688 715.453125 105.039062 716.007812 107.835938 C 717.03125 112.964844 718.089844 118.105469 718.808594 123.300781 C 719.441406 127.96875 719.441406 132.738281 720.125 137.394531 C 720.546875 140.257812 721.800781 142.992188 722.535156 145.808594 C 722.875 147.09375 723.203125 148.542969 722.925781 149.796875 C 722.191406 153.132812 721.816406 156.175781 723.671875 159.464844 C 724.699219 161.304688 724.292969 163.957031 724.617188 167.082031 C 724.863281 167.847656 725.820312 169.492188 725.789062 171.117188 C 725.675781 176 726.472656 180.527344 727.988281 185.261719 C 729.710938 190.683594 729.648438 196.671875 730.429688 202.402344 C 730.738281 204.648438 731.160156 206.875 731.699219 209.089844 C 732.835938 213.730469 733.765625 218.449219 735.34375 222.925781 C 737.035156 227.742188 737.703125 232.511719 737.914062 237.605469 C 738.046875 240.992188 740.730469 244.214844 741.871094 247.648438 C 742.894531 250.757812 743.398438 254.042969 744.101562 257.25 C 744.394531 258.585938 744.507812 259.96875 744.898438 261.289062 C 746.621094 267.128906 748.414062 272.957031 750.1875 278.785156 C 750.253906 279.011719 750.429688 279.273438 750.367188 279.433594 C 747.175781 286.792969 753.882812 292.503906 753.734375 299.488281 C 753.671875 302.726562 755.671875 305.980469 756.617188 309.269531 C 757.316406 311.660156 757.835938 314.101562 758.40625 316.527344 C 758.488281 316.871094 758.375 317.277344 758.503906 317.554688 C 761.792969 324.308594 760.847656 332.007812 763.257812 338.972656 C 763.433594 339.492188 763.582031 340.191406 763.972656 340.46875 C 766.691406 342.308594 765.859375 344.996094 766.007812 347.597656 C 766.203125 350.933594 766.871094 354.304688 767.78125 357.527344 C 769.472656 363.53125 771.65625 369.410156 773.25 375.429688 C 773.851562 377.726562 773.363281 380.019531 774.828125 382.511719 C 776.40625 385.164062 775.953125 388.957031 776.75 392.164062 C 777.335938 394.472656 778.554688 396.621094 779.402344 398.882812 C 780.507812 401.863281 781.746094 404.824219 782.527344 407.902344 C 784.039062 413.84375 785.164062 419.878906 786.660156 425.820312 C 787.117188 427.644531 788.207031 429.320312 789.117188 430.996094 C 792.667969 437.523438 792.570312 444.816406 793.660156 451.878906 C 793.902344 453.472656 794.375 455.019531 794.667969 456.617188 C 794.832031 457.496094 795.253906 458.683594 794.863281 459.269531 C 791.886719 463.695312 792.210938 468.316406 792.992188 473.332031 C 793.480469 476.441406 792.308594 479.824219 791.738281 483.0625 C 791.675781 483.472656 790.453125 484.136719 790.160156 483.976562 C 789.25 483.472656 787.832031 482.625 787.832031 481.890625 C 787.800781 479.546875 786.96875 478.050781 784.953125 476.847656 C 784.269531 476.441406 784.121094 475.054688 783.828125 474.078125 C 783.375 472.582031 783 471.050781 782.542969 469.375 C 781.339844 469.914062 780.199219 470.773438 779.84375 470.515625 C 776.894531 468.398438 774.535156 469.800781 771.867188 471.230469 C 769.472656 472.515625 767.390625 471.996094 765.699219 469.34375 C 764.640625 467.667969 762.539062 466.65625 760.945312 465.289062 C 760.390625 464.820312 759.902344 464.265625 759.496094 463.679688 C 759.105469 463.125 758.976562 462.378906 758.554688 461.871094 C 755.445312 458.046875 751.929688 454.5 749.242188 450.414062 C 746.460938 446.183594 744.394531 441.445312 742.113281 436.890625 C 740.371094 433.40625 738.792969 429.839844 737.132812 426.292969 C 735.75 423.316406 734.269531 420.367188 733.015625 417.324219 C 731.859375 414.527344 730.738281 411.660156 730.019531 408.730469 C 729.792969 407.769531 730.820312 406.4375 731.40625 405.347656 C 731.894531 404.449219 732.59375 403.652344 733.195312 402.808594 C 732.121094 402.398438 731.046875 401.652344 729.957031 401.652344 C 726.75 401.652344 727.207031 398.707031 726.195312 397.078125 C 725.464844 395.890625 725.527344 394.214844 725.234375 392.730469 C 729.695312 390.730469 729.46875 390.8125 727.207031 386.222656 C 725.984375 383.730469 725.839844 380.703125 725.136719 377.9375 C 724.925781 377.089844 724.550781 376.292969 724.242188 375.480469 L 724.292969 375.542969 Z M 724.4375 375.578125 " fill-opacity="1" fill-rule="nonzero"/></g><path fill="#ff6a00" d="M 244.199219 249.015625 C 244.851562 249.941406 245.5 250.855469 246.296875 251.992188 C 247.242188 251 247.78125 250.429688 248.332031 249.84375 C 248.578125 249.925781 248.804688 250.023438 249.050781 250.105469 C 248.625 252.5625 248.203125 255.039062 247.796875 257.496094 L 246.753906 257.445312 C 245.613281 254.824219 244.476562 252.222656 243.335938 249.601562 C 243.613281 249.40625 243.90625 249.210938 244.183594 249.015625 Z M 244.199219 249.015625 " fill-opacity="1" fill-rule="nonzero"/><path fill="#ff6a00" d="M 716.5625 363.257812 C 715.976562 361.660156 715.390625 360.066406 714.820312 358.472656 C 715.128906 358.226562 715.453125 357.984375 715.761719 357.753906 C 716.789062 358.4375 718.335938 358.925781 718.710938 359.871094 C 719.066406 360.78125 718.222656 362.164062 717.894531 363.355469 C 717.457031 363.320312 717.015625 363.289062 716.578125 363.257812 Z M 716.5625 363.257812 " fill-opacity="1" fill-rule="nonzero"/><path fill="#ff6a00" d="M 724.40625 375.496094 C 723.429688 376.554688 722.4375 377.628906 720.695312 379.515625 C 720.351562 377.417969 720.09375 375.933594 719.847656 374.453125 C 721.378906 374.8125 722.890625 375.171875 724.421875 375.542969 C 724.421875 375.542969 724.390625 375.496094 724.390625 375.496094 Z M 724.40625 375.496094 " fill-opacity="1" fill-rule="nonzero"/></svg>