<svg xmlns="http://www.w3.org/2000/svg" xmlns:xlink="http://www.w3.org/1999/xlink" width="1080" zoomAndPan="magnify" viewBox="0 0 810 809.999993" height="1080" preserveAspectRatio="xMidYMid meet" version="1.0"><defs><clipPath id="8a98ca1fe5"><path d="M 630 797 L 638.523438 797 L 638.523438 810 L 630 810 Z M 630 797 " clip-rule="nonzero"/></clipPath><clipPath id="43c9762417"><path d="M 594 760 L 638.523438 760 L 638.523438 810 L 594 810 Z M 594 760 " clip-rule="nonzero"/></clipPath><clipPath id="fcf7a87b5f"><path d="M 558 723 L 638.523438 723 L 638.523438 810 L 558 810 Z M 558 723 " clip-rule="nonzero"/></clipPath><clipPath id="67e685e649"><path d="M 523 687 L 638.523438 687 L 638.523438 810 L 523 810 Z M 523 687 " clip-rule="nonzero"/></clipPath><clipPath id="213965bfe0"><path d="M 487 650 L 638.523438 650 L 638.523438 810 L 487 810 Z M 487 650 " clip-rule="nonzero"/></clipPath><clipPath id="838e512a91"><path d="M 451 613 L 638.523438 613 L 638.523438 810 L 451 810 Z M 451 613 " clip-rule="nonzero"/></clipPath><clipPath id="c9eff7edcd"><path d="M 416 576 L 638.523438 576 L 638.523438 810 L 416 810 Z M 416 576 " clip-rule="nonzero"/></clipPath><clipPath id="c78570d38c"><path d="M 380 540 L 638.523438 540 L 638.523438 810 L 380 810 Z M 380 540 " clip-rule="nonzero"/></clipPath><clipPath id="c33c3fb005"><path d="M 345 503 L 638.523438 503 L 638.523438 810 L 345 810 Z M 345 503 " clip-rule="nonzero"/></clipPath><clipPath id="fcce20f990"><path d="M 309 466 L 638.523438 466 L 638.523438 810 L 309 810 Z M 309 466 " clip-rule="nonzero"/></clipPath><clipPath id="1b1fc20ed9"><path d="M 273 429 L 638.523438 429 L 638.523438 810 L 273 810 Z M 273 429 " clip-rule="nonzero"/></clipPath><clipPath id="90778e3aea"><path d="M 238 393 L 638.523438 393 L 638.523438 810 L 238 810 Z M 238 393 " clip-rule="nonzero"/></clipPath><clipPath id="2459a17a22"><path d="M 202 356 L 638.523438 356 L 638.523438 810 L 202 810 Z M 202 356 " clip-rule="nonzero"/></clipPath><clipPath id="a7aab6762c"><path d="M 167 319 L 638.523438 319 L 638.523438 810 L 167 810 Z M 167 319 " clip-rule="nonzero"/></clipPath><clipPath id="4a21b354ce"><path d="M 131 282 L 638.523438 282 L 638.523438 810 L 131 810 Z M 131 282 " clip-rule="nonzero"/></clipPath><clipPath id="25fb1eedba"><path d="M 96 245 L 638.523438 245 L 638.523438 810 L 96 810 Z M 96 245 " clip-rule="nonzero"/></clipPath><clipPath id="def2cfbacd"><path d="M 60 209 L 638.523438 209 L 638.523438 810 L 60 810 Z M 60 209 " clip-rule="nonzero"/></clipPath><clipPath id="3b5d569952"><path d="M 24 173.394531 L 636 173.394531 L 636 810 L 24 810 Z M 24 173.394531 " clip-rule="nonzero"/></clipPath><clipPath id="14b6a24d2f"><path d="M 2 173.394531 L 584 173.394531 L 584 807 L 2 807 Z M 2 173.394531 " clip-rule="nonzero"/></clipPath><clipPath id="030e7199e3"><path d="M 2 173.394531 L 558 173.394531 L 558 795 L 2 795 Z M 2 173.394531 " clip-rule="nonzero"/></clipPath><clipPath id="b3b91bea11"><path d="M 2 173.394531 L 542 173.394531 L 542 779 L 2 779 Z M 2 173.394531 " clip-rule="nonzero"/></clipPath><clipPath id="e6cbf699d1"><path d="M 2 173.394531 L 529 173.394531 L 529 759 L 2 759 Z M 2 173.394531 " clip-rule="nonzero"/></clipPath><clipPath id="806c56553c"><path d="M 2 173.394531 L 516 173.394531 L 516 737 L 2 737 Z M 2 173.394531 " clip-rule="nonzero"/></clipPath><clipPath id="0c3a7fc767"><path d="M 2 173.394531 L 499 173.394531 L 499 711 L 2 711 Z M 2 173.394531 " clip-rule="nonzero"/></clipPath><clipPath id="52f0a2adfb"><path d="M 2 173.394531 L 477 173.394531 L 477 681 L 2 681 Z M 2 173.394531 " clip-rule="nonzero"/></clipPath><clipPath id="14b56898b4"><path d="M 2 173.394531 L 436 173.394531 L 436 649 L 2 649 Z M 2 173.394531 " clip-rule="nonzero"/></clipPath><clipPath id="ec055b4727"><path d="M 2 173.394531 L 359 173.394531 L 359 613 L 2 613 Z M 2 173.394531 " clip-rule="nonzero"/></clipPath><clipPath id="6e48fff42a"><path d="M 2 173.394531 L 249 173.394531 L 249 574 L 2 574 Z M 2 173.394531 " clip-rule="nonzero"/></clipPath><clipPath id="96178d2e31"><path d="M 2 173.394531 L 172 173.394531 L 172 530 L 2 530 Z M 2 173.394531 " clip-rule="nonzero"/></clipPath><clipPath id="33d01f094c"><path d="M 2 173.394531 L 119 173.394531 L 119 477 L 2 477 Z M 2 173.394531 " clip-rule="nonzero"/></clipPath><clipPath id="662151679b"><path d="M 2 173.394531 L 79 173.394531 L 79 405 L 2 405 Z M 2 173.394531 " clip-rule="nonzero"/></clipPath><clipPath id="9e13600b68"><path d="M 2 173.394531 L 44 173.394531 L 44 286 L 2 286 Z M 2 173.394531 " clip-rule="nonzero"/></clipPath><clipPath id="b7b4da0244"><path d="M 2 173.394531 L 13 173.394531 L 13 194 L 2 194 Z M 2 173.394531 " clip-rule="nonzero"/></clipPath><clipPath id="e77dcfe2b4"><path d="M 497 49 L 525 49 L 525 122 L 497 122 Z M 497 49 " clip-rule="nonzero"/></clipPath><clipPath id="af0dca7ea0"><path d="M 494.269531 22.625 L 789.726562 1.007812 L 813.371094 324.144531 L 517.910156 345.761719 Z M 494.269531 22.625 " clip-rule="nonzero"/></clipPath><clipPath id="5c4cc3fdd0"><path d="M 494.269531 22.625 L 789.726562 1.007812 L 813.371094 324.144531 L 517.910156 345.761719 Z M 494.269531 22.625 " clip-rule="nonzero"/></clipPath><clipPath id="c12a2848dc"><path d="M 599 14 L 618 14 L 618 105 L 599 105 Z M 599 14 " clip-rule="nonzero"/></clipPath><clipPath id="e3a2a481ee"><path d="M 494.269531 22.625 L 789.726562 1.007812 L 813.371094 324.144531 L 517.910156 345.761719 Z M 494.269531 22.625 " clip-rule="nonzero"/></clipPath><clipPath id="d13bd21a91"><path d="M 494.269531 22.625 L 789.726562 1.007812 L 813.371094 324.144531 L 517.910156 345.761719 Z M 494.269531 22.625 " clip-rule="nonzero"/></clipPath><clipPath id="ddc0c02156"><path d="M 667 49 L 793 49 L 793 146 L 667 146 Z M 667 49 " clip-rule="nonzero"/></clipPath><clipPath id="224782b409"><path d="M 494.269531 22.625 L 789.726562 1.007812 L 813.371094 324.144531 L 517.910156 345.761719 Z M 494.269531 22.625 " clip-rule="nonzero"/></clipPath><clipPath id="71caaee47f"><path d="M 494.269531 22.625 L 789.726562 1.007812 L 813.371094 324.144531 L 517.910156 345.761719 Z M 494.269531 22.625 " clip-rule="nonzero"/></clipPath><clipPath id="0db6fd17c3"><path d="M 667 205 L 801 205 L 801 222 L 667 222 Z M 667 205 " clip-rule="nonzero"/></clipPath><clipPath id="9dcbb42ab1"><path d="M 494.269531 22.625 L 789.726562 1.007812 L 813.371094 324.144531 L 517.910156 345.761719 Z M 494.269531 22.625 " clip-rule="nonzero"/></clipPath><clipPath id="46d589d2bd"><path d="M 494.269531 22.625 L 789.726562 1.007812 L 813.371094 324.144531 L 517.910156 345.761719 Z M 494.269531 22.625 " clip-rule="nonzero"/></clipPath><clipPath id="67eaeb02fb"><path d="M 651 289 L 738 289 L 738 329 L 651 329 Z M 651 289 " clip-rule="nonzero"/></clipPath><clipPath id="8b1742d720"><path d="M 494.269531 22.625 L 789.726562 1.007812 L 813.371094 324.144531 L 517.910156 345.761719 Z M 494.269531 22.625 " clip-rule="nonzero"/></clipPath><clipPath id="4a39c2ad22"><path d="M 494.269531 22.625 L 789.726562 1.007812 L 813.371094 324.144531 L 517.910156 345.761719 Z M 494.269531 22.625 " clip-rule="nonzero"/></clipPath></defs><g clip-path="url(#8a98ca1fe5)"><path fill="#ff6a00" d="M 637.601562 797.585938 C 636.988281 797.242188 636.203125 797.445312 635.859375 798.0625 C 634.023438 801.269531 632.304688 804.652344 630.753906 808.117188 C 630.457031 808.757812 630.753906 809.527344 631.40625 809.8125 C 631.574219 809.886719 631.753906 809.925781 631.933594 809.925781 C 632.421875 809.925781 632.894531 809.644531 633.101562 809.167969 C 634.613281 805.78125 636.292969 802.472656 638.089844 799.332031 C 638.421875 798.714844 638.21875 797.933594 637.601562 797.585938 Z M 637.601562 797.585938 " fill-opacity="1" fill-rule="nonzero"/></g><g clip-path="url(#43c9762417)"><path fill="#ff6a00" d="M 636.332031 760.851562 C 631.597656 763.480469 630.597656 766.878906 629.726562 769.878906 C 629.367188 771.113281 629.019531 772.277344 628.445312 773.421875 C 627.445312 775.382812 624.96875 776.269531 622.339844 777.21875 C 619.722656 778.152344 617.015625 779.128906 615.144531 781.285156 C 613.207031 783.515625 612.691406 785.8125 612.152344 788.234375 C 611.617188 790.660156 611.0625 793.160156 609.011719 796.136719 C 605.164062 801.742188 600.53125 805.539062 595.25 807.425781 C 594.582031 807.667969 594.234375 808.398438 594.476562 809.066406 C 594.671875 809.59375 595.160156 809.914062 595.683594 809.914062 C 595.824219 809.914062 595.980469 809.886719 596.121094 809.835938 C 601.917969 807.757812 606.972656 803.640625 611.128906 797.585938 C 613.460938 794.199219 614.089844 791.3125 614.65625 788.789062 C 615.167969 786.503906 615.566406 784.695312 617.078125 782.964844 C 618.515625 781.320312 620.902344 780.460938 623.210938 779.628906 C 626.199219 778.550781 629.277344 777.449219 630.738281 774.574219 C 631.421875 773.226562 631.816406 771.894531 632.191406 770.597656 C 633.035156 767.714844 633.78125 765.210938 637.589844 763.082031 C 638.207031 762.734375 638.4375 761.953125 638.089844 761.339844 C 637.742188 760.734375 636.960938 760.503906 636.332031 760.851562 Z M 636.332031 760.851562 " fill-opacity="1" fill-rule="nonzero"/></g><g clip-path="url(#fcf7a87b5f)"><path fill="#ff6a00" d="M 636.371094 724.0625 C 627.625 728.578125 626.070312 734.324219 624.582031 739.878906 C 623.992188 742.085938 623.378906 744.378906 622.289062 746.535156 C 620.324219 750.433594 615.386719 751.882812 610.164062 753.4375 C 605.242188 754.886719 600.148438 756.398438 596.789062 760.09375 C 593.3125 763.917969 592.515625 767.957031 591.683594 772.242188 C 590.824219 776.613281 589.847656 781.566406 585.769531 787.339844 C 578.585938 797.597656 569.800781 804.347656 559.667969 807.398438 C 558.988281 807.605469 558.601562 808.324219 558.808594 809.003906 C 558.972656 809.554688 559.488281 809.914062 560.039062 809.914062 C 560.167969 809.914062 560.28125 809.902344 560.410156 809.863281 C 571.109375 806.640625 580.355469 799.5625 587.871094 788.8125 C 592.257812 782.59375 593.296875 777.347656 594.195312 772.726562 C 595.003906 768.636719 595.695312 765.097656 598.6875 761.8125 C 601.558594 758.644531 606.304688 757.246094 610.882812 755.886719 C 616.398438 754.257812 622.109375 752.5625 624.570312 747.691406 C 625.777344 745.292969 626.429688 742.878906 627.058594 740.546875 C 628.46875 735.300781 629.804688 730.335938 637.550781 726.347656 C 638.179688 726.027344 638.421875 725.242188 638.101562 724.613281 C 637.78125 723.984375 637 723.742188 636.371094 724.0625 Z M 636.371094 724.0625 " fill-opacity="1" fill-rule="nonzero"/></g><g clip-path="url(#67e685e649)"><path fill="#ff6a00" d="M 636.382812 687.300781 C 623.648438 693.6875 621.503906 701.910156 619.441406 709.875 C 618.59375 713.121094 617.722656 716.480469 616.117188 719.664062 C 613.167969 725.511719 605.765625 727.539062 597.929688 729.679688 C 590.707031 731.65625 583.242188 733.695312 578.40625 738.929688 C 573.417969 744.328125 572.339844 750.128906 571.183594 756.257812 C 569.980469 762.683594 568.621094 769.984375 562.515625 778.5625 C 551.957031 793.496094 539.003906 803.191406 524.007812 807.410156 C 523.328125 807.605469 522.929688 808.308594 523.121094 808.988281 C 523.277344 809.554688 523.800781 809.925781 524.355469 809.925781 C 524.46875 809.925781 524.585938 809.914062 524.699219 809.875 C 540.285156 805.5 553.703125 795.457031 564.605469 780.050781 C 571.03125 771.007812 572.453125 763.414062 573.699219 756.734375 C 574.828125 750.71875 575.789062 745.535156 580.277344 740.671875 C 584.613281 735.980469 591.722656 734.03125 598.597656 732.15625 C 606.625 729.964844 614.9375 727.691406 618.402344 720.816406 C 620.132812 717.378906 621.03125 713.890625 621.914062 710.519531 C 623.929688 702.769531 625.839844 695.445312 637.527344 689.585938 C 638.152344 689.265625 638.410156 688.492188 638.101562 687.867188 C 637.792969 687.238281 637.023438 686.980469 636.382812 687.300781 Z M 636.382812 687.300781 " fill-opacity="1" fill-rule="nonzero"/></g><g clip-path="url(#213965bfe0)"><path fill="#ff6a00" d="M 636.398438 650.539062 C 619.695312 658.800781 616.953125 669.511719 614.308594 679.863281 C 613.21875 684.144531 612.089844 688.570312 609.960938 692.792969 C 606.035156 700.601562 596.160156 703.195312 585.703125 705.925781 C 576.1875 708.414062 566.363281 710.992188 560.050781 717.765625 C 553.546875 724.742188 552.175781 732.273438 550.726562 740.25 C 549.175781 748.742188 547.429688 758.375 539.296875 769.777344 C 525.378906 789.363281 508.257812 802.011719 488.398438 807.398438 C 487.71875 807.578125 487.308594 808.285156 487.503906 808.976562 C 487.65625 809.554688 488.167969 809.925781 488.734375 809.925781 C 488.847656 809.925781 488.953125 809.914062 489.066406 809.875 C 509.511719 804.332031 527.113281 791.339844 541.375 771.265625 C 549.839844 759.402344 551.648438 749.472656 553.238281 740.710938 C 554.691406 732.785156 555.933594 725.9375 561.925781 719.507812 C 567.734375 713.277344 577.199219 710.800781 586.359375 708.402344 C 597.390625 705.515625 607.804688 702.796875 612.257812 693.933594 C 614.5 689.457031 615.667969 684.902344 616.796875 680.488281 C 619.414062 670.242188 621.890625 660.570312 637.539062 652.835938 C 638.179688 652.527344 638.4375 651.757812 638.117188 651.117188 C 637.792969 650.488281 637.023438 650.21875 636.398438 650.539062 Z M 636.398438 650.539062 " fill-opacity="1" fill-rule="nonzero"/></g><g clip-path="url(#838e512a91)"><path fill="#ff6a00" d="M 636.398438 613.777344 C 615.71875 623.910156 612.386719 637.097656 609.164062 649.847656 C 607.820312 655.15625 606.433594 660.660156 603.789062 665.917969 C 598.878906 675.707031 586.527344 678.847656 573.457031 682.183594 C 561.65625 685.183594 549.441406 688.300781 541.671875 696.613281 C 533.652344 705.167969 532.074219 714.019531 530.242188 724.269531 C 528.355469 734.824219 526.199219 746.804688 516.042969 761.015625 C 498.765625 785.246094 477.472656 800.859375 452.765625 807.425781 C 452.085938 807.605469 451.675781 808.308594 451.855469 808.988281 C 452.011719 809.566406 452.523438 809.9375 453.101562 809.9375 C 453.203125 809.9375 453.320312 809.925781 453.433594 809.898438 C 478.730469 803.191406 500.496094 787.234375 518.132812 762.503906 C 528.625 747.816406 530.832031 735.554688 532.769531 724.71875 C 534.539062 714.867188 536.050781 706.363281 543.542969 698.371094 C 550.816406 690.609375 562.65625 687.597656 574.097656 684.683594 C 587.757812 681.207031 600.648438 677.925781 606.085938 667.085938 C 608.859375 661.570312 610.28125 655.9375 611.652344 650.488281 C 614.875 637.738281 617.914062 625.707031 637.527344 616.097656 C 638.167969 615.792969 638.421875 615.023438 638.117188 614.378906 C 637.808594 613.726562 637.039062 613.46875 636.398438 613.777344 Z M 636.398438 613.777344 " fill-opacity="1" fill-rule="nonzero"/></g><g clip-path="url(#c9eff7edcd)"><path fill="#ff6a00" d="M 636.398438 577.015625 C 611.757812 589.023438 607.832031 604.683594 604.035156 619.832031 C 602.445312 626.179688 600.800781 632.75 597.632812 639.046875 C 591.734375 650.808594 576.90625 654.503906 561.21875 658.429688 C 547.121094 661.957031 532.550781 665.597656 523.289062 675.4375 C 513.773438 685.570312 511.910156 696.074219 509.757812 708.246094 C 507.523438 720.867188 504.984375 735.183594 492.800781 752.21875 C 472.160156 781.089844 446.738281 799.664062 417.238281 807.398438 C 416.558594 807.578125 416.148438 808.285156 416.324219 808.964844 C 416.480469 809.542969 416.992188 809.925781 417.570312 809.925781 C 417.671875 809.925781 417.789062 809.914062 417.890625 809.886719 C 447.984375 801.984375 473.894531 783.09375 494.878906 753.71875 C 507.410156 736.222656 510 721.601562 512.285156 708.710938 C 514.363281 696.933594 516.171875 686.773438 525.164062 677.207031 C 533.898438 667.90625 548.109375 664.355469 561.835938 660.929688 C 578.113281 656.863281 593.492188 653.015625 599.917969 640.214844 C 603.199219 633.671875 604.882812 626.964844 606.511719 620.472656 C 610.332031 605.222656 613.949219 590.816406 637.511719 579.335938 C 638.152344 579.03125 638.410156 578.261719 638.101562 577.617188 C 637.808594 576.976562 637.039062 576.707031 636.398438 577.015625 Z M 636.398438 577.015625 " fill-opacity="1" fill-rule="nonzero"/></g><g clip-path="url(#c78570d38c)"><path fill="#ff6a00" d="M 636.398438 540.242188 C 607.765625 554.105469 603.253906 572.257812 598.890625 589.804688 C 597.058594 597.191406 595.144531 604.835938 591.476562 612.175781 C 584.589844 625.898438 567.296875 630.171875 548.980469 634.683594 C 532.601562 638.726562 515.65625 642.90625 504.933594 654.285156 C 493.902344 665.984375 491.773438 678.15625 489.296875 692.253906 C 486.71875 706.953125 483.796875 723.601562 469.570312 743.445312 C 445.585938 776.972656 416.003906 798.496094 381.667969 807.410156 C 380.988281 807.589844 380.566406 808.285156 380.746094 808.976562 C 380.898438 809.554688 381.410156 809.9375 381.988281 809.9375 C 382.089844 809.9375 382.207031 809.925781 382.308594 809.902344 C 417.238281 800.832031 447.304688 778.976562 471.648438 744.945312 C 486.207031 724.628906 489.195312 707.671875 491.8125 692.714844 C 494.210938 679.027344 496.289062 667.203125 506.792969 656.054688 C 517.003906 645.214844 533.578125 641.136719 549.597656 637.1875 C 568.503906 632.53125 586.359375 628.117188 593.773438 613.339844 C 597.582031 605.746094 599.519531 597.976562 601.390625 590.445312 C 605.804688 572.691406 609.972656 555.929688 637.527344 542.574219 C 638.167969 542.269531 638.421875 541.5 638.117188 540.855469 C 637.808594 540.214844 637.039062 539.933594 636.398438 540.242188 Z M 636.398438 540.242188 " fill-opacity="1" fill-rule="nonzero"/></g><g clip-path="url(#c33c3fb005)"><path fill="#ff6a00" d="M 636.398438 503.480469 C 603.789062 519.21875 598.6875 539.84375 593.746094 559.777344 C 591.65625 568.203125 589.5 576.914062 585.308594 585.289062 C 577.429688 600.988281 557.664062 605.8125 536.730469 610.917969 C 518.054688 615.46875 498.738281 620.191406 486.554688 633.109375 C 474.019531 646.382812 471.597656 660.222656 468.8125 676.230469 C 465.890625 692.996094 462.578125 711.992188 446.316406 734.644531 C 418.96875 772.816406 385.234375 797.292969 346.074219 807.398438 C 345.378906 807.578125 344.96875 808.269531 345.148438 808.964844 C 345.304688 809.542969 345.816406 809.925781 346.394531 809.925781 C 346.496094 809.925781 346.613281 809.914062 346.714844 809.886719 C 386.476562 799.640625 420.6875 774.832031 448.40625 736.144531 C 465.003906 713.019531 468.363281 693.714844 471.339844 676.679688 C 474.058594 661.070312 476.421875 647.589844 488.425781 634.863281 C 500.097656 622.5 519.042969 617.871094 537.347656 613.40625 C 558.871094 608.148438 579.203125 603.195312 587.617188 586.429688 C 591.9375 577.8125 594.132812 568.949219 596.25 560.390625 C 601.265625 540.136719 605.996094 521 637.527344 505.789062 C 638.167969 505.480469 638.4375 504.710938 638.128906 504.070312 C 637.808594 503.441406 637.039062 503.171875 636.398438 503.480469 Z M 636.398438 503.480469 " fill-opacity="1" fill-rule="nonzero"/></g><g clip-path="url(#fcce20f990)"><path fill="#ff6a00" d="M 636.410156 466.71875 C 599.839844 484.328125 594.132812 507.429688 588.617188 529.761719 C 586.28125 539.226562 583.871094 549.015625 579.152344 558.417969 C 570.285156 576.09375 548.046875 581.480469 524.480469 587.175781 C 503.511719 592.253906 481.832031 597.5 468.171875 611.957031 C 454.125 626.808594 451.433594 642.304688 448.316406 660.25 C 445.046875 679.078125 441.351562 700.410156 423.058594 725.882812 C 392.351562 768.714844 354.476562 796.136719 310.480469 807.410156 C 309.785156 807.589844 309.375 808.285156 309.554688 808.976562 C 309.710938 809.554688 310.222656 809.9375 310.800781 809.9375 C 310.902344 809.9375 311.015625 809.925781 311.121094 809.902344 C 355.71875 798.472656 394.085938 770.703125 425.152344 727.386719 C 443.777344 701.4375 447.535156 679.796875 450.855469 660.699219 C 453.894531 643.164062 456.527344 628.027344 470.046875 613.738281 C 483.191406 599.835938 504.496094 594.679688 525.097656 589.6875 C 549.25 583.839844 572.058594 578.324219 581.445312 559.585938 C 586.296875 549.925781 588.746094 539.996094 591.105469 530.390625 C 596.722656 507.636719 602.035156 486.136719 637.511719 469.039062 C 638.152344 468.730469 638.421875 467.960938 638.117188 467.332031 C 637.808594 466.679688 637.039062 466.410156 636.410156 466.71875 Z M 636.410156 466.71875 " fill-opacity="1" fill-rule="nonzero"/></g><g clip-path="url(#1b1fc20ed9)"><path fill="#ff6a00" d="M 636.410156 429.957031 C 618.222656 438.703125 605.355469 449.402344 597.082031 462.664062 C 589.695312 474.515625 586.539062 487.34375 583.484375 499.734375 C 580.90625 510.238281 578.226562 521.089844 572.992188 531.53125 C 563.140625 551.183594 538.425781 557.121094 512.246094 563.417969 C 488.992188 569.011719 464.941406 574.796875 449.804688 590.792969 C 434.246094 607.222656 431.28125 624.371094 427.859375 644.242188 C 424.242188 665.136719 420.148438 688.816406 399.832031 717.097656 C 365.761719 764.570312 323.742188 794.957031 274.910156 807.410156 C 274.21875 807.589844 273.808594 808.285156 273.988281 808.976562 C 274.140625 809.554688 274.652344 809.9375 275.230469 809.9375 C 275.332031 809.9375 275.4375 809.925781 275.550781 809.902344 C 324.972656 797.292969 367.496094 766.570312 401.921875 718.597656 C 422.585938 689.839844 426.730469 665.855469 430.382812 644.691406 C 433.746094 625.230469 436.65625 608.441406 451.675781 592.574219 C 466.285156 577.132812 489.964844 571.449219 512.859375 565.933594 C 539.632812 559.496094 564.914062 553.414062 575.300781 532.699219 C 580.664062 522 583.371094 510.996094 585.988281 500.363281 C 592.207031 475.09375 598.082031 451.234375 637.539062 432.277344 C 638.179688 431.96875 638.449219 431.199219 638.140625 430.570312 C 637.808594 429.917969 637.039062 429.648438 636.410156 429.957031 Z M 636.410156 429.957031 " fill-opacity="1" fill-rule="nonzero"/></g><g clip-path="url(#90778e3aea)"><path fill="#ff6a00" d="M 378.667969 709.800781 C 401.355469 678.21875 405.898438 651.898438 409.898438 628.65625 C 413.582031 607.289062 416.761719 588.816406 433.296875 571.382812 C 449.382812 554.414062 475.417969 548.179688 500.597656 542.164062 C 529.996094 535.136719 557.753906 528.492188 569.121094 505.800781 C 575.007812 494.0625 577.96875 481.996094 580.832031 470.320312 C 587.65625 442.550781 594.09375 416.332031 637.511719 395.488281 C 638.152344 395.183594 638.421875 394.414062 638.117188 393.785156 C 637.808594 393.140625 637.039062 392.875 636.410156 393.179688 C 616.4375 402.761719 602.316406 414.5 593.246094 429.046875 C 585.140625 442.039062 581.691406 456.109375 578.34375 469.71875 C 575.507812 481.25 572.582031 493.179688 566.824219 504.660156 C 555.984375 526.273438 528.792969 532.789062 499.996094 539.675781 C 474.445312 545.78125 448.035156 552.105469 431.421875 569.628906 C 414.363281 587.636719 411.117188 606.441406 407.359375 628.234375 C 403.410156 651.195312 398.921875 677.21875 376.574219 708.3125 C 339.160156 760.425781 292.96875 793.765625 239.328125 807.398438 C 238.636719 807.578125 238.226562 808.269531 238.40625 808.964844 C 238.558594 809.542969 239.070312 809.925781 239.648438 809.925781 C 239.75 809.925781 239.855469 809.914062 239.96875 809.886719 C 294.214844 796.097656 340.878906 762.429688 378.667969 709.800781 Z M 378.667969 709.800781 " fill-opacity="1" fill-rule="nonzero"/></g><g clip-path="url(#2459a17a22)"><path fill="#ff6a00" d="M 636.410156 356.433594 C 587.925781 379.660156 580.78125 408.828125 573.210938 439.703125 C 570.132812 452.273438 566.9375 465.28125 560.667969 477.785156 C 548.839844 501.375 519.171875 508.441406 487.757812 515.921875 C 459.925781 522.554688 431.128906 529.402344 413.054688 548.464844 C 394.480469 568.035156 390.96875 588.519531 386.886719 612.226562 C 382.589844 637.25 377.71875 665.609375 353.332031 699.523438 C 312.558594 756.285156 262.222656 792.585938 203.746094 807.398438 C 203.054688 807.578125 202.644531 808.269531 202.824219 808.953125 C 202.964844 809.527344 203.488281 809.914062 204.066406 809.914062 C 204.167969 809.914062 204.273438 809.902344 204.386719 809.875 C 263.46875 794.90625 314.289062 758.285156 355.425781 701.011719 C 380.15625 666.625 385.078125 637.945312 389.429688 612.648438 C 393.429688 589.355469 396.894531 569.230469 414.929688 550.21875 C 432.476562 531.710938 460.886719 524.953125 488.363281 518.410156 C 520.378906 510.789062 550.609375 503.582031 562.976562 478.929688 C 569.375 466.152344 572.597656 453.019531 575.710938 440.308594 C 583.125 410.035156 590.144531 381.445312 637.527344 358.742188 C 638.167969 358.433594 638.4375 357.664062 638.128906 357.035156 C 637.808594 356.394531 637.039062 356.125 636.410156 356.433594 Z M 636.410156 356.433594 " fill-opacity="1" fill-rule="nonzero"/></g><g clip-path="url(#a7aab6762c)"><path fill="#ff6a00" d="M 332.183594 692.238281 C 358.9375 655.042969 364.261719 624.011719 368.945312 596.652344 C 373.265625 571.4375 377 549.65625 396.535156 529.070312 C 415.554688 509.035156 446.328125 501.722656 476.097656 494.667969 C 510.730469 486.445312 543.453125 478.683594 556.792969 452.054688 C 563.707031 438.242188 567.195312 424.03125 570.554688 410.292969 C 578.574219 377.519531 586.152344 346.566406 637.511719 321.980469 C 638.152344 321.671875 638.421875 320.902344 638.117188 320.273438 C 637.808594 319.632812 637.039062 319.363281 636.410156 319.671875 C 612.871094 330.933594 596.25 344.722656 585.578125 361.820312 C 576.046875 377.109375 571.992188 393.667969 568.066406 409.675781 C 564.734375 423.285156 561.296875 437.355469 554.511719 450.902344 C 541.695312 476.464844 509.550781 484.097656 475.507812 492.164062 C 445.378906 499.3125 414.222656 506.699219 394.675781 527.296875 C 374.601562 548.449219 370.804688 570.589844 366.402344 596.21875 C 361.761719 623.308594 356.5 654.015625 330.078125 690.738281 C 285.941406 752.152344 231.464844 791.402344 168.152344 807.398438 C 167.460938 807.578125 167.046875 808.269531 167.226562 808.953125 C 167.371094 809.527344 167.894531 809.925781 168.472656 809.925781 C 168.574219 809.925781 168.679688 809.914062 168.792969 809.886719 C 232.710938 793.738281 287.683594 754.15625 332.183594 692.238281 Z M 332.183594 692.238281 " fill-opacity="1" fill-rule="nonzero"/></g><g clip-path="url(#4a21b354ce)"><path fill="#ff6a00" d="M 308.941406 683.464844 C 337.734375 643.445312 343.445312 610.082031 348.472656 580.660156 C 353.117188 553.515625 357.117188 530.082031 378.167969 507.917969 C 398.652344 486.34375 431.796875 478.503906 463.851562 470.925781 C 501.113281 462.113281 536.296875 453.800781 550.636719 425.183594 C 558.074219 410.34375 561.808594 395.054688 565.425781 380.265625 C 574.046875 344.992188 582.191406 311.667969 637.511719 285.21875 C 638.152344 284.910156 638.421875 284.140625 638.117188 283.511719 C 637.808594 282.871094 637.039062 282.601562 636.410156 282.910156 C 579.984375 309.882812 571.710938 343.785156 562.9375 379.660156 C 559.359375 394.308594 555.652344 409.445312 548.351562 424.042969 C 534.550781 451.582031 499.933594 459.765625 463.273438 468.4375 C 430.859375 476.105469 397.328125 484.019531 376.320312 506.160156 C 354.730469 528.890625 350.664062 552.683594 345.945312 580.234375 C 340.957031 609.390625 335.3125 642.445312 306.863281 681.976562 C 259.375 748.035156 200.746094 790.238281 132.609375 807.410156 C 131.914062 807.589844 131.503906 808.285156 131.671875 808.964844 C 131.8125 809.542969 132.339844 809.9375 132.917969 809.9375 C 133.019531 809.9375 133.121094 809.925781 133.238281 809.902344 C 201.964844 792.558594 261.082031 750.023438 308.941406 683.464844 Z M 308.941406 683.464844 " fill-opacity="1" fill-rule="nonzero"/></g><g clip-path="url(#25fb1eedba)"><path fill="#ff6a00" d="M 285.683594 674.679688 C 316.507812 631.851562 322.601562 596.140625 327.988281 564.636719 C 332.953125 535.570312 337.234375 510.484375 359.785156 486.738281 C 381.746094 463.625 417.261719 455.261719 451.601562 447.15625 C 491.480469 437.753906 529.152344 428.878906 544.464844 398.285156 C 552.417969 382.40625 556.421875 366.050781 560.28125 350.222656 C 569.503906 312.449219 578.214844 276.765625 637.511719 248.429688 C 638.152344 248.121094 638.421875 247.363281 638.117188 246.722656 C 637.808594 246.082031 637.039062 245.8125 636.410156 246.121094 C 576.019531 274.96875 567.171875 311.230469 557.792969 349.621094 C 553.972656 365.308594 550.007812 381.519531 542.183594 397.144531 C 527.394531 426.660156 490.296875 435.40625 451.011719 444.65625 C 416.300781 452.839844 380.410156 461.304688 357.925781 484.957031 C 334.835938 509.265625 330.488281 534.710938 325.460938 564.1875 C 320.125 595.410156 314.082031 630.8125 283.605469 673.152344 C 232.761719 743.855469 169.984375 789.019531 97.015625 807.375 C 96.320312 807.539062 95.910156 808.246094 96.078125 808.925781 C 96.21875 809.503906 96.746094 809.902344 97.320312 809.902344 C 97.425781 809.902344 97.527344 809.886719 97.628906 809.863281 C 171.21875 791.378906 234.480469 745.894531 285.683594 674.679688 Z M 285.683594 674.679688 " fill-opacity="1" fill-rule="nonzero"/></g><g clip-path="url(#def2cfbacd)"><path fill="#ff6a00" d="M 262.441406 665.894531 C 295.304688 620.242188 301.78125 582.199219 307.503906 548.628906 C 312.789062 517.652344 317.339844 490.882812 341.40625 465.574219 C 364.839844 440.933594 402.714844 432.019531 439.351562 423.414062 C 481.859375 413.421875 521.992188 403.980469 538.308594 371.425781 C 546.789062 354.507812 551.035156 337.078125 555.152344 320.222656 C 564.976562 279.933594 574.25 241.886719 637.511719 211.695312 C 638.152344 211.386719 638.421875 210.628906 638.117188 209.988281 C 637.808594 209.347656 637.039062 209.078125 636.410156 209.382812 C 607.523438 223.171875 587.140625 240.054688 574.070312 260.988281 C 562.398438 279.703125 557.449219 299.992188 552.664062 319.632812 C 548.582031 336.34375 544.375 353.636719 536.027344 370.296875 C 520.25 401.789062 480.679688 411.085938 438.773438 420.9375 C 401.765625 429.636719 363.519531 438.640625 339.558594 463.832031 C 314.957031 489.703125 310.335938 516.820312 304.976562 548.21875 C 299.304688 581.503906 292.867188 619.242188 260.363281 664.40625 C 206.15625 739.75 139.238281 787.863281 61.445312 807.410156 C 60.753906 807.578125 60.34375 808.285156 60.507812 808.964844 C 60.648438 809.542969 61.175781 809.9375 61.753906 809.9375 C 61.855469 809.9375 61.957031 809.925781 62.0625 809.902344 C 140.457031 790.199219 207.875 741.75 262.441406 665.894531 Z M 262.441406 665.894531 " fill-opacity="1" fill-rule="nonzero"/></g><g clip-path="url(#3b5d569952)"><path fill="#ff6a00" d="M 239.199219 657.121094 C 274.089844 608.660156 280.964844 568.269531 287.03125 532.636719 C 292.636719 499.734375 297.472656 471.308594 323.035156 444.425781 C 347.933594 418.246094 388.183594 408.804688 427.113281 399.671875 C 472.238281 389.089844 514.863281 379.085938 532.152344 344.554688 C 541.144531 326.597656 545.660156 308.101562 550.019531 290.207031 C 560.320312 247.941406 570.042969 208.023438 635.023438 176.152344 C 635.664062 175.84375 635.921875 175.074219 635.613281 174.429688 C 635.304688 173.789062 634.535156 173.535156 633.894531 173.839844 C 567.835938 206.253906 557.972656 246.738281 547.53125 289.605469 C 543.210938 307.355469 538.734375 325.710938 529.871094 343.398438 C 513.105469 376.851562 471.058594 386.730469 426.535156 397.171875 C 387.246094 406.394531 346.613281 415.921875 321.1875 442.652344 C 295.085938 470.105469 290.1875 498.875 284.503906 532.199219 C 278.488281 567.5625 271.664062 607.632812 237.121094 655.617188 C 179.554688 735.621094 108.480469 786.683594 25.863281 807.398438 C 25.171875 807.566406 24.761719 808.269531 24.925781 808.953125 C 25.066406 809.527344 25.59375 809.925781 26.171875 809.925781 C 26.273438 809.925781 26.375 809.914062 26.480469 809.886719 C 109.710938 789.019531 181.273438 737.621094 239.199219 657.121094 Z M 239.199219 657.121094 " fill-opacity="1" fill-rule="nonzero"/></g><g clip-path="url(#14b6a24d2f)"><path fill="#ff6a00" d="M 215.957031 648.332031 C 252.875 597.050781 260.144531 554.324219 266.546875 516.625 C 272.472656 481.800781 277.578125 451.722656 304.65625 423.261719 C 331.027344 395.542969 373.636719 385.5625 414.851562 375.917969 C 462.59375 364.730469 507.691406 354.175781 525.984375 317.667969 C 535.5 298.683594 540.257812 279.113281 544.863281 260.179688 C 552.175781 230.164062 559.078125 201.816406 583.371094 175.867188 C 583.859375 175.355469 583.832031 174.535156 583.304688 174.058594 C 582.78125 173.585938 581.972656 173.597656 581.496094 174.125 C 556.742188 200.558594 549.429688 230.5625 542.375 259.578125 C 537.796875 278.367188 533.078125 297.800781 523.6875 316.527344 C 505.933594 351.957031 461.414062 362.382812 414.261719 373.425781 C 372.675781 383.164062 329.679688 393.230469 302.78125 421.503906 C 275.167969 450.53125 269.996094 480.96875 264.007812 516.203125 C 257.644531 553.632812 250.4375 596.050781 213.855469 646.84375 C 155.980469 727.28125 85.019531 780.15625 2.953125 803.988281 C 2.273438 804.179688 1.878906 804.898438 2.082031 805.578125 C 2.25 806.140625 2.761719 806.5 3.3125 806.5 C 3.429688 806.5 3.558594 806.488281 3.671875 806.449219 C 86.304688 782.449219 157.722656 729.257812 215.957031 648.332031 Z M 215.957031 648.332031 " fill-opacity="1" fill-rule="nonzero"/></g><g clip-path="url(#030e7199e3)"><path fill="#ff6a00" d="M 3.3125 794.277344 C 3.46875 794.277344 3.632812 794.25 3.789062 794.1875 C 76.246094 765.070312 139.816406 713.03125 192.714844 639.546875 C 231.671875 585.457031 239.328125 540.382812 246.074219 500.617188 C 252.320312 463.871094 257.710938 432.136719 286.289062 402.09375 C 314.121094 372.851562 359.105469 362.332031 402.613281 352.160156 C 452.984375 340.386719 500.558594 329.265625 519.824219 290.785156 C 529.855469 270.761719 534.886719 250.109375 539.734375 230.136719 C 544.363281 211.117188 548.738281 193.144531 557.074219 175.523438 C 557.382812 174.878906 557.101562 174.109375 556.460938 173.816406 C 555.816406 173.507812 555.046875 173.789062 554.753906 174.429688 C 546.300781 192.285156 541.695312 211.21875 537.230469 229.535156 C 532.410156 249.367188 527.417969 269.863281 517.515625 289.628906 C 498.777344 327.03125 451.78125 338.027344 402.011719 349.648438 C 358.144531 359.894531 312.773438 370.503906 284.414062 400.3125 C 255.296875 430.917969 249.847656 463.011719 243.535156 500.171875 C 236.828125 539.664062 229.21875 584.417969 190.625 638.035156 C 138.019531 711.121094 74.835938 762.851562 2.828125 791.789062 C 2.171875 792.058594 1.851562 792.800781 2.121094 793.457031 C 2.324219 793.980469 2.800781 794.277344 3.3125 794.277344 Z M 3.3125 794.277344 " fill-opacity="1" fill-rule="nonzero"/></g><g clip-path="url(#b3b91bea11)"><path fill="#ff6a00" d="M 389.789062 325.929688 C 343.625 336.703125 295.894531 347.839844 266.058594 379.175781 C 235.429688 411.34375 229.707031 445.105469 223.078125 484.1875 C 216.023438 525.746094 208.03125 572.847656 167.394531 629.273438 C 120.320312 694.636719 64.921875 743.996094 2.722656 775.949219 C 2.09375 776.269531 1.839844 777.050781 2.171875 777.679688 C 2.402344 778.128906 2.851562 778.371094 3.3125 778.371094 C 3.507812 778.371094 3.710938 778.320312 3.902344 778.230469 C 66.460938 746.085938 122.167969 696.484375 169.472656 630.773438 C 210.453125 573.859375 218.496094 526.453125 225.601562 484.609375 C 232.171875 445.9375 237.828125 412.550781 267.917969 380.929688 C 297.230469 350.148438 344.574219 339.101562 390.378906 328.40625 C 443.363281 316.039062 493.414062 304.367188 513.683594 263.910156 C 524.238281 242.851562 529.511719 221.121094 534.617188 200.109375 C 536.605469 191.953125 538.644531 183.511719 540.964844 175.328125 C 541.15625 174.648438 540.757812 173.945312 540.078125 173.75 C 539.398438 173.558594 538.695312 173.957031 538.503906 174.636719 C 536.167969 182.871094 534.117188 191.335938 532.128906 199.507812 C 527.058594 220.378906 521.8125 241.953125 511.386719 262.757812 C 491.660156 302.148438 442.171875 313.707031 389.789062 325.929688 Z M 389.789062 325.929688 " fill-opacity="1" fill-rule="nonzero"/></g><g clip-path="url(#e6cbf699d1)"><path fill="#ff6a00" d="M 377.539062 302.175781 C 329.089844 313.460938 278.988281 325.132812 247.679688 358.007812 C 215.546875 391.757812 209.542969 427.171875 202.59375 468.179688 C 195.191406 511.804688 186.816406 561.25 144.140625 620.484375 C 102.863281 677.820312 55.261719 723.601562 2.632812 756.578125 C 2.03125 756.949219 1.851562 757.746094 2.222656 758.347656 C 2.46875 758.734375 2.890625 758.953125 3.3125 758.953125 C 3.542969 758.953125 3.777344 758.886719 3.992188 758.757812 C 56.90625 725.601562 104.75 679.59375 146.230469 622 C 189.253906 562.277344 197.679688 512.523438 205.117188 468.617188 C 211.992188 428.019531 217.945312 392.964844 249.539062 359.792969 C 280.308594 327.46875 330.039062 315.886719 378.113281 304.6875 C 433.730469 291.734375 486.257812 279.496094 507.5 237.066406 C 517.605469 216.886719 523.058594 196.339844 528.1875 175.316406 C 528.355469 174.625 527.933594 173.929688 527.253906 173.765625 C 526.558594 173.597656 525.867188 174.019531 525.699219 174.699219 C 520.597656 195.582031 515.195312 215.964844 505.203125 235.910156 C 484.5 277.25 432.550781 289.359375 377.539062 302.175781 Z M 377.539062 302.175781 " fill-opacity="1" fill-rule="nonzero"/></g><g clip-path="url(#806c56553c)"><path fill="#ff6a00" d="M 365.300781 278.417969 C 314.558594 290.234375 262.082031 302.429688 229.308594 336.84375 C 195.664062 372.171875 189.378906 409.242188 182.121094 452.171875 C 174.386719 497.859375 165.613281 549.65625 120.910156 611.699219 C 85.648438 660.660156 45.835938 701.746094 2.558594 733.835938 C 1.992188 734.261719 1.863281 735.070312 2.289062 735.632812 C 2.542969 735.964844 2.929688 736.144531 3.3125 736.144531 C 3.582031 736.144531 3.851562 736.070312 4.070312 735.890625 C 47.554688 703.640625 87.558594 662.367188 122.976562 613.1875 C 168.023438 550.644531 176.847656 498.554688 184.632812 452.582031 C 191.832031 410.074219 198.050781 373.351562 231.15625 338.601562 C 263.402344 304.753906 315.492188 292.632812 365.863281 280.90625 C 424.097656 267.363281 479.101562 254.5625 501.34375 210.15625 C 506.511719 199.839844 510.976562 188.464844 515.003906 175.355469 C 515.207031 174.675781 514.835938 173.957031 514.15625 173.75 C 513.476562 173.546875 512.757812 173.917969 512.554688 174.597656 C 508.578125 187.566406 504.152344 198.816406 499.058594 209 C 477.355469 252.34375 422.917969 265.015625 365.300781 278.417969 Z M 365.300781 278.417969 " fill-opacity="1" fill-rule="nonzero"/></g><g clip-path="url(#0c3a7fc767)"><path fill="#ff6a00" d="M 210.929688 315.695312 C 175.785156 352.597656 169.214844 391.320312 161.636719 436.175781 C 153.554688 483.929688 144.394531 538.058594 97.65625 602.9375 C 68.71875 643.125 36.6875 678.398438 2.480469 707.785156 C 1.941406 708.246094 1.878906 709.054688 2.339844 709.59375 C 2.59375 709.890625 2.953125 710.042969 3.3125 710.042969 C 3.609375 710.042969 3.902344 709.941406 4.148438 709.734375 C 38.523438 680.222656 70.679688 644.792969 99.734375 604.441406 C 146.820312 539.085938 156.03125 484.648438 164.164062 436.613281 C 171.679688 392.179688 178.183594 353.800781 212.789062 317.476562 C 246.5 282.085938 300.960938 269.425781 353.628906 257.191406 C 414.480469 243.042969 471.957031 229.691406 495.1875 183.308594 C 496.441406 180.792969 497.6875 178.175781 498.867188 175.535156 C 499.160156 174.894531 498.867188 174.125 498.226562 173.839844 C 497.585938 173.546875 496.816406 173.839844 496.53125 174.484375 C 495.363281 177.085938 494.148438 179.679688 492.902344 182.152344 C 470.210938 227.445312 413.300781 240.667969 353.050781 254.675781 C 300.011719 267.003906 245.175781 279.738281 210.929688 315.695312 Z M 210.929688 315.695312 " fill-opacity="1" fill-rule="nonzero"/></g><g clip-path="url(#52f0a2adfb)"><path fill="#ff6a00" d="M 192.5625 294.53125 C 155.902344 332.996094 149.066406 373.402344 141.164062 420.167969 C 132.738281 469.988281 123.179688 526.464844 74.425781 594.152344 C 52.082031 625.167969 27.863281 653.527344 2.429688 678.449219 C 1.929688 678.949219 1.914062 679.757812 2.414062 680.257812 C 2.671875 680.515625 3.003906 680.644531 3.328125 680.644531 C 3.648438 680.644531 3.980469 680.515625 4.222656 680.273438 C 29.761719 655.246094 54.082031 626.769531 76.503906 595.640625 C 125.617188 527.476562 135.226562 470.695312 143.691406 420.59375 C 151.527344 374.234375 158.300781 334.203125 194.421875 296.300781 C 229.605469 259.371094 286.429688 246.183594 341.378906 233.421875 C 395.535156 220.851562 446.6875 208.972656 475.894531 175.84375 C 476.367188 175.316406 476.316406 174.496094 475.777344 174.035156 C 475.253906 173.558594 474.433594 173.625 473.96875 174.148438 C 445.316406 206.664062 394.546875 218.441406 340.800781 230.921875 C 285.480469 243.761719 228.269531 257.050781 192.5625 294.53125 Z M 192.5625 294.53125 " fill-opacity="1" fill-rule="nonzero"/></g><g clip-path="url(#14b56898b4)"><path fill="#ff6a00" d="M 174.179688 273.363281 C 136.019531 313.410156 128.902344 355.46875 120.679688 404.160156 C 111.90625 456.058594 101.964844 514.871094 51.171875 585.367188 C 35.703125 606.839844 19.28125 627.207031 2.363281 645.910156 C 1.890625 646.433594 1.929688 647.242188 2.453125 647.71875 C 2.699219 647.9375 3.003906 648.050781 3.3125 648.050781 C 3.660156 648.050781 4.007812 647.910156 4.261719 647.628906 C 21.246094 628.863281 37.726562 608.414062 53.25 586.867188 C 104.390625 515.882812 114.394531 456.75 123.207031 404.597656 C 131.363281 356.316406 138.417969 314.617188 176.039062 275.148438 C 212.6875 236.691406 271.882812 222.957031 329.128906 209.679688 C 368.265625 200.609375 405.21875 192.03125 434.847656 176.136719 C 435.476562 175.804688 435.707031 175.023438 435.375 174.40625 C 435.039062 173.789062 434.257812 173.546875 433.640625 173.878906 C 404.320312 189.617188 367.519531 198.148438 328.566406 207.191406 C 270.945312 220.53125 211.367188 234.347656 174.179688 273.363281 Z M 174.179688 273.363281 " fill-opacity="1" fill-rule="nonzero"/></g><g clip-path="url(#ec055b4727)"><path fill="#ff6a00" d="M 155.8125 252.199219 C 116.140625 293.824219 108.75 337.539062 100.207031 388.152344 C 91.089844 442.117188 80.761719 503.273438 27.929688 576.578125 C 19.679688 588.019531 11.0625 599.308594 2.3125 610.121094 C 1.863281 610.671875 1.953125 611.480469 2.503906 611.929688 C 2.75 612.121094 3.03125 612.210938 3.3125 612.210938 C 3.6875 612.210938 4.058594 612.046875 4.3125 611.738281 C 13.085938 600.886719 21.734375 589.574219 30.007812 578.082031 C 83.1875 504.289062 93.5625 442.808594 102.734375 388.574219 C 111.214844 338.371094 118.539062 295.015625 157.671875 253.972656 C 195.792969 213.976562 257.363281 199.714844 316.890625 185.910156 C 330.207031 182.820312 343.984375 179.640625 357.089844 176.226562 C 357.769531 176.046875 358.195312 175.355469 358.015625 174.664062 C 357.835938 173.984375 357.144531 173.558594 356.449219 173.738281 C 343.378906 177.136719 329.617188 180.320312 316.316406 183.410156 C 256.414062 197.300781 194.460938 211.65625 155.8125 252.199219 Z M 155.8125 252.199219 " fill-opacity="1" fill-rule="nonzero"/></g><g clip-path="url(#6e48fff42a)"><path fill="#ff6a00" d="M 137.429688 231.050781 C 96.257812 274.238281 88.597656 319.605469 79.722656 372.144531 C 70.269531 428.171875 59.546875 491.664062 4.6875 567.792969 C 4.148438 568.550781 3.597656 569.292969 3.042969 570.050781 L 2.273438 571.101562 C 1.863281 571.679688 1.980469 572.476562 2.558594 572.898438 C 2.789062 573.066406 3.042969 573.140625 3.3125 573.140625 C 3.710938 573.140625 4.097656 572.960938 4.351562 572.617188 L 5.121094 571.5625 C 5.671875 570.808594 6.226562 570.050781 6.777344 569.292969 C 61.984375 492.679688 72.757812 428.867188 82.261719 372.566406 C 91.0625 320.441406 98.667969 275.429688 139.304688 232.808594 C 169.320312 201.316406 213.148438 186.027344 247.972656 176.226562 C 248.652344 176.035156 249.050781 175.328125 248.859375 174.648438 C 248.667969 173.96875 247.960938 173.570312 247.28125 173.765625 C 212.121094 183.652344 167.882812 199.109375 137.429688 231.050781 Z M 137.429688 231.050781 " fill-opacity="1" fill-rule="nonzero"/></g><g clip-path="url(#96178d2e31)"><path fill="#ff6a00" d="M 2.210938 527.503906 C 1.851562 528.105469 2.042969 528.902344 2.648438 529.261719 C 2.851562 529.390625 3.082031 529.441406 3.300781 529.441406 C 3.738281 529.441406 4.160156 529.222656 4.402344 528.8125 C 43.742188 463.203125 53.3125 406.546875 61.753906 356.574219 C 70.886719 302.519531 78.761719 255.84375 120.910156 211.640625 C 134.070312 197.839844 150.375 186.230469 170.753906 176.136719 C 171.398438 175.816406 171.652344 175.058594 171.332031 174.417969 C 171.011719 173.789062 170.253906 173.519531 169.613281 173.839844 C 148.960938 184.078125 132.417969 195.867188 119.050781 209.871094 C 76.363281 254.636719 68.421875 301.675781 59.214844 356.148438 C 50.824219 405.90625 41.308594 462.304688 2.210938 527.503906 Z M 2.210938 527.503906 " fill-opacity="1" fill-rule="nonzero"/></g><g clip-path="url(#33d01f094c)"><path fill="#ff6a00" d="M 2.789062 476.425781 C 2.953125 476.503906 3.132812 476.542969 3.3125 476.542969 C 3.800781 476.542969 4.277344 476.261719 4.480469 475.785156 C 26.902344 425.824219 34.546875 380.535156 41.28125 340.578125 C 50.722656 284.601562 58.878906 236.269531 102.542969 190.492188 C 107.289062 185.515625 112.664062 180.640625 118.5 175.996094 C 119.050781 175.558594 119.140625 174.753906 118.703125 174.199219 C 118.269531 173.648438 117.460938 173.558594 116.894531 173.996094 C 110.957031 178.703125 105.503906 183.652344 100.667969 188.71875 C 56.492188 235.0625 48.273438 283.769531 38.753906 340.15625 C 32.03125 379.957031 24.425781 425.082031 2.144531 474.746094 C 1.851562 475.386719 2.144531 476.144531 2.789062 476.425781 Z M 2.789062 476.425781 " fill-opacity="1" fill-rule="nonzero"/></g><g clip-path="url(#662151679b)"><path fill="#ff6a00" d="M 2.082031 402.800781 C 1.890625 403.480469 2.300781 404.1875 2.980469 404.378906 C 3.09375 404.40625 3.210938 404.429688 3.328125 404.429688 C 3.890625 404.429688 4.402344 404.058594 4.558594 403.480469 C 12.226562 375.582031 16.601562 349.671875 20.824219 324.597656 C 30.171875 269.15625 38.253906 221.289062 78.234375 175.84375 C 78.695312 175.304688 78.644531 174.496094 78.121094 174.035156 C 77.59375 173.570312 76.773438 173.625 76.3125 174.148438 C 35.84375 220.148438 27.710938 268.351562 18.296875 324.171875 C 14.074219 349.171875 9.703125 375.03125 2.082031 402.800781 Z M 2.082031 402.800781 " fill-opacity="1" fill-rule="nonzero"/></g><g clip-path="url(#9e13600b68)"><path fill="#ff6a00" d="M 3.082031 285.113281 C 3.160156 285.128906 3.238281 285.140625 3.3125 285.140625 C 3.917969 285.140625 4.46875 284.703125 4.570312 284.089844 C 12.136719 242.414062 21.65625 208.023438 43.511719 175.726562 C 43.910156 175.136719 43.757812 174.339844 43.167969 173.945312 C 42.578125 173.546875 41.792969 173.6875 41.398438 174.277344 C 25.402344 197.90625 12.585938 225.546875 2.054688 283.613281 C 1.929688 284.320312 2.390625 284.988281 3.082031 285.113281 Z M 3.082031 285.113281 " fill-opacity="1" fill-rule="nonzero"/></g><g clip-path="url(#b7b4da0244)"><path fill="#ff6a00" d="M 2.828125 193.171875 C 2.992188 193.234375 3.160156 193.273438 3.3125 193.273438 C 3.8125 193.273438 4.289062 192.980469 4.492188 192.480469 C 6.867188 186.769531 9.535156 181.089844 12.40625 175.585938 C 12.742188 174.957031 12.496094 174.1875 11.871094 173.855469 C 11.242188 173.535156 10.472656 173.777344 10.136719 174.394531 C 7.238281 179.960938 4.546875 185.707031 2.132812 191.476562 C 1.851562 192.144531 2.171875 192.902344 2.828125 193.171875 Z M 2.828125 193.171875 " fill-opacity="1" fill-rule="nonzero"/></g><g clip-path="url(#e77dcfe2b4)"><g clip-path="url(#af0dca7ea0)"><g clip-path="url(#5c4cc3fdd0)"><path fill="#ff6a00" d="M 497.703125 49.347656 C 499.183594 48.792969 513.679688 83.703125 513.894531 84.273438 C 514.113281 84.84375 526.222656 120.636719 524.753906 121.179688 C 523.289062 121.71875 508.789062 86.847656 508.574219 86.277344 C 508.359375 85.703125 496.234375 49.902344 497.703125 49.347656 Z M 497.703125 49.347656 " fill-opacity="1" fill-rule="nonzero"/></g></g></g><g clip-path="url(#c12a2848dc)"><g clip-path="url(#e3a2a481ee)"><g clip-path="url(#d13bd21a91)"><path fill="#ff6a00" d="M 617.375 14.125 C 618.917969 14.421875 611.6875 58.980469 611.550781 59.699219 C 611.410156 60.414062 601.6875 104.472656 600.144531 104.175781 C 598.605469 103.875 605.828125 59.347656 605.964844 58.644531 C 606.105469 57.9375 615.832031 13.832031 617.375 14.125 Z M 617.375 14.125 " fill-opacity="1" fill-rule="nonzero"/></g></g></g><g clip-path="url(#ddc0c02156)"><g clip-path="url(#224782b409)"><g clip-path="url(#71caaee47f)"><path fill="#ff6a00" d="M 792.121094 50.015625 C 793.070312 51.265625 732.324219 99.058594 731.332031 99.824219 C 730.335938 100.589844 668.085938 146.3125 667.140625 145.066406 C 666.195312 143.820312 726.90625 96.054688 727.886719 95.300781 C 728.867188 94.542969 791.167969 48.765625 792.121094 50.015625 Z M 792.121094 50.015625 " fill-opacity="1" fill-rule="nonzero"/></g></g></g><g clip-path="url(#0db6fd17c3)"><g clip-path="url(#9dcbb42ab1)"><g clip-path="url(#46d589d2bd)"><path fill="#ff6a00" d="M 800.78125 206.101562 C 800.964844 207.660156 735.75 216.453125 734.691406 216.574219 C 733.636719 216.691406 668.179688 222.960938 667.996094 221.394531 C 667.816406 219.828125 732.988281 211.046875 734.042969 210.925781 C 735.097656 210.800781 800.601562 204.539062 800.78125 206.101562 Z M 800.78125 206.101562 " fill-opacity="1" fill-rule="nonzero"/></g></g></g><g clip-path="url(#67eaeb02fb)"><g clip-path="url(#8b1742d720)"><g clip-path="url(#4a39c2ad22)"><path fill="#ff6a00" d="M 737.683594 328.449219 C 737.027344 329.882812 694.117188 311.933594 693.433594 311.625 C 692.75 311.3125 650.902344 291.058594 651.546875 289.628906 C 652.191406 288.199219 695.074219 306.132812 695.769531 306.441406 C 696.464844 306.75 738.320312 327.019531 737.683594 328.449219 Z M 737.683594 328.449219 " fill-opacity="1" fill-rule="nonzero"/></g></g></g></svg>