<svg xmlns="http://www.w3.org/2000/svg" xmlns:xlink="http://www.w3.org/1999/xlink" width="1080" zoomAndPan="magnify" viewBox="0 0 810 809.999993" height="1080" preserveAspectRatio="xMidYMid meet" version="1.0"><defs><clipPath id="a03e029130"><path d="M 383 0 L 810 0 L 810 810 L 383 810 Z M 383 0 " clip-rule="nonzero"/></clipPath><clipPath id="c4e4aee982"><path d="M 544.183594 -165.84375 L 1418.78125 103.050781 L 1141.953125 1003.457031 L 267.355469 734.5625 Z M 544.183594 -165.84375 " clip-rule="nonzero"/></clipPath><clipPath id="5d9171690e"><path d="M 544.183594 -165.84375 L 1418.78125 103.050781 L 1141.953125 1003.457031 L 267.355469 734.5625 Z M 544.183594 -165.84375 " clip-rule="nonzero"/></clipPath><clipPath id="5c664571b3"><path d="M 551 163 L 592 163 L 592 214 L 551 214 Z M 551 163 " clip-rule="nonzero"/></clipPath><clipPath id="710a6cf61a"><path d="M 544.183594 -165.84375 L 1418.78125 103.050781 L 1141.953125 1003.457031 L 267.355469 734.5625 Z M 544.183594 -165.84375 " clip-rule="nonzero"/></clipPath><clipPath id="f70a4a12e4"><path d="M 544.183594 -165.84375 L 1418.78125 103.050781 L 1141.953125 1003.457031 L 267.355469 734.5625 Z M 544.183594 -165.84375 " clip-rule="nonzero"/></clipPath><clipPath id="26044e3adf"><path d="M 501 538 L 512 538 L 512 568 L 501 568 Z M 501 538 " clip-rule="nonzero"/></clipPath><clipPath id="ca35888ced"><path d="M 544.183594 -165.84375 L 1418.78125 103.050781 L 1141.953125 1003.457031 L 267.355469 734.5625 Z M 544.183594 -165.84375 " clip-rule="nonzero"/></clipPath><clipPath id="fc2c99cd02"><path d="M 544.183594 -165.84375 L 1418.78125 103.050781 L 1141.953125 1003.457031 L 267.355469 734.5625 Z M 544.183594 -165.84375 " clip-rule="nonzero"/></clipPath><clipPath id="923cff7c68"><path d="M 582 155 L 597 155 L 597 172 L 582 172 Z M 582 155 " clip-rule="nonzero"/></clipPath><clipPath id="f692b35d5e"><path d="M 544.183594 -165.84375 L 1418.78125 103.050781 L 1141.953125 1003.457031 L 267.355469 734.5625 Z M 544.183594 -165.84375 " clip-rule="nonzero"/></clipPath><clipPath id="463789fd4f"><path d="M 544.183594 -165.84375 L 1418.78125 103.050781 L 1141.953125 1003.457031 L 267.355469 734.5625 Z M 544.183594 -165.84375 " clip-rule="nonzero"/></clipPath><clipPath id="28807fb90f"><path d="M 477 419 L 480 419 L 480 449 L 477 449 Z M 477 419 " clip-rule="nonzero"/></clipPath><clipPath id="d824c125e5"><path d="M 544.183594 -165.84375 L 1418.78125 103.050781 L 1141.953125 1003.457031 L 267.355469 734.5625 Z M 544.183594 -165.84375 " clip-rule="nonzero"/></clipPath><clipPath id="ee64afd490"><path d="M 544.183594 -165.84375 L 1418.78125 103.050781 L 1141.953125 1003.457031 L 267.355469 734.5625 Z M 544.183594 -165.84375 " clip-rule="nonzero"/></clipPath><clipPath id="9444471881"><path d="M 459 328 L 471 328 L 471 397 L 459 397 Z M 459 328 " clip-rule="nonzero"/></clipPath><clipPath id="8c6dccf6ca"><path d="M 544.183594 -165.84375 L 1418.78125 103.050781 L 1141.953125 1003.457031 L 267.355469 734.5625 Z M 544.183594 -165.84375 " clip-rule="nonzero"/></clipPath><clipPath id="40de4acea4"><path d="M 544.183594 -165.84375 L 1418.78125 103.050781 L 1141.953125 1003.457031 L 267.355469 734.5625 Z M 544.183594 -165.84375 " clip-rule="nonzero"/></clipPath><clipPath id="caa2deb33f"><path d="M 497 178 L 515 178 L 515 205 L 497 205 Z M 497 178 " clip-rule="nonzero"/></clipPath><clipPath id="3a846ef6c1"><path d="M 544.183594 -165.84375 L 1418.78125 103.050781 L 1141.953125 1003.457031 L 267.355469 734.5625 Z M 544.183594 -165.84375 " clip-rule="nonzero"/></clipPath><clipPath id="e6d4e7e084"><path d="M 544.183594 -165.84375 L 1418.78125 103.050781 L 1141.953125 1003.457031 L 267.355469 734.5625 Z M 544.183594 -165.84375 " clip-rule="nonzero"/></clipPath><clipPath id="07320a0c83"><path d="M 585 113 L 593 113 L 593 121 L 585 121 Z M 585 113 " clip-rule="nonzero"/></clipPath><clipPath id="b8d3454060"><path d="M 544.183594 -165.84375 L 1418.78125 103.050781 L 1141.953125 1003.457031 L 267.355469 734.5625 Z M 544.183594 -165.84375 " clip-rule="nonzero"/></clipPath><clipPath id="c41c92d47d"><path d="M 544.183594 -165.84375 L 1418.78125 103.050781 L 1141.953125 1003.457031 L 267.355469 734.5625 Z M 544.183594 -165.84375 " clip-rule="nonzero"/></clipPath><clipPath id="fdb962031f"><path d="M 604 770 L 641 770 L 641 789 L 604 789 Z M 604 770 " clip-rule="nonzero"/></clipPath><clipPath id="617d770f2d"><path d="M 544.183594 -165.84375 L 1418.78125 103.050781 L 1141.953125 1003.457031 L 267.355469 734.5625 Z M 544.183594 -165.84375 " clip-rule="nonzero"/></clipPath><clipPath id="500ff2ffa8"><path d="M 544.183594 -165.84375 L 1418.78125 103.050781 L 1141.953125 1003.457031 L 267.355469 734.5625 Z M 544.183594 -165.84375 " clip-rule="nonzero"/></clipPath><clipPath id="25bf626713"><path d="M 573 745 L 608 745 L 608 773 L 573 773 Z M 573 745 " clip-rule="nonzero"/></clipPath><clipPath id="15260b6f14"><path d="M 544.183594 -165.84375 L 1418.78125 103.050781 L 1141.953125 1003.457031 L 267.355469 734.5625 Z M 544.183594 -165.84375 " clip-rule="nonzero"/></clipPath><clipPath id="37073ae68c"><path d="M 544.183594 -165.84375 L 1418.78125 103.050781 L 1141.953125 1003.457031 L 267.355469 734.5625 Z M 544.183594 -165.84375 " clip-rule="nonzero"/></clipPath><clipPath id="8501f2857d"><path d="M 7.609375 170 L 46 170 L 46 209 L 7.609375 209 Z M 7.609375 170 " clip-rule="nonzero"/></clipPath><clipPath id="16df9c1289"><path d="M 119 17.527344 L 158 17.527344 L 158 56 L 119 56 Z M 119 17.527344 " clip-rule="nonzero"/></clipPath><clipPath id="4fd212a803"><path d="M 127 183 L 179 183 L 179 234.277344 L 127 234.277344 Z M 127 183 " clip-rule="nonzero"/></clipPath></defs><g clip-path="url(#a03e029130)"><g clip-path="url(#c4e4aee982)"><g clip-path="url(#5d9171690e)"><path fill="#ff6a00" d="M 448.589844 535.851562 C 449.199219 538.210938 450.042969 541.472656 450.738281 544.160156 C 451.421875 546.847656 452.046875 548.914062 451.9375 548.925781 C 451.894531 548.933594 451.6875 548.417969 451.375 547.578125 C 451.058594 546.738281 450.640625 545.566406 450.214844 544.230469 C 449.355469 541.574219 448.308594 538.347656 447.546875 536.003906 L 446.269531 528.460938 C 447.050781 530.949219 447.816406 533.402344 448.589844 535.851562 Z M 779.808594 -1.222656 C 788.046875 -2.789062 796.355469 -3.992188 804.664062 -5.089844 C 808.832031 -5.5625 812.996094 -6.074219 817.167969 -6.460938 C 821.347656 -6.804688 825.515625 -7.242188 829.707031 -7.457031 C 825.476562 -6.859375 821.28125 -6.039062 817.085938 -5.320312 C 814.988281 -4.96875 812.90625 -4.496094 810.816406 -4.089844 C 808.734375 -3.65625 806.644531 -3.261719 804.570312 -2.796875 C 796.273438 -0.9375 788.023438 1.023438 779.890625 3.367188 C 791.894531 1.0625 802.59375 -0.496094 812.128906 -1.480469 C 813.320312 -1.617188 814.488281 -1.742188 815.644531 -1.875 C 816.800781 -1.976562 817.9375 -2.074219 819.054688 -2.171875 C 821.292969 -2.359375 823.464844 -2.546875 825.558594 -2.722656 C 829.753906 -2.992188 833.675781 -3.21875 837.34375 -3.386719 C 852.015625 -3.992188 862.617188 -3.554688 870.667969 -3.082031 C 878.726562 -2.582031 884.246094 -1.828125 888.824219 -1.214844 C 893.386719 -0.453125 897.011719 0.15625 901.238281 0.96875 C 918.453125 4.199219 934.824219 8.382812 950.527344 13.382812 C 966.222656 18.417969 981.25 24.292969 995.792969 30.90625 C 999.640625 32.660156 1001.003906 33.9375 997.722656 32.8125 C 995.1875 31.945312 992.71875 31.109375 990.316406 30.28125 C 987.894531 29.527344 985.542969 28.789062 983.257812 28.066406 C 980.976562 27.328125 978.738281 26.683594 976.558594 26.078125 C 974.386719 25.460938 972.28125 24.859375 970.234375 24.273438 C 966.113281 23.226562 962.261719 22.191406 958.628906 21.332031 C 954.980469 20.519531 951.59375 19.699219 948.414062 19.046875 C 945.230469 18.414062 942.28125 17.835938 939.554688 17.296875 C 936.816406 16.832031 934.296875 16.398438 931.988281 16.015625 C 930.832031 15.828125 929.734375 15.632812 928.679688 15.476562 C 927.625 15.335938 926.621094 15.195312 925.667969 15.070312 C 923.757812 14.820312 922.046875 14.59375 920.519531 14.390625 C 908.285156 13.058594 907.949219 13.539062 913.070312 14.691406 C 914.351562 14.988281 915.972656 15.328125 917.839844 15.699219 C 919.703125 16.101562 921.796875 16.5625 924.027344 17.046875 C 928.503906 17.953125 933.503906 19.199219 938.28125 20.324219 C 940.65625 20.949219 942.976562 21.554688 945.144531 22.136719 C 947.308594 22.703125 949.320312 23.25 951.0625 23.804688 C 954.558594 24.871094 957.050781 25.683594 957.765625 26.0625 C 959.554688 26.996094 961.796875 28.136719 964.417969 29.328125 C 965.746094 29.933594 967.140625 30.566406 968.59375 31.214844 C 970.074219 31.898438 971.613281 32.609375 973.199219 33.335938 C 974.8125 34.0625 976.472656 34.808594 978.175781 35.570312 C 979.882812 36.367188 981.628906 37.1875 983.402344 38.027344 C 986.984375 39.636719 990.636719 41.476562 994.335938 43.28125 C 996.191406 44.167969 998.03125 45.125 999.863281 46.082031 C 1001.6875 47.035156 1003.511719 47.992188 1005.328125 48.9375 C 1008.914062 50.90625 1012.421875 52.851562 1015.734375 54.773438 C 1019.015625 56.761719 1022.160156 58.605469 1024.96875 60.464844 C 1027.773438 62.320312 1030.324219 64.03125 1032.484375 65.621094 C 1037.742188 69.601562 1037.6875 70.945312 1033.117188 70.070312 C 1031.96875 69.859375 1030.566406 69.460938 1028.84375 69.027344 C 1027.128906 68.574219 1025.140625 67.996094 1022.890625 67.304688 C 1020.652344 66.582031 1018.105469 65.84375 1015.316406 64.984375 C 1013.914062 64.546875 1012.460938 64.082031 1010.945312 63.605469 C 1009.40625 63.148438 1007.808594 62.679688 1006.152344 62.191406 C 983.582031 50.796875 960 41.496094 934.648438 34.394531 C 932.738281 33.890625 929.710938 33.179688 926.382812 32.410156 C 923.035156 31.726562 919.394531 30.984375 916.253906 30.347656 C 912.960938 30.324219 912.082031 30.601562 905.277344 30.105469 C 904.535156 30.0625 903.03125 29.933594 901.042969 29.734375 C 899.046875 29.554688 896.574219 29.273438 893.882812 29.089844 C 891.183594 28.902344 888.289062 28.621094 885.457031 28.464844 C 882.617188 28.324219 879.851562 28.179688 877.4375 28.054688 C 862.613281 26.035156 847.496094 24.890625 832.285156 24.597656 C 817.082031 24.292969 801.78125 24.863281 786.613281 26.355469 C 771.445312 27.820312 756.394531 30.128906 741.660156 33.195312 C 726.929688 36.28125 712.539062 40.171875 698.621094 44.660156 C 694.851562 45.890625 698.65625 43.789062 703.496094 41.339844 C 705.929688 40.148438 708.617188 38.851562 710.714844 37.792969 C 712.820312 36.757812 714.355469 35.988281 714.4375 35.738281 C 714.824219 34.574219 716.371094 32.96875 715.8125 32.15625 C 715.53125 31.75 714.71875 31.539062 712.96875 31.6875 C 712.089844 31.761719 710.980469 31.921875 709.578125 32.195312 C 708.183594 32.484375 706.511719 32.914062 704.496094 33.464844 C 703.375 33.773438 701.742188 34.28125 699.667969 34.964844 C 697.609375 35.691406 695.121094 36.609375 692.261719 37.679688 C 691.542969 37.949219 690.808594 38.230469 690.046875 38.515625 C 689.292969 38.820312 688.519531 39.136719 687.722656 39.460938 C 686.128906 40.117188 684.457031 40.804688 682.710938 41.519531 C 680.953125 42.226562 679.160156 43.042969 677.289062 43.875 C 675.421875 44.714844 673.488281 45.578125 671.496094 46.472656 C 663.609375 50.207031 654.875 54.554688 646.015625 59.570312 C 637.164062 64.589844 628.121094 70.152344 619.480469 76.023438 C 615.898438 78.519531 612.589844 80.808594 609.597656 83 C 606.632812 85.222656 603.882812 87.210938 601.441406 89.136719 C 599.007812 91.070312 596.796875 92.828125 594.777344 94.433594 C 592.804688 96.097656 591.03125 97.601562 589.414062 98.972656 C 588.613281 99.660156 587.851562 100.316406 587.125 100.9375 C 586.421875 101.578125 585.753906 102.183594 585.117188 102.765625 C 583.859375 103.929688 582.734375 104.972656 581.714844 105.917969 C 579.679688 107.804688 578.167969 109.378906 576.894531 110.71875 C 574.351562 113.410156 572.769531 115.191406 570.664062 117.578125 C 568.542969 119.953125 565.777344 122.800781 561 127.761719 C 560.09375 128.699219 559.183594 129.601562 558.328125 130.519531 C 557.472656 131.445312 556.636719 132.34375 555.816406 133.230469 C 554.1875 135.003906 552.585938 136.675781 551.121094 138.339844 C 549.65625 140.003906 548.257812 141.601562 546.917969 143.125 C 546.246094 143.890625 545.59375 144.636719 544.957031 145.367188 C 544.335938 146.113281 543.730469 146.839844 543.136719 147.550781 C 538.359375 153.207031 534.710938 157.972656 531.789062 161.796875 C 528.953125 165.695312 526.777344 168.609375 525.320312 170.871094 C 523.839844 173.117188 522.929688 174.605469 522.449219 175.511719 C 520.550781 179.140625 525.527344 173.527344 528.765625 170.375 C 534.65625 164.847656 535.617188 165.59375 542.128906 159.640625 C 543.730469 158.136719 545.746094 156.273438 548.277344 153.804688 C 550.839844 151.28125 553.925781 148.25 557.726562 144.511719 C 565.476562 137.046875 576.203125 126.554688 592.613281 113.089844 L 591.972656 113.71875 C 606.230469 101.792969 617.996094 93.730469 626.328125 88.4375 C 630.519531 85.820312 633.832031 83.855469 636.269531 82.53125 C 638.71875 81.234375 640.257812 80.53125 640.890625 80.414062 C 641.519531 80.304688 641.242188 80.777344 640.050781 81.832031 C 638.871094 82.898438 636.75 84.5 633.816406 86.820312 C 632.324219 87.964844 630.628906 89.257812 628.726562 90.714844 C 626.828125 92.199219 624.722656 93.847656 622.410156 95.65625 C 620.082031 97.460938 617.617188 99.519531 614.890625 101.679688 C 612.1875 103.863281 609.347656 106.3125 606.253906 108.867188 C 590.152344 122.695312 575.796875 137.082031 562.832031 152.265625 C 556.304688 159.816406 550.191406 167.625 544.316406 175.613281 C 542.871094 177.628906 541.363281 179.59375 539.964844 181.644531 C 538.550781 183.683594 537.136719 185.722656 535.722656 187.769531 C 534.328125 189.824219 532.984375 191.921875 531.605469 194 C 530.214844 196.070312 528.898438 198.191406 527.582031 200.320312 C 528.628906 199.128906 529.535156 198.136719 530.398438 197.207031 C 531.289062 196.292969 532.136719 195.425781 533.03125 194.503906 C 534.855469 192.648438 536.804688 190.414062 539.953125 186.886719 C 541.523438 185.121094 543.277344 182.949219 545.546875 180.410156 C 546.660156 179.117188 547.871094 177.71875 549.191406 176.191406 C 550.496094 174.644531 551.996094 173.035156 553.570312 171.234375 C 559.925781 164.105469 568.445312 154.726562 580.789062 142.902344 C 589.945312 134.191406 597.5 127.917969 603.722656 123.121094 C 606.832031 120.71875 609.65625 118.738281 612.148438 116.945312 C 614.683594 115.207031 616.953125 113.742188 619 112.425781 C 621.035156 111.097656 622.953125 110.050781 624.699219 109.027344 C 626.460938 108.035156 628.070312 107.089844 629.699219 106.25 C 631.320312 105.402344 632.910156 104.570312 634.539062 103.714844 C 635.359375 103.277344 636.1875 102.835938 637.039062 102.378906 C 637.910156 101.925781 638.800781 101.46875 639.722656 100.988281 C 640.679688 100.484375 639.988281 101.113281 638.246094 102.449219 C 636.511719 103.800781 633.792969 105.953125 630.613281 108.378906 C 624.347656 113.367188 616.46875 119.765625 611.730469 124.195312 C 603.257812 130.984375 593.546875 139.574219 585.160156 147.757812 C 580.9375 151.816406 577.089844 155.8125 573.730469 159.269531 C 570.433594 162.789062 567.582031 165.730469 565.605469 167.921875 C 559.621094 174.195312 553.992188 180.777344 548.570312 187.253906 C 545.9375 190.550781 543.25 193.746094 540.796875 197.015625 C 539.550781 198.636719 538.316406 200.242188 537.09375 201.824219 C 535.910156 203.4375 534.742188 205.03125 533.589844 206.601562 C 524.371094 219.1875 516.898438 230.898438 511.433594 239.78125 C 509.691406 242.488281 508.679688 244.113281 508.015625 244.828125 C 507.367188 245.546875 507.140625 245.394531 507.199219 244.667969 C 507.257812 243.945312 507.597656 242.652344 508.078125 241.082031 C 508.578125 239.53125 509.246094 237.726562 509.894531 235.945312 C 510.566406 234.132812 511.507812 231.691406 512.792969 228.941406 C 514.070312 226.1875 515.476562 223 517.164062 219.75 C 517.992188 218.113281 518.839844 216.4375 519.699219 214.746094 C 520.550781 213.042969 521.496094 211.382812 522.390625 209.699219 C 523.296875 208.023438 524.195312 206.359375 525.078125 204.730469 C 525.984375 203.121094 526.875 201.554688 527.734375 200.042969 C 512.167969 224.078125 498.929688 250.640625 488.96875 277.964844 C 478.933594 305.277344 471.972656 333.21875 467.6875 359.804688 C 465.234375 374.945312 463.464844 390.667969 462.710938 406.363281 C 461.929688 422.050781 462.003906 437.695312 462.882812 452.660156 C 463.800781 467.628906 465.472656 481.902344 467.582031 494.902344 C 469.6875 507.90625 472.222656 519.625 474.644531 529.558594 C 478.816406 546.101562 480.804688 553.265625 481.839844 558.492188 C 482.402344 561.089844 482.773438 563.195312 483.289062 565.6875 C 483.835938 568.171875 484.59375 571.023438 485.84375 575.152344 C 488.332031 583.058594 493.699219 596.324219 493.730469 597.570312 C 493.71875 598.203125 492.160156 595.921875 488.425781 588.339844 C 487.960938 587.394531 487.433594 586.375 486.910156 585.253906 C 486.390625 584.125 485.832031 582.914062 485.234375 581.613281 C 484.640625 580.304688 484.003906 578.914062 483.328125 577.429688 C 482.660156 575.933594 482.003906 574.328125 481.277344 572.628906 C 478.351562 565.84375 475.074219 557.328125 471.460938 546.769531 C 470.429688 543.613281 469.496094 541.085938 468.808594 539.054688 C 468.109375 537.027344 467.539062 535.53125 467.078125 534.488281 C 466.164062 532.402344 465.6875 532.132812 465.523438 533.039062 C 465.207031 534.851562 466.054688 541.429688 467.328125 547.523438 C 468.496094 553.699219 472.042969 565.542969 470.699219 562.921875 C 470.351562 562.273438 469.679688 560.722656 468.679688 557.917969 C 468.179688 556.515625 467.570312 554.808594 466.84375 552.761719 C 466.113281 550.714844 465.378906 548.28125 464.476562 545.476562 C 461.003906 534.238281 455.816406 516.628906 451.515625 489.539062 C 451.246094 487.789062 450.984375 486.089844 450.730469 484.429688 C 450.46875 482.777344 450.289062 481.152344 450.074219 479.582031 C 449.667969 476.429688 449.242188 473.460938 448.96875 470.644531 C 448.675781 467.824219 448.34375 465.175781 448.113281 462.679688 C 447.894531 460.179688 447.683594 457.835938 447.488281 455.640625 C 447.101562 451.25 446.902344 447.433594 446.628906 444.136719 C 446.433594 440.839844 446.269531 438.054688 446.132812 435.695312 C 445.957031 433.34375 445.886719 431.425781 445.777344 429.871094 C 445.671875 428.316406 445.566406 427.125 445.457031 426.21875 C 445.242188 424.410156 445.023438 423.746094 444.8125 423.625 C 440.453125 421.128906 436.078125 421.5625 431.695312 423.605469 C 431.683594 423.609375 431.675781 423.769531 431.671875 424.066406 C 431.671875 424.363281 431.667969 424.789062 431.664062 425.339844 C 431.664062 426.429688 431.667969 427.988281 431.675781 429.855469 C 431.644531 433.589844 431.863281 438.558594 432.011719 443.523438 C 432.113281 446.003906 432.285156 448.484375 432.410156 450.808594 C 432.535156 453.132812 432.65625 455.304688 432.824219 457.152344 C 432.964844 459.007812 433.085938 460.550781 433.167969 461.632812 C 433.203125 462.171875 433.234375 462.59375 433.25 462.882812 C 433.269531 463.171875 433.269531 463.324219 433.265625 463.324219 C 432.902344 463.246094 432.371094 461.296875 431.785156 458.734375 C 431.496094 457.453125 431.179688 456.023438 430.890625 454.59375 C 430.617188 453.179688 430.339844 451.769531 430.089844 450.488281 C 428.707031 430.476562 429.035156 407.914062 430.503906 390.929688 C 433.066406 361.503906 438.191406 335.746094 445.800781 309.351562 C 446.207031 306.21875 446.777344 303.144531 447.28125 300.035156 C 447.546875 298.476562 447.808594 296.917969 448.074219 295.355469 C 448.378906 293.792969 448.683594 292.230469 448.988281 290.65625 C 449.296875 289.136719 449.613281 287.554688 450.007812 285.59375 C 450.40625 283.617188 450.984375 281.289062 451.671875 278.238281 C 456.613281 265.488281 461.941406 253.472656 467.710938 241.828125 C 473.480469 230.183594 479.726562 218.917969 486.628906 207.746094 C 493.53125 196.566406 501.078125 185.464844 509.574219 174.230469 C 518.074219 163.003906 527.53125 151.644531 538.339844 140.078125 C 536.566406 138.515625 535.222656 137.335938 533.878906 136.152344 C 541.765625 127.121094 550.019531 118.410156 558.613281 110.042969 C 566.890625 102.945312 574.578125 97.0625 582.964844 90.910156 C 591.347656 84.75 600.53125 78.417969 612.1875 70.96875 C 625.976562 62.109375 641.503906 53.371094 658.632812 44.984375 C 667.238281 40.878906 676.203125 36.773438 685.640625 32.972656 C 695.074219 29.179688 704.890625 25.507812 715.136719 22.175781 C 723.3125 19.53125 736.207031 15.378906 750.640625 11.746094 C 765.054688 8.0625 780.984375 4.910156 794.8125 2.984375 C 790.109375 3.023438 785.363281 2.992188 780.640625 3.1875 Z M 702.742188 816.605469 C 717.570312 823.261719 735.003906 829.539062 748.03125 833.757812 C 750.449219 834.546875 752.730469 835.28125 754.867188 835.984375 C 757 836.636719 758.992188 837.25 760.84375 837.820312 C 764.476562 838.960938 767.558594 839.925781 770.101562 840.726562 C 772.582031 841.527344 774.445312 842.203125 775.683594 842.726562 C 776.925781 843.230469 777.535156 843.621094 777.511719 843.886719 C 777.488281 844.152344 776.820312 844.300781 775.507812 844.328125 C 774.199219 844.335938 772.25 844.183594 769.644531 843.902344 C 767.042969 843.621094 763.777344 843.21875 759.882812 842.523438 C 757.925781 842.1875 755.8125 841.808594 753.542969 841.410156 C 751.265625 840.941406 748.832031 840.433594 746.246094 839.886719 C 730.308594 836.414062 714.410156 832.066406 698.667969 826.695312 C 682.933594 821.328125 667.335938 815.015625 651.988281 807.722656 C 648.121094 805.953125 644.355469 803.972656 640.523438 802.070312 C 636.710938 800.136719 632.964844 798.070312 629.164062 796.054688 C 625.441406 793.921875 621.652344 791.851562 617.945312 789.632812 C 614.246094 787.394531 610.5 785.207031 606.855469 782.84375 C 592.164062 773.539062 577.789062 763.304688 564.011719 751.980469 C 560.585938 749.164062 553.238281 742.792969 545.097656 734.734375 C 536.921875 726.714844 527.933594 717.0625 520.546875 708.433594 C 519.441406 707.113281 517.617188 704.859375 515.515625 702.222656 C 514.453125 700.917969 513.359375 699.484375 512.261719 698.015625 C 511.167969 696.550781 510.050781 695.0625 508.972656 693.621094 C 506.808594 690.746094 504.933594 687.953125 503.550781 685.972656 C 502.183594 683.980469 501.378906 682.753906 501.550781 682.851562 C 509.886719 687.960938 519.652344 694.832031 532.042969 703.636719 C 532.175781 703.730469 533.953125 705.734375 536.78125 708.9375 C 539.695312 712.070312 543.609375 716.449219 548.199219 721.125 C 550.449219 723.5 552.902344 725.917969 555.390625 728.371094 C 556.640625 729.59375 557.863281 730.859375 559.148438 732.058594 C 560.429688 733.265625 561.710938 734.46875 562.976562 735.671875 C 565.488281 738.082031 568.042969 740.355469 570.460938 742.523438 C 571.671875 743.597656 572.847656 744.648438 573.976562 745.667969 C 575.132812 746.648438 576.242188 747.597656 577.300781 748.496094 C 574.136719 744.597656 571.164062 740.515625 568.15625 736.539062 C 566.703125 734.503906 565.25 732.480469 563.800781 730.445312 C 563.082031 729.429688 562.355469 728.429688 561.652344 727.410156 L 559.574219 724.328125 C 557.09375 720.894531 546.070312 707.871094 554.371094 715.59375 C 556.824219 717.90625 559.0625 719.8125 561 721.457031 C 562.945312 723.082031 564.558594 724.476562 565.992188 725.515625 C 568.824219 727.648438 570.582031 728.765625 571.46875 729.054688 C 573.246094 729.628906 571.542969 726.90625 567.945312 722.382812 C 566.175781 720.089844 563.976562 717.304688 561.492188 714.265625 C 560.269531 712.707031 558.996094 711.082031 557.683594 709.414062 C 556.371094 707.734375 554.988281 706.039062 553.664062 704.246094 C 552.324219 702.46875 550.964844 700.671875 549.601562 698.871094 C 548.246094 697.074219 546.957031 695.214844 545.660156 693.417969 C 543.039062 689.832031 540.675781 686.222656 538.519531 682.960938 C 545.050781 691.449219 551.519531 698.976562 557.589844 705.867188 C 560.675781 709.273438 563.613281 712.5625 566.554688 715.609375 C 568.019531 717.140625 569.417969 718.675781 570.847656 720.113281 C 572.277344 721.558594 573.675781 722.972656 575.039062 724.355469 C 586.027344 735.378906 595.632812 743.945312 603.691406 750.851562 C 607.675781 754.359375 611.390625 757.300781 614.621094 760.058594 C 617.882812 762.710938 620.777344 765.066406 623.351562 767.164062 C 625.925781 769.199219 628.128906 770.988281 630.007812 772.570312 C 631.882812 774.140625 633.492188 775.421875 634.78125 776.578125 C 639.957031 781.175781 640.691406 782.816406 639.976562 783.703125 C 639.273438 784.589844 637.167969 784.644531 636.972656 785.816406 C 658.003906 797.953125 680.050781 808.226562 702.742188 816.605469 Z M 516.492188 666.058594 C 518.929688 670.160156 521.210938 673.652344 523.109375 676.648438 C 524.050781 678.148438 524.921875 679.503906 525.730469 680.707031 C 526.519531 681.914062 527.21875 682.992188 527.835938 683.941406 C 530.234375 687.722656 531.117188 689.28125 530.046875 688.519531 C 529.503906 688.144531 528.523438 687.152344 527.035156 685.546875 C 526.289062 684.726562 525.421875 683.765625 524.421875 682.664062 C 523.421875 681.546875 522.285156 680.273438 521.074219 678.792969 C 518.621094 675.859375 515.621094 672.285156 512.238281 667.882812 C 511.382812 666.792969 510.496094 665.652344 509.570312 664.472656 C 508.679688 663.269531 507.75 662.023438 506.789062 660.730469 C 505.832031 659.4375 504.835938 658.097656 503.808594 656.714844 C 502.8125 655.308594 501.78125 653.851562 500.714844 652.355469 C 496.914062 648.113281 493.28125 643.722656 489.632812 639.304688 C 483.964844 629.644531 478.746094 619.726562 473.851562 609.65625 C 482.585938 625.894531 492.503906 641.429688 503.171875 656.335938 C 507.253906 659.261719 511.421875 662.511719 516.492188 666.058594 Z M 477.339844 430.21875 C 477.304688 427.992188 477.269531 425.71875 477.234375 423.414062 C 477.257812 421.105469 477.28125 418.761719 477.308594 416.398438 C 477.308594 414.03125 477.421875 411.644531 477.507812 409.25 C 477.605469 406.859375 477.65625 404.449219 477.835938 402.046875 C 478.308594 392.441406 479.339844 382.90625 480.375 374.210938 C 480.660156 372.042969 480.9375 369.921875 481.207031 367.867188 C 481.457031 365.800781 481.816406 363.820312 482.085938 361.90625 C 482.382812 359.996094 482.628906 358.148438 482.914062 356.398438 C 483.207031 354.652344 483.484375 352.992188 483.742188 351.429688 C 483.988281 349.871094 484.21875 348.402344 484.433594 347.046875 C 484.667969 345.699219 484.875 344.457031 485.046875 343.335938 C 485.394531 341.097656 485.601562 339.34375 485.65625 338.164062 C 485.859375 335.542969 486.992188 328.542969 488.707031 320.765625 C 489.097656 318.808594 489.585938 316.824219 490.0625 314.835938 C 490.535156 312.847656 491.007812 310.855469 491.46875 308.921875 C 492.457031 305.09375 493.394531 301.484375 494.164062 298.503906 C 495.777344 292.625 496.464844 289.316406 495.035156 292.054688 C 494.675781 292.738281 494.183594 293.800781 493.539062 295.300781 C 492.894531 296.792969 492.078125 298.710938 491.199219 301.160156 C 489.375 306.03125 486.921875 312.882812 484.191406 322.285156 C 483.617188 324.234375 483.59375 323.90625 483.921875 322.125 C 484.25 320.347656 484.894531 317.113281 485.855469 313.296875 C 486.320312 311.382812 486.824219 309.320312 487.339844 307.207031 C 487.910156 305.105469 488.496094 302.957031 489.0625 300.863281 C 489.34375 299.816406 489.625 298.78125 489.894531 297.773438 C 490.191406 296.773438 490.480469 295.800781 490.757812 294.867188 C 491.304688 293.003906 491.804688 291.292969 492.230469 289.839844 C 495.265625 282.210938 499.285156 272.40625 503.28125 264.15625 C 503.769531 263.121094 504.246094 262.101562 504.710938 261.109375 C 505.203125 260.136719 505.679688 259.1875 506.140625 258.269531 C 507.070312 256.441406 507.933594 254.742188 508.703125 253.226562 C 510.285156 250.222656 511.582031 248.003906 512.257812 246.933594 C 516.703125 240.128906 520.949219 233.714844 529.292969 221.34375 C 533.527344 215.203125 538.714844 207.523438 546.003906 197.953125 C 547.792969 195.539062 549.796875 193.066406 551.84375 190.398438 C 553.917969 187.746094 556.203125 185.023438 558.550781 182.097656 C 563.417969 176.375 568.789062 170.019531 575.164062 163.316406 C 575.996094 162.425781 576.777344 161.570312 577.546875 160.785156 C 578.324219 160.011719 579.0625 159.273438 579.761719 158.574219 C 581.160156 157.183594 582.425781 155.957031 583.558594 154.871094 C 585.875 152.75 587.703125 151.210938 589.160156 150.035156 C 590.613281 148.851562 591.738281 148.082031 592.65625 147.515625 C 593.574219 146.945312 594.273438 146.574219 594.917969 146.222656 C 596.425781 145.410156 598 144.40625 599.839844 143.191406 C 601.6875 141.984375 603.746094 140.515625 606.140625 138.671875 C 608.578125 136.878906 611.355469 134.71875 614.632812 132.144531 C 616.292969 130.882812 618.070312 129.503906 619.980469 128 C 621.882812 126.492188 624.003906 124.953125 626.226562 123.230469 C 635.230469 116.453125 646.921875 107.796875 663.15625 97.792969 C 679.382812 87.832031 700.148438 76.367188 727.601562 65.691406 C 729.753906 64.84375 731.867188 64.011719 733.980469 63.265625 C 736.085938 62.496094 738.171875 61.738281 740.234375 60.984375 C 744.40625 59.59375 748.492188 58.128906 752.6875 56.871094 C 756.855469 55.515625 761.113281 54.34375 765.507812 53.09375 C 767.707031 52.496094 769.957031 51.949219 772.25 51.355469 C 774.535156 50.746094 776.890625 50.21875 779.308594 49.683594 C 780.507812 49.417969 781.960938 49.097656 783.585938 48.738281 C 785.214844 48.40625 787.03125 48.085938 788.9375 47.722656 C 792.738281 46.96875 796.953125 46.347656 800.890625 45.726562 C 804.835938 45.144531 808.519531 44.726562 811.277344 44.363281 C 814.046875 44.089844 815.886719 43.925781 816.152344 43.9375 C 817.59375 44.003906 819.480469 43.96875 821.636719 44.007812 C 823.804688 44.035156 826.203125 44.0625 828.667969 44.089844 C 831.136719 44.109375 833.679688 44.234375 836.082031 44.300781 C 837.277344 44.351562 838.445312 44.378906 839.558594 44.445312 C 840.660156 44.519531 841.710938 44.601562 842.695312 44.671875 C 846.582031 44.980469 849.164062 45.3125 848.914062 45.734375 C 848.664062 46.128906 845.578125 46.582031 838.144531 47.195312 C 835.585938 47.457031 833.203125 47.703125 830.984375 47.933594 C 828.769531 48.183594 826.730469 48.488281 824.847656 48.734375 C 821.085938 49.207031 817.980469 49.789062 815.441406 50.242188 C 814.175781 50.472656 813.046875 50.683594 812.054688 50.886719 C 811.066406 51.109375 810.214844 51.3125 809.484375 51.5 C 808.027344 51.871094 807.074219 52.167969 806.550781 52.398438 C 805.507812 52.867188 806.203125 53.085938 808.097656 53.128906 C 809.042969 53.148438 810.289062 53.128906 811.769531 53.070312 C 813.273438 53.027344 814.988281 52.972656 816.859375 52.917969 C 818.746094 52.867188 820.796875 52.71875 822.960938 52.695312 C 825.121094 52.644531 827.382812 52.585938 829.679688 52.53125 C 831.980469 52.480469 834.320312 52.507812 836.628906 52.492188 C 837.78125 52.496094 838.929688 52.472656 840.058594 52.496094 C 841.191406 52.523438 842.304688 52.550781 843.398438 52.578125 C 845.585938 52.652344 847.675781 52.667969 849.605469 52.789062 C 851.535156 52.910156 853.300781 53.027344 854.84375 53.152344 C 857.929688 53.367188 860.109375 53.730469 860.863281 54.035156 C 863.1875 54 865.347656 53.96875 867.367188 53.9375 C 869.378906 53.945312 871.25 53.953125 872.992188 53.957031 C 876.484375 53.917969 879.457031 54.0625 882.078125 54.070312 C 884.703125 54.082031 886.964844 54.171875 889.027344 54.230469 C 891.085938 54.277344 892.945312 54.320312 894.757812 54.363281 C 899.027344 54.570312 903.136719 54.648438 907.179688 54.957031 C 909.207031 55.09375 911.222656 55.195312 913.242188 55.351562 C 915.257812 55.53125 917.273438 55.710938 919.3125 55.890625 C 932.457031 58.496094 944.660156 61.589844 958.503906 65.808594 C 968.507812 68.894531 980.8125 73.105469 991.757812 77.59375 C 992.613281 77.78125 993.460938 77.964844 994.300781 78.152344 C 995.132812 78.355469 995.960938 78.558594 996.800781 78.765625 C 998.5 79.195312 1000.234375 79.636719 1002.09375 80.113281 C 1003.464844 80.457031 1005.007812 80.949219 1006.945312 81.558594 C 1008.867188 82.183594 1011.214844 82.867188 1014.082031 83.847656 C 1022.574219 88.070312 1030.660156 92.597656 1038.378906 97.144531 C 1046.074219 101.726562 1053.316406 106.472656 1060.121094 111.15625 C 1073.660156 120.636719 1085.269531 130.121094 1094.660156 138.691406 C 1097.304688 141.09375 1099.871094 143.5625 1102.484375 145.972656 L 1106.324219 149.691406 C 1107.613281 150.925781 1108.914062 152.152344 1110.167969 153.4375 C 1112.699219 155.980469 1115.296875 158.496094 1117.820312 161.152344 C 1119.089844 162.46875 1120.398438 163.765625 1121.675781 165.113281 C 1122.949219 166.464844 1124.234375 167.828125 1125.527344 169.203125 C 1126.175781 169.890625 1126.828125 170.574219 1127.480469 171.269531 C 1128.121094 171.976562 1128.765625 172.683594 1129.414062 173.398438 C 1130.714844 174.816406 1132.027344 176.25 1133.359375 177.703125 C 1134.660156 179.175781 1135.976562 180.667969 1137.308594 182.183594 C 1137.976562 182.933594 1138.652344 183.691406 1139.328125 184.460938 C 1139.988281 185.238281 1140.652344 186.019531 1141.320312 186.804688 C 1146.75 193.058594 1152.222656 199.851562 1157.933594 207.25 C 1171.855469 225.386719 1184.3125 243.898438 1193.113281 262.539062 C 1208.855469 295.652344 1218.40625 330.109375 1223.3125 364.960938 C 1225.214844 378.464844 1226.160156 390.582031 1226.566406 403.683594 C 1227.363281 429.414062 1225.507812 453.277344 1223 471.597656 C 1222.855469 472.746094 1222.714844 473.871094 1222.574219 474.972656 C 1222.410156 476.074219 1222.25 477.15625 1222.089844 478.210938 C 1221.785156 480.324219 1221.492188 482.351562 1221.210938 484.28125 C 1220.546875 488.121094 1220.054688 491.597656 1219.546875 494.613281 C 1219.027344 497.625 1218.625 500.210938 1218.359375 502.3125 C 1218.046875 504.394531 1217.855469 505.996094 1217.832031 507.054688 C 1217.789062 508.667969 1217.730469 510.414062 1217.648438 512.203125 C 1217.523438 513.992188 1217.394531 515.8125 1217.265625 517.605469 C 1217.128906 519.398438 1217.058594 521.167969 1216.929688 522.796875 C 1216.800781 524.421875 1216.714844 525.933594 1216.691406 527.246094 C 1216.582031 532.480469 1217.40625 534.503906 1220.75 527.804688 C 1226.273438 516.742188 1231.625 504.261719 1236.519531 489.515625 C 1236.832031 488.59375 1237.136719 487.660156 1237.449219 486.726562 C 1237.742188 485.78125 1238.023438 484.828125 1238.316406 483.875 C 1238.898438 481.945312 1239.484375 479.992188 1240.085938 478.015625 C 1240.644531 476.019531 1241.171875 473.984375 1241.730469 471.910156 C 1242.289062 469.839844 1242.855469 467.734375 1243.335938 465.570312 C 1243.84375 463.402344 1244.351562 461.207031 1244.878906 458.980469 C 1245.332031 456.722656 1245.796875 454.433594 1246.265625 452.117188 C 1246.761719 449.785156 1247.164062 447.40625 1247.566406 444.980469 C 1247.960938 442.554688 1248.441406 440.089844 1248.761719 437.566406 C 1250.296875 427.488281 1251.34375 416.628906 1251.925781 404.917969 C 1252.480469 393.203125 1252.480469 380.636719 1251.664062 367.171875 C 1250.84375 353.707031 1249.210938 339.347656 1246.457031 324.109375 C 1243.632812 308.894531 1239.738281 292.789062 1234.292969 275.941406 C 1231.316406 266.6875 1228.074219 257.957031 1224.847656 249.625 C 1223.140625 245.507812 1221.578125 241.414062 1219.832031 237.515625 C 1218.984375 235.550781 1218.144531 233.613281 1217.3125 231.695312 C 1216.441406 229.792969 1215.582031 227.914062 1214.730469 226.054688 C 1207.902344 211.191406 1200.859375 198.0625 1194.0625 186.351562 C 1187.253906 174.644531 1180.691406 164.351562 1174.53125 155.230469 C 1168.34375 146.136719 1162.640625 138.15625 1157.449219 131.117188 C 1154.867188 127.652344 1152.410156 124.359375 1150.070312 121.214844 C 1147.703125 118.167969 1145.550781 115.25 1143.492188 112.550781 C 1141.417969 109.875 1139.515625 107.332031 1137.75 104.953125 C 1135.949219 102.617188 1134.304688 100.410156 1132.804688 98.328125 C 1131.320312 96.21875 1129.882812 94.351562 1128.636719 92.519531 C 1127.367188 90.710938 1126.246094 88.988281 1125.214844 87.402344 C 1123.132812 84.25 1121.53125 81.460938 1120.28125 78.960938 C 1119.363281 77.128906 1119.253906 75.980469 1119.910156 75.363281 C 1120.5625 74.761719 1121.992188 74.679688 1124.019531 75.164062 C 1126.0625 75.640625 1128.746094 76.625 1131.984375 78.042969 C 1135.203125 79.472656 1138.914062 81.425781 1143.085938 83.722656 C 1151.332031 88.4375 1161.1875 94.839844 1171.566406 102.570312 C 1181.957031 110.289062 1192.84375 119.363281 1203.335938 129.0625 C 1205.75 131.304688 1208.292969 133.769531 1210.5625 135.84375 C 1212.828125 137.917969 1214.703125 139.699219 1215.875 140.484375 C 1217.039062 141.285156 1217.445312 141.125 1216.628906 139.449219 C 1216.222656 138.605469 1215.503906 137.390625 1214.425781 135.707031 C 1213.335938 134.050781 1211.832031 131.964844 1209.910156 129.355469 C 1203.910156 121.386719 1199.523438 115.566406 1196.378906 111.398438 C 1194.914062 109.375 1193.820312 107.808594 1193.0625 106.648438 C 1192.3125 105.484375 1191.925781 104.691406 1191.863281 104.242188 C 1191.589844 102.4375 1196.535156 105.960938 1203.664062 112.253906 C 1204.554688 113.011719 1206.171875 114.601562 1208.085938 116.566406 C 1209.996094 118.53125 1212.285156 120.804688 1214.371094 123.058594 C 1216.464844 125.300781 1218.46875 127.425781 1219.960938 128.960938 C 1221.464844 130.488281 1222.398438 131.476562 1222.488281 131.328125 C 1222.5625 131.1875 1221.785156 129.925781 1219.601562 127.15625 C 1218.519531 125.773438 1217.105469 123.992188 1215.304688 121.769531 C 1213.507812 119.542969 1211.230469 116.945312 1208.546875 113.816406 C 1207.214844 112.242188 1205.707031 110.605469 1204.089844 108.820312 C 1202.464844 107.050781 1200.742188 105.128906 1198.84375 103.109375 C 1196.921875 101.109375 1194.875 98.976562 1192.6875 96.707031 C 1190.496094 94.4375 1188.078125 92.113281 1185.554688 89.609375 C 1175.351562 79.699219 1162.367188 67.855469 1145.296875 54.820312 C 1143.359375 53.339844 1140.253906 50.851562 1136.429688 48 C 1134.523438 46.566406 1132.488281 44.960938 1130.3125 43.375 C 1128.140625 41.796875 1125.878906 40.152344 1123.609375 38.492188 C 1114.472656 31.953125 1104.949219 25.609375 1100.195312 22.554688 C 1091.429688 16.726562 1077.359375 8.339844 1060.925781 0.222656 C 1044.519531 -7.953125 1025.773438 -15.84375 1008.398438 -21.988281 C 991.019531 -28.125 975.0625 -32.660156 964.550781 -35.460938 C 961.9375 -36.222656 959.644531 -36.785156 957.769531 -37.304688 C 955.894531 -37.824219 954.429688 -38.261719 953.433594 -38.605469 C 951.441406 -39.289062 951.328125 -39.605469 953.578125 -39.460938 C 953.8125 -39.441406 953.0625 -39.644531 951.542969 -40.015625 C 950.023438 -40.386719 947.71875 -40.847656 944.875 -41.449219 C 942.023438 -42.03125 938.625 -42.75 934.871094 -43.378906 C 931.121094 -44.046875 927.042969 -44.789062 922.820312 -45.371094 C 920.714844 -45.683594 918.582031 -45.996094 916.449219 -46.316406 C 914.3125 -46.609375 912.167969 -46.847656 910.054688 -47.105469 C 907.945312 -47.359375 905.855469 -47.605469 903.828125 -47.847656 C 901.792969 -48.035156 899.816406 -48.21875 897.917969 -48.394531 C 896.027344 -48.570312 894.21875 -48.742188 892.519531 -48.890625 C 890.820312 -49 889.234375 -49.109375 887.785156 -49.199219 C 884.890625 -49.386719 882.5625 -49.519531 881.019531 -49.585938 C 860.839844 -50.261719 843.855469 -49.695312 829.351562 -48.757812 C 814.847656 -47.78125 802.804688 -46.511719 792.453125 -45.113281 C 791.160156 -44.945312 789.890625 -44.792969 788.640625 -44.628906 C 787.402344 -44.445312 786.183594 -44.269531 784.988281 -44.09375 C 782.597656 -43.75 780.300781 -43.417969 778.074219 -43.097656 C 773.648438 -42.382812 769.535156 -41.714844 765.625 -41.09375 C 761.742188 -40.40625 758.074219 -39.753906 754.515625 -39.128906 C 750.980469 -38.441406 747.570312 -37.789062 744.171875 -37.128906 C 742.90625 -36.894531 739.46875 -36.027344 734.800781 -34.84375 C 732.460938 -34.273438 729.847656 -33.515625 727.039062 -32.722656 C 724.230469 -31.925781 721.234375 -31.105469 718.207031 -30.128906 C 715.171875 -29.164062 712.058594 -28.242188 709.03125 -27.214844 C 706.003906 -26.179688 703.03125 -25.160156 700.226562 -24.195312 C 697.4375 -23.195312 694.828125 -22.203125 692.5 -21.335938 C 691.335938 -20.898438 690.242188 -20.484375 689.238281 -20.105469 C 688.234375 -19.695312 687.324219 -19.324219 686.507812 -18.992188 C 667.855469 -11.382812 650.84375 -3.3125 631.542969 7.65625 C 621.914062 13.167969 611.667969 19.34375 600.585938 26.882812 C 589.496094 34.402344 577.492188 43.175781 564.445312 53.910156 C 566.75 51.855469 568.917969 49.917969 570.964844 48.09375 C 573.03125 46.292969 575.011719 44.640625 576.867188 43.054688 C 580.566406 39.859375 583.957031 37.203125 586.988281 34.734375 C 588.503906 33.496094 589.960938 32.355469 591.371094 31.28125 C 592.777344 30.199219 594.113281 29.171875 595.40625 28.175781 C 597.976562 26.164062 600.425781 24.40625 602.792969 22.667969 C 569.238281 44.015625 538.433594 70.042969 511.46875 99.300781 C 498.027344 113.972656 485.527344 129.4375 474.097656 145.53125 C 462.722656 161.664062 452.335938 178.367188 443.125 195.515625 C 433.9375 212.679688 425.832031 230.234375 418.816406 247.976562 C 411.847656 265.742188 405.992188 283.675781 401.136719 301.636719 C 391.371094 337.570312 385.988281 373.683594 384.03125 408.601562 C 383.988281 409.304688 383.929688 410.46875 383.878906 412.007812 C 383.859375 413.546875 383.835938 415.449219 383.808594 417.640625 C 383.800781 419.824219 383.738281 422.296875 383.785156 424.953125 C 383.835938 427.609375 383.886719 430.457031 383.941406 433.398438 C 384.28125 445.179688 385.214844 458.503906 386.222656 467.558594 C 387.429688 478.507812 388.886719 489.511719 390.882812 500.382812 L 391.597656 504.460938 L 392.40625 508.515625 C 392.953125 511.21875 393.453125 513.921875 394.042969 516.605469 C 395.242188 521.960938 396.410156 527.296875 397.777344 532.546875 C 402.996094 553.605469 409.738281 573.597656 416.921875 591.683594 C 423.484375 608.007812 430.597656 623.132812 437.707031 636.75 C 444.8125 650.367188 451.910156 662.476562 458.371094 672.898438 C 471.398438 693.6875 481.75 707.785156 485.070312 713.914062 C 486.320312 716.15625 488.765625 719.917969 492.550781 724.808594 C 494.421875 727.265625 496.582031 730.039062 499.109375 733.03125 C 500.371094 734.53125 501.695312 736.101562 503.078125 737.746094 C 504.484375 739.378906 505.996094 741.039062 507.554688 742.789062 C 513.78125 749.773438 521.339844 757.554688 530.117188 765.84375 C 538.886719 774.136719 548.953125 782.878906 560.253906 791.664062 C 562.25 793.273438 564.316406 794.800781 566.371094 796.351562 C 568.433594 797.882812 570.472656 799.453125 572.558594 800.960938 C 576.757812 803.9375 580.910156 806.996094 585.214844 809.84375 C 593.710938 815.691406 602.5 821.121094 611.335938 826.394531 C 613.570312 827.671875 615.796875 828.949219 618.027344 830.226562 L 621.378906 832.128906 L 624.757812 833.960938 C 627.015625 835.175781 629.269531 836.390625 631.519531 837.601562 C 633.800781 838.761719 636.078125 839.914062 638.347656 841.070312 L 641.757812 842.796875 L 645.195312 844.445312 C 647.488281 845.53125 649.777344 846.617188 652.058594 847.710938 C 654.355469 848.765625 656.671875 849.773438 658.96875 850.804688 C 661.269531 851.820312 663.554688 852.867188 665.875 853.8125 C 684.34375 861.59375 702.882812 868.097656 721.054688 873.242188 C 739.238281 878.367188 757.070312 882.226562 774.097656 884.9375 C 778.996094 885.78125 783.898438 886.390625 788.746094 887.058594 C 791.167969 887.40625 793.597656 887.625 796.007812 887.90625 C 798.421875 888.167969 800.824219 888.445312 803.21875 888.679688 C 812.8125 889.523438 822.265625 890.207031 831.578125 890.457031 C 850.203125 891.054688 868.226562 890.574219 885.535156 889.03125 C 920.160156 886.015625 951.890625 879.300781 980.378906 870.457031 C 1008.882812 861.601562 1034.167969 850.625 1056.402344 838.890625 C 1067.527344 833.023438 1077.851562 826.871094 1087.492188 820.707031 C 1097.148438 814.5625 1106.039062 808.257812 1114.289062 802.027344 C 1144.230469 779.492188 1172.953125 751.796875 1197.214844 721.21875 C 1203.238281 713.539062 1209.097656 705.78125 1214.546875 697.8125 C 1217.335938 693.878906 1219.929688 689.828125 1222.558594 685.839844 C 1223.882812 683.855469 1225.109375 681.796875 1226.367188 679.785156 C 1227.613281 677.757812 1228.90625 675.773438 1230.085938 673.726562 C 1239.773438 657.480469 1248.234375 641.054688 1255.285156 624.867188 C 1256.164062 622.78125 1257.070312 620.667969 1257.976562 618.523438 C 1258.429688 617.453125 1258.894531 616.378906 1259.347656 615.296875 C 1259.78125 614.207031 1260.214844 613.113281 1260.648438 612.015625 C 1261.515625 609.820312 1262.394531 607.621094 1263.261719 605.425781 C 1264.078125 603.207031 1264.898438 600.996094 1265.707031 598.800781 C 1267.359375 594.433594 1268.757812 590.058594 1270.15625 585.90625 C 1271.53125 581.742188 1272.683594 577.71875 1273.792969 574.023438 C 1274.839844 570.308594 1275.699219 566.871094 1276.457031 563.867188 C 1277.21875 560.867188 1277.691406 558.234375 1278.082031 556.167969 C 1278.820312 552.019531 1278.875 550.003906 1277.96875 551 C 1273.957031 555.371094 1267.953125 566.621094 1260.296875 579.296875 C 1258.359375 582.476562 1256.378906 585.734375 1254.371094 589.03125 C 1252.269531 592.292969 1250.152344 595.59375 1248.050781 598.882812 C 1245.847656 602.113281 1243.71875 605.335938 1241.535156 608.414062 C 1239.3125 611.46875 1237.191406 614.453125 1235.054688 617.21875 C 1233.65625 619.019531 1231.945312 621.402344 1230.148438 623.9375 C 1228.332031 626.457031 1226.359375 629.082031 1224.585938 631.445312 C 1223.5625 632.828125 1222.550781 634.078125 1221.574219 635.257812 C 1220.59375 636.417969 1219.660156 637.542969 1218.726562 638.652344 C 1216.902344 640.871094 1215.019531 642.960938 1212.972656 645.320312 C 1210.886719 647.773438 1208.648438 650.414062 1206.011719 653.507812 C 1203.375 656.746094 1200.15625 660.464844 1196.328125 665.136719 C 1191.640625 670.664062 1182.675781 681.921875 1171.585938 693.898438 C 1160.589844 705.957031 1147.320312 718.542969 1135.855469 728.242188 C 1135.359375 729.390625 1135.136719 730.292969 1134.71875 731.378906 C 1134.277344 732.445312 1133.632812 733.6875 1132.296875 735.53125 C 1131.628906 736.417969 1129.722656 738.476562 1127.367188 740.738281 C 1125 742.992188 1122.3125 745.601562 1120.136719 747.621094 C 1112.488281 753.617188 1104.660156 759.21875 1096.671875 764.675781 C 1088.636719 770.066406 1080.386719 775.230469 1071.808594 780.242188 C 1063.992188 784.753906 1053.363281 790.449219 1043.953125 794.992188 C 1041.589844 796.109375 1039.320312 797.1875 1037.207031 798.1875 C 1035.09375 799.195312 1033.09375 800.042969 1031.34375 800.839844 C 1029.59375 801.632812 1028.0625 802.324219 1026.820312 802.886719 C 1025.574219 803.429688 1024.617188 803.84375 1024.015625 804.109375 C 1016.097656 807.863281 1006.425781 811.796875 999.457031 814.671875 C 992.429688 817.394531 988.148438 819.167969 990.964844 818.414062 C 994.628906 817.421875 997.800781 816.628906 1000.484375 815.949219 C 1003.15625 815.234375 1005.363281 814.6875 1007.132812 814.300781 C 1010.683594 813.558594 1012.441406 813.328125 1012.753906 813.761719 C 1013.363281 814.601562 1008.050781 817.789062 998.699219 822.097656 C 989.359375 826.414062 975.910156 831.6875 960.335938 836.449219 C 944.769531 841.222656 927.109375 845.574219 909.652344 848.53125 C 879.226562 851.335938 851.238281 850.476562 826.804688 847.71875 C 814.574219 846.375 803.226562 844.457031 792.824219 842.351562 C 790.230469 841.800781 787.675781 841.332031 785.199219 840.738281 C 782.730469 840.15625 780.308594 839.585938 777.941406 839.027344 C 775.570312 838.492188 773.289062 837.824219 771.046875 837.25 C 768.8125 836.644531 766.621094 836.109375 764.515625 835.472656 C 747.609375 830.609375 734.683594 825.667969 725.957031 821.855469 C 721.601562 819.933594 718.296875 818.265625 716.046875 817.050781 C 713.804688 815.804688 712.660156 814.886719 712.617188 814.460938 C 712.519531 813.9375 728.09375 818.789062 736.507812 820.738281 C 750.691406 825.488281 765.003906 829.476562 779.859375 832.742188 C 786.726562 834.238281 794.324219 835.710938 801.65625 836.878906 C 807.304688 837.382812 818.46875 838.167969 817.761719 837.738281 C 816.230469 836.800781 813.351562 835.761719 808.359375 834.449219 C 805.867188 833.746094 802.847656 832.976562 799.199219 832.128906 C 797.363281 831.667969 795.394531 831.179688 793.273438 830.652344 C 791.132812 830.125 788.820312 829.617188 786.347656 828.953125 C 783.863281 828.332031 781.210938 827.65625 778.378906 826.945312 C 775.539062 826.183594 772.519531 825.375 769.308594 824.507812 C 766.09375 823.589844 762.691406 822.625 759.082031 821.585938 C 755.484375 820.476562 751.683594 819.300781 747.660156 818.066406 C 731.652344 812.851562 712.28125 805.847656 689.683594 795.117188 C 675.386719 790.347656 662.414062 785.214844 649.652344 779.441406 C 630.398438 766.707031 611.015625 751.152344 596.203125 736.957031 C 582.074219 723.496094 569.355469 709.007812 563.152344 700.332031 C 560.890625 697.136719 571.003906 706.992188 583.734375 718.566406 C 601.160156 734.308594 619.535156 748.339844 638.074219 760.363281 C 647.355469 766.363281 656.667969 771.871094 665.875 776.949219 C 675.097656 781.996094 684.277344 786.496094 693.207031 790.648438 C 695.453125 791.652344 697.679688 792.652344 699.882812 793.640625 C 702.082031 794.648438 704.308594 795.519531 706.484375 796.453125 C 710.828125 798.34375 715.167969 799.96875 719.371094 801.65625 C 721.472656 802.488281 723.589844 803.21875 725.660156 803.996094 C 727.734375 804.75 729.765625 805.550781 731.8125 806.222656 C 735.886719 807.597656 739.824219 809.039062 743.710938 810.226562 C 759.183594 815.210938 772.980469 818.820312 784.375 821.546875 C 785.929688 821.910156 787.519531 822.285156 789.164062 822.671875 C 790.804688 823.066406 792.519531 823.378906 794.28125 823.753906 C 796.046875 824.121094 797.871094 824.496094 799.761719 824.882812 C 801.664062 825.21875 803.628906 825.570312 805.667969 825.941406 C 813.832031 827.410156 823.242188 828.777344 834.40625 829.945312 C 836.890625 829.726562 839.152344 829.566406 841.316406 829.34375 C 843.484375 829.109375 845.566406 828.875 847.691406 828.644531 C 848.753906 828.523438 849.828125 828.421875 850.921875 828.28125 C 852.023438 828.132812 853.148438 827.988281 854.320312 827.828125 C 856.65625 827.496094 859.171875 827.210938 861.988281 826.753906 C 864.8125 826.851562 867.390625 826.949219 869.769531 827.039062 C 872.148438 827.097656 874.320312 827.101562 876.328125 827.140625 C 880.355469 827.230469 883.71875 827.152344 886.777344 827.132812 C 889.839844 827.121094 892.582031 827.003906 895.34375 826.882812 C 896.730469 826.816406 898.121094 826.746094 899.558594 826.679688 C 900.996094 826.605469 902.480469 826.46875 904.054688 826.347656 C 905.9375 826.191406 907.890625 826.03125 909.914062 825.867188 C 911.929688 825.644531 914.007812 825.417969 916.140625 825.183594 C 920.40625 824.761719 924.84375 824.058594 929.382812 823.457031 C 938.429688 822.027344 947.8125 820.363281 956.582031 818.390625 C 956.816406 818.15625 958.851562 817.554688 962.148438 816.558594 C 963.800781 816.085938 965.769531 815.523438 967.992188 814.886719 C 970.210938 814.214844 972.679688 813.46875 975.335938 812.664062 C 985.976562 809.425781 999.5625 804.777344 1012.019531 799.660156 C 1024.5 794.601562 1035.820312 789.082031 1042.515625 785.496094 C 1049.179688 781.84375 1051.332031 780.359375 1045.324219 782.789062 C 1041.167969 784.476562 1039.769531 784.730469 1038.464844 784.886719 C 1037.167969 785.050781 1036 785.164062 1032.324219 786.523438 C 1030.5 787.230469 1027.992188 788.117188 1024.542969 789.507812 C 1023.679688 789.855469 1022.757812 790.230469 1021.769531 790.628906 C 1020.773438 791.015625 1019.707031 791.425781 1018.574219 791.863281 C 1016.292969 792.722656 1013.761719 793.792969 1010.84375 794.851562 C 1009.390625 795.398438 1007.851562 795.96875 1006.226562 796.574219 C 1005.414062 796.878906 1004.578125 797.195312 1003.722656 797.515625 C 1002.855469 797.820312 1001.972656 798.132812 1001.058594 798.453125 C 999.234375 799.09375 997.324219 799.769531 995.304688 800.480469 C 993.289062 801.1875 991.144531 801.855469 988.910156 802.601562 C 979.949219 805.515625 969.210938 808.777344 956.21875 811.925781 C 946.574219 814.277344 937.21875 815.996094 928.488281 817.363281 C 926.296875 817.65625 924.148438 817.953125 922.039062 818.234375 C 920.988281 818.371094 919.945312 818.507812 918.914062 818.644531 C 917.882812 818.753906 916.859375 818.859375 915.847656 818.964844 C 913.832031 819.167969 911.863281 819.371094 909.9375 819.5625 C 908.015625 819.738281 906.144531 819.851562 904.328125 819.984375 C 902.511719 820.105469 900.753906 820.246094 899.050781 820.328125 C 897.351562 820.390625 895.707031 820.453125 894.125 820.511719 C 892.546875 820.5625 891.03125 820.609375 889.582031 820.652344 C 888.132812 820.65625 886.75 820.65625 885.433594 820.660156 C 880.1875 820.695312 876.078125 820.464844 873.339844 820.269531 C 863.703125 819.5 852.648438 818.515625 839.75 816.828125 C 826.855469 815.132812 812.113281 812.714844 795.222656 808.917969 C 793.105469 808.46875 790.96875 807.945312 788.792969 807.398438 C 786.621094 806.863281 784.402344 806.347656 782.160156 805.765625 C 777.683594 804.546875 773.039062 803.375 768.296875 801.925781 C 763.523438 800.589844 758.660156 798.972656 753.617188 797.375 C 751.113281 796.519531 748.566406 795.648438 745.980469 794.757812 C 743.390625 793.882812 740.804688 792.863281 738.148438 791.90625 C 717.019531 783.992188 693.773438 773.492188 669.214844 758.664062 C 664.753906 755.960938 664.269531 755.308594 666.433594 756.132812 C 668.609375 756.941406 673.351562 759.34375 679.570312 762.386719 C 681.089844 763.152344 683.011719 764.132812 685.277344 765.199219 C 687.539062 766.265625 690.0625 767.570312 692.859375 768.828125 C 695.65625 770.085938 698.609375 771.519531 701.730469 772.851562 C 703.285156 773.523438 704.867188 774.203125 706.457031 774.886719 C 707.25 775.238281 708.046875 775.578125 708.84375 775.925781 L 711.265625 776.902344 C 724.128906 782.207031 737.070312 786.667969 742.605469 788.488281 C 746.429688 789.867188 750.3125 791.015625 754.148438 792.265625 C 756.0625 792.898438 758.003906 793.40625 759.921875 793.988281 C 761.851562 794.535156 763.761719 795.132812 765.691406 795.65625 C 773.398438 797.726562 781.078125 799.691406 788.777344 801.273438 C 804.160156 804.546875 819.519531 806.886719 834.863281 808.226562 C 850.207031 809.570312 865.523438 810.089844 880.820312 809.609375 C 896.117188 809.125 911.394531 807.769531 926.652344 805.511719 C 961.820312 800.175781 995.542969 790.285156 1027.863281 775.949219 C 1032.976562 772.242188 1048.832031 762.234375 1039.65625 765.707031 C 1034.339844 767.679688 1023.976562 772.210938 1011.296875 776.90625 C 998.628906 781.621094 983.65625 786.5 969.53125 790.015625 C 966.707031 790.703125 955.535156 793.953125 944.226562 796.421875 C 932.941406 798.972656 921.585938 800.820312 918.960938 801.320312 C 905.15625 803.957031 893.371094 805.328125 883.082031 806.085938 C 872.789062 806.835938 863.984375 807.015625 856.027344 806.800781 C 854.039062 806.742188 852.101562 806.722656 850.207031 806.628906 C 848.3125 806.519531 846.460938 806.414062 844.636719 806.304688 C 840.992188 806.136719 837.480469 805.734375 834.003906 805.425781 C 832.261719 805.28125 830.539062 805.0625 828.808594 804.847656 C 827.085938 804.636719 825.355469 804.421875 823.617188 804.203125 C 820.140625 803.734375 816.621094 803.164062 812.964844 802.628906 C 802.722656 800.9375 792.289062 798.824219 781.746094 796.234375 C 779.117188 795.546875 776.460938 794.945312 773.816406 794.203125 C 771.175781 793.46875 768.519531 792.730469 765.851562 791.992188 C 763.203125 791.1875 760.542969 790.367188 757.871094 789.558594 C 755.195312 788.75 752.546875 787.804688 749.867188 786.9375 C 728.511719 779.699219 707.070312 770.507812 686.378906 759.042969 C 683.25 757.320312 680.136719 755.511719 676.9375 753.722656 C 675.363281 752.789062 673.769531 751.847656 672.160156 750.894531 C 670.546875 749.941406 668.902344 749.003906 667.28125 747.972656 C 664.015625 745.949219 660.632812 743.917969 657.214844 741.660156 C 655.5 740.535156 653.710938 739.460938 651.964844 738.25 C 650.195312 737.058594 648.398438 735.847656 646.558594 734.609375 C 639.265625 729.566406 631.460938 723.933594 623.066406 717.292969 C 614.695312 710.621094 605.730469 702.949219 596.1875 693.839844 C 575.824219 674.316406 558.921875 653.945312 544.582031 633.140625 C 530.265625 612.3125 518.527344 591 508.894531 569.039062 C 499.289062 547.066406 491.773438 524.425781 486.390625 500.695312 C 481.023438 476.96875 477.785156 452.125 477.277344 425.78125 C 477.277344 425.78125 477.335938 430.195312 477.339844 430.21875 " fill-opacity="1" fill-rule="nonzero"/></g></g></g><g clip-path="url(#5c664571b3)"><g clip-path="url(#710a6cf61a)"><g clip-path="url(#f70a4a12e4)"><path fill="#ff6a00" d="M 589.394531 165.417969 C 588.042969 167.398438 585.445312 170.714844 585.75 171.011719 C 586.011719 171.265625 589.136719 168.53125 591.019531 167.136719 C 585.898438 172.242188 580.613281 178.140625 575.660156 183.738281 C 573.253906 186.59375 570.875 189.332031 568.738281 191.941406 C 566.632812 194.574219 564.609375 196.945312 562.9375 199.097656 C 559.910156 202.890625 557.554688 205.84375 555.738281 208.121094 C 553.941406 210.367188 552.601562 211.835938 551.761719 212.792969 C 551.035156 213.59375 551.257812 212.949219 551.738281 211.90625 C 552.234375 210.871094 553.03125 209.460938 553.378906 208.664062 C 554.8125 206.699219 556.183594 204.683594 557.664062 202.75 L 562.066406 196.921875 C 565.09375 193.113281 568.085938 189.273438 571.25 185.570312 C 577.523438 178.132812 584.007812 170.871094 590.871094 163.964844 L 589.394531 165.417969 " fill-opacity="1" fill-rule="nonzero"/></g></g></g><g clip-path="url(#26044e3adf)"><g clip-path="url(#ca35888ced)"><g clip-path="url(#fc2c99cd02)"><path fill="#ff6a00" d="M 511.3125 567.054688 C 509.589844 563.941406 508.558594 561.816406 507.441406 559.722656 C 506.816406 557.894531 506.234375 555.996094 505.660156 554.09375 C 505.082031 552.199219 504.503906 550.308594 503.945312 548.464844 C 502.933594 544.746094 501.925781 541.28125 501.273438 538.425781 C 501.222656 538.210938 501.421875 538.753906 501.777344 539.78125 C 502.148438 540.796875 502.699219 542.285156 503.324219 543.980469 C 503.960938 545.667969 504.605469 547.582031 505.324219 549.382812 C 506.035156 551.1875 506.714844 552.921875 507.265625 554.3125 C 507.925781 556.679688 508.703125 559.007812 509.394531 561.1875 C 510.097656 563.359375 510.707031 565.390625 511.3125 567.054688 " fill-opacity="1" fill-rule="nonzero"/></g></g></g><g clip-path="url(#923cff7c68)"><g clip-path="url(#f692b35d5e)"><g clip-path="url(#463789fd4f)"><path fill="#ff6a00" d="M 590.871094 163.964844 C 589.34375 165.304688 587.117188 167.351562 585.339844 168.960938 C 583.597656 170.605469 582.277344 171.78125 582.464844 171.292969 C 582.847656 170.207031 588.964844 163.003906 592.804688 158.636719 C 594.308594 157.648438 597.574219 154.898438 596.816406 156.164062 C 596.019531 157.542969 591.40625 162.59375 589.007812 165.796875 C 589.394531 165.417969 590.871094 163.964844 590.871094 163.964844 " fill-opacity="1" fill-rule="nonzero"/></g></g></g><g clip-path="url(#28807fb90f)"><g clip-path="url(#d824c125e5)"><g clip-path="url(#ee64afd490)"><path fill="#ff6a00" d="M 477.277344 425.78125 C 477.277344 425.78125 477.335938 430.195312 477.339844 430.21875 C 477.410156 428.339844 477.507812 425.808594 477.589844 423.683594 C 477.707031 421.566406 477.863281 419.871094 477.976562 419.695312 C 478.371094 419.167969 478.640625 422.855469 479.074219 424.742188 C 479.101562 426.824219 479.128906 429.351562 479.160156 431.972656 C 479.253906 434.589844 479.351562 437.308594 479.4375 439.761719 C 479.492188 442.222656 479.6875 444.414062 479.765625 446 C 479.808594 446.792969 479.847656 447.4375 479.875 447.878906 C 479.894531 448.324219 479.902344 448.578125 479.902344 448.578125 C 479.5625 449.128906 479.160156 448.832031 478.535156 444.667969 C 478.4375 444.007812 478.300781 442.910156 478.175781 441.527344 C 478.082031 440.140625 477.960938 438.476562 477.835938 436.695312 C 477.554688 433.125 477.429688 429.058594 477.277344 425.78125 " fill-opacity="1" fill-rule="nonzero"/></g></g></g><g clip-path="url(#9444471881)"><g clip-path="url(#8c6dccf6ca)"><g clip-path="url(#40de4acea4)"><path fill="#ff6a00" d="M 459.4375 363.445312 C 463.726562 346.996094 468.328125 332.179688 470.496094 328.578125 C 470.71875 328.195312 470.59375 329.277344 470.246094 331.285156 C 470.0625 332.296875 469.84375 333.53125 469.589844 334.933594 C 469.355469 336.34375 469.085938 337.917969 468.808594 339.59375 C 468.523438 341.269531 468.191406 343.042969 467.902344 344.851562 C 467.632812 346.667969 467.359375 348.515625 467.085938 350.332031 C 466.507812 353.953125 466.113281 357.464844 465.789062 360.289062 C 464.449219 366.5625 463.039062 375.71875 461.972656 383.199219 C 461.484375 386.945312 461.089844 390.269531 460.746094 392.585938 C 460.40625 394.914062 460.230469 396.242188 460.09375 395.992188 C 459.535156 394.933594 459.320312 390.589844 459.171875 384.597656 C 459.117188 381.605469 459.179688 378.214844 459.183594 374.613281 C 459.265625 371.035156 459.351562 367.257812 459.4375 363.445312 " fill-opacity="1" fill-rule="nonzero"/></g></g></g><g clip-path="url(#caa2deb33f)"><g clip-path="url(#3a846ef6c1)"><g clip-path="url(#e6d4e7e084)"><path fill="#ff6a00" d="M 511.980469 183.996094 C 510.164062 186.464844 508.417969 188.839844 506.804688 191.039062 C 505.171875 193.234375 503.796875 195.339844 502.527344 197.132812 C 501.273438 198.929688 500.199219 200.46875 499.363281 201.664062 C 498.546875 202.863281 497.953125 203.699219 497.628906 204.074219 C 497.207031 204.585938 498.273438 202.460938 499.871094 199.671875 C 501.488281 196.886719 503.511719 193.398438 504.875 191.054688 C 506.476562 188.816406 508.609375 185.824219 510.417969 183.296875 C 512.28125 180.8125 513.820312 178.804688 514.15625 178.515625 C 515.257812 177.570312 513.230469 181.09375 511.980469 183.996094 " fill-opacity="1" fill-rule="nonzero"/></g></g></g><g clip-path="url(#07320a0c83)"><g clip-path="url(#b8d3454060)"><g clip-path="url(#c41c92d47d)"><path fill="#ff6a00" d="M 591.972656 113.71875 C 592.128906 113.9375 592.6875 113.808594 592.351562 114.453125 C 591.757812 115.59375 590.628906 117.207031 589.738281 118.613281 C 588.011719 119.480469 585.214844 121.382812 585.035156 120.867188 C 584.992188 120.734375 586.105469 119.546875 587.570312 118.03125 C 589.050781 116.535156 590.929688 114.757812 592.328125 113.359375 C 592.613281 113.089844 591.972656 113.71875 591.972656 113.71875 " fill-opacity="1" fill-rule="nonzero"/></g></g></g><g clip-path="url(#fdb962031f)"><g clip-path="url(#617d770f2d)"><g clip-path="url(#500ff2ffa8)"><path fill="#ff6a00" d="M 604.757812 770.335938 C 616.585938 776.839844 628.65625 782.738281 640.898438 788.03125 C 628.652344 782.738281 616.585938 776.839844 604.757812 770.335938 " fill-opacity="1" fill-rule="nonzero"/></g></g></g><g clip-path="url(#25bf626713)"><g clip-path="url(#15260b6f14)"><g clip-path="url(#37073ae68c)"><path fill="#ff6a00" d="M 573.980469 745.488281 C 584.765625 755 596.027344 763.964844 607.722656 772.34375 C 605.582031 771.140625 603.855469 770.132812 601.292969 768.558594 C 597.492188 766.257812 593.257812 763.324219 589.203125 760.652344 C 587.4375 758.976562 585.605469 757.25 583.820312 755.566406 C 582.933594 754.71875 582.058594 753.875 581.207031 753.066406 C 580.378906 752.230469 579.570312 751.417969 578.800781 750.640625 C 576.722656 748.519531 575.550781 747.183594 573.980469 745.488281 " fill-opacity="1" fill-rule="nonzero"/></g></g></g><path fill="#ff6a00" d="M 346.761719 99.300781 C 346.761719 109.832031 338.214844 118.378906 327.6875 118.378906 C 317.144531 118.378906 308.613281 109.832031 308.613281 99.300781 C 308.613281 88.761719 317.144531 80.222656 327.6875 80.222656 C 338.214844 80.222656 346.761719 88.761719 346.761719 99.300781 " fill-opacity="1" fill-rule="nonzero"/><g clip-path="url(#8501f2857d)"><path fill="#ff6a00" d="M 45.820312 189.800781 C 45.820312 200.34375 37.28125 208.875 26.742188 208.875 C 16.207031 208.875 7.664062 200.34375 7.664062 189.800781 C 7.664062 179.269531 16.207031 170.726562 26.742188 170.726562 C 37.28125 170.726562 45.820312 179.269531 45.820312 189.800781 " fill-opacity="1" fill-rule="nonzero"/></g><g clip-path="url(#16df9c1289)"><path fill="#ff6a00" d="M 157.699219 36.601562 C 157.699219 47.136719 149.15625 55.675781 138.625 55.675781 C 128.085938 55.675781 119.546875 47.136719 119.546875 36.601562 C 119.546875 26.066406 128.085938 17.527344 138.625 17.527344 C 149.15625 17.527344 157.699219 26.066406 157.699219 36.601562 " fill-opacity="1" fill-rule="nonzero"/></g><path fill="#ff6a00" d="M 234.847656 164.082031 C 234.847656 174.621094 226.316406 183.167969 215.773438 183.167969 C 205.230469 183.167969 196.699219 174.621094 196.699219 164.082031 C 196.699219 153.550781 205.230469 145.007812 215.773438 145.007812 C 226.316406 145.007812 234.847656 153.550781 234.847656 164.082031 " fill-opacity="1" fill-rule="nonzero"/><g clip-path="url(#4fd212a803)"><path fill="#ff6a00" d="M 178.769531 208.875 C 178.769531 223.085938 167.261719 234.59375 153.0625 234.59375 C 138.851562 234.59375 127.34375 223.085938 127.34375 208.875 C 127.34375 194.675781 138.851562 183.167969 153.0625 183.167969 C 167.261719 183.167969 178.769531 194.675781 178.769531 208.875 " fill-opacity="1" fill-rule="nonzero"/></g><path fill="#ff6a00" d="M 241.492188 99.300781 C 241.492188 113.503906 229.972656 125.011719 215.773438 125.011719 C 201.5625 125.011719 190.054688 113.503906 190.054688 99.300781 C 190.054688 85.101562 201.5625 73.582031 215.773438 73.582031 C 229.972656 73.582031 241.492188 85.101562 241.492188 99.300781 " fill-opacity="1" fill-rule="nonzero"/><path fill="#ff6a00" d="M 311.175781 183.167969 C 310.75 195.78125 301.214844 205.304688 288.597656 205.734375 C 275.984375 206.160156 266.421875 195.140625 266.019531 183.167969 C 265.59375 170.550781 276.613281 160.988281 288.597656 160.585938 C 301.199219 160.160156 310.761719 171.179688 311.175781 183.167969 C 311.300781 187.199219 317.585938 187.210938 317.460938 183.167969 C 316.90625 167.058594 304.695312 154.847656 288.597656 154.304688 C 272.503906 153.765625 260.253906 167.875 259.738281 183.167969 C 259.195312 199.25 273.308594 211.5 288.597656 212.015625 C 304.679688 212.566406 316.929688 198.445312 317.460938 183.167969 C 317.585938 179.109375 311.300781 179.121094 311.175781 183.167969 " fill-opacity="1" fill-rule="nonzero"/><path fill="#ff6a00" d="M 116.839844 157.445312 C 116.414062 170.0625 106.882812 179.597656 94.265625 180.023438 C 81.648438 180.441406 72.089844 169.421875 71.6875 157.445312 C 71.257812 144.832031 82.285156 135.277344 94.265625 134.875 C 106.878906 134.445312 116.433594 145.460938 116.839844 157.445312 C 116.972656 161.480469 123.253906 161.503906 123.125 157.445312 C 122.578125 141.347656 110.363281 129.132812 94.265625 128.59375 C 78.167969 128.046875 65.917969 142.160156 65.402344 157.445312 C 64.863281 173.542969 78.976562 185.792969 94.265625 186.308594 C 110.351562 186.847656 122.601562 172.738281 123.125 157.445312 C 123.253906 153.402344 116.972656 153.402344 116.839844 157.445312 " fill-opacity="1" fill-rule="nonzero"/><path fill="#ff6a00" d="M 382.984375 203.019531 C 382.984375 213.988281 374.101562 222.871094 363.132812 222.871094 C 352.164062 222.871094 343.28125 213.988281 343.28125 203.019531 C 343.28125 192.050781 352.164062 183.167969 363.132812 183.167969 C 374.101562 183.167969 382.984375 192.050781 382.984375 203.019531 " fill-opacity="1" fill-rule="nonzero"/></svg>