<svg xmlns="http://www.w3.org/2000/svg" xmlns:xlink="http://www.w3.org/1999/xlink" width="1080" zoomAndPan="magnify" viewBox="0 0 810 809.999993" height="1080" preserveAspectRatio="xMidYMid meet" version="1.0"><defs><clipPath id="049d8cf63f"><path d="M 11.078125 11.078125 L 416 11.078125 L 416 416 L 11.078125 416 Z M 11.078125 11.078125 " clip-rule="nonzero"/></clipPath><clipPath id="b80f376dca"><path d="M 394 394 L 798.578125 394 L 798.578125 798.578125 L 394 798.578125 Z M 394 394 " clip-rule="nonzero"/></clipPath><clipPath id="eacb923126"><path d="M 488.253906 40 L 548 40 L 548 102 L 488.253906 102 Z M 488.253906 40 " clip-rule="nonzero"/></clipPath><clipPath id="190d7f0461"><path d="M 636 91 L 696 91 L 696 152.253906 L 636 152.253906 Z M 636 91 " clip-rule="nonzero"/></clipPath><clipPath id="e2931256a7"><path d="M 577 3.753906 L 639 3.753906 L 639 63 L 577 63 Z M 577 3.753906 " clip-rule="nonzero"/></clipPath></defs><path fill="#ff6a00" d="M 163.097656 94.003906 L 94.003906 163.097656 C 89.472656 168.910156 85.117188 174.859375 80.910156 180.929688 L 180.929688 80.910156 C 174.859375 85.117188 168.910156 89.472656 163.097656 94.003906 " fill-opacity="1" fill-rule="nonzero"/><path fill="#ff6a00" d="M 281.320312 30.832031 L 30.832031 281.320312 C 30.058594 283.652344 29.292969 285.976562 28.566406 288.324219 L 288.324219 28.566406 C 285.976562 29.292969 283.652344 30.058594 281.320312 30.832031 " fill-opacity="1" fill-rule="nonzero"/><path fill="#ff6a00" d="M 352.746094 14.457031 L 14.457031 352.746094 C 14.214844 354.546875 14 356.355469 13.785156 358.164062 L 358.164062 13.785156 C 356.355469 14 354.546875 14.214844 352.746094 14.457031 " fill-opacity="1" fill-rule="nonzero"/><g clip-path="url(#049d8cf63f)"><path fill="#ff6a00" d="M 411.183594 11.078125 L 11.078125 411.183594 C 11.109375 412.730469 11.117188 414.296875 11.152344 415.84375 L 415.84375 11.152344 C 414.296875 11.117188 412.730469 11.109375 411.183594 11.078125 " fill-opacity="1" fill-rule="nonzero"/></g><path fill="#ff6a00" d="M 462.167969 15.144531 L 15.144531 462.167969 C 15.339844 463.546875 15.539062 464.925781 15.75 466.296875 L 466.296875 15.761719 C 464.925781 15.539062 463.546875 15.339844 462.167969 15.144531 " fill-opacity="1" fill-rule="nonzero"/><path fill="#ff6a00" d="M 507.789062 24.574219 L 24.574219 507.789062 C 24.910156 509.027344 25.234375 510.277344 25.582031 511.519531 L 511.519531 25.582031 C 510.277344 25.234375 509.027344 24.910156 507.789062 24.574219 " fill-opacity="1" fill-rule="nonzero"/><path fill="#ff6a00" d="M 549.195312 38.226562 L 38.226562 549.195312 C 38.664062 550.324219 39.140625 551.441406 39.597656 552.5625 L 552.5625 39.597656 C 551.441406 39.140625 550.324219 38.675781 549.195312 38.226562 " fill-opacity="1" fill-rule="nonzero"/><path fill="#ff6a00" d="M 586.980469 55.488281 L 55.488281 586.980469 C 56.03125 588.015625 56.570312 589.0625 57.121094 590.085938 L 590.085938 57.121094 C 589.0625 56.570312 588.015625 56.03125 586.980469 55.488281 " fill-opacity="1" fill-rule="nonzero"/><path fill="#ff6a00" d="M 621.636719 75.882812 L 75.882812 621.636719 C 76.519531 622.589844 77.132812 623.546875 77.769531 624.492188 L 624.492188 77.769531 C 623.546875 77.132812 622.589844 76.519531 621.636719 75.882812 " fill-opacity="1" fill-rule="nonzero"/><path fill="#ff6a00" d="M 653.398438 99.179688 L 99.179688 653.390625 C 99.890625 654.269531 100.589844 655.144531 101.304688 656.011719 L 656.011719 101.304688 C 655.144531 100.589844 654.269531 99.890625 653.398438 99.179688 " fill-opacity="1" fill-rule="nonzero"/><path fill="#ff6a00" d="M 682.394531 125.226562 L 125.226562 682.394531 C 126.019531 683.1875 126.804688 683.980469 127.59375 684.773438 L 684.773438 127.605469 C 683.980469 126.804688 683.1875 126.019531 682.394531 125.226562 " fill-opacity="1" fill-rule="nonzero"/><path fill="#ff6a00" d="M 708.691406 153.988281 L 153.988281 708.691406 C 154.855469 709.410156 155.730469 710.109375 156.609375 710.820312 L 710.820312 156.597656 C 710.109375 155.730469 709.410156 154.855469 708.691406 153.988281 " fill-opacity="1" fill-rule="nonzero"/><path fill="#ff6a00" d="M 732.230469 185.507812 L 185.5 732.230469 C 186.449219 732.863281 187.410156 733.480469 188.363281 734.113281 L 734.113281 188.363281 C 733.488281 187.410156 732.863281 186.449219 732.230469 185.507812 " fill-opacity="1" fill-rule="nonzero"/><path fill="#ff6a00" d="M 752.878906 219.910156 L 219.910156 752.878906 C 220.945312 753.429688 221.980469 753.96875 223.015625 754.511719 L 754.511719 223.015625 C 753.96875 221.980469 753.429688 220.945312 752.878906 219.910156 " fill-opacity="1" fill-rule="nonzero"/><path fill="#ff6a00" d="M 770.402344 257.4375 L 257.4375 770.402344 C 258.558594 770.859375 259.675781 771.324219 260.804688 771.773438 L 771.773438 260.804688 C 771.324219 259.675781 770.859375 258.558594 770.402344 257.4375 " fill-opacity="1" fill-rule="nonzero"/><path fill="#ff6a00" d="M 784.417969 298.480469 L 298.480469 784.417969 C 299.722656 784.761719 300.96875 785.089844 302.210938 785.425781 L 785.425781 302.210938 C 785.089844 300.972656 784.761719 299.722656 784.417969 298.480469 " fill-opacity="1" fill-rule="nonzero"/><path fill="#ff6a00" d="M 794.238281 343.703125 L 343.703125 794.246094 C 345.070312 794.460938 346.453125 794.65625 347.832031 794.851562 L 794.851562 347.832031 C 794.65625 346.453125 794.460938 345.070312 794.238281 343.703125 " fill-opacity="1" fill-rule="nonzero"/><g clip-path="url(#b80f376dca)"><path fill="#ff6a00" d="M 798.84375 394.152344 L 394.152344 798.84375 C 395.703125 798.882812 397.269531 798.890625 398.816406 798.917969 L 798.917969 398.816406 C 798.890625 397.269531 798.882812 395.703125 798.84375 394.152344 " fill-opacity="1" fill-rule="nonzero"/></g><path fill="#ff6a00" d="M 796.214844 451.832031 L 451.832031 796.214844 C 453.644531 796 455.453125 795.785156 457.25 795.542969 L 795.542969 457.25 C 795.785156 455.453125 796 453.644531 796.214844 451.832031 " fill-opacity="1" fill-rule="nonzero"/><path fill="#ff6a00" d="M 781.433594 521.675781 L 521.675781 781.433594 C 524.023438 780.707031 526.347656 779.941406 528.675781 779.167969 L 779.167969 528.675781 C 779.941406 526.347656 780.707031 524.023438 781.433594 521.675781 " fill-opacity="1" fill-rule="nonzero"/><path fill="#ff6a00" d="M 715.996094 646.898438 C 720.519531 641.089844 724.882812 635.140625 729.089844 629.070312 L 629.070312 729.089844 C 635.140625 724.882812 641.089844 720.527344 646.898438 715.996094 L 715.996094 646.898438 " fill-opacity="1" fill-rule="nonzero"/><path fill="#ff6a00" d="M 501.40625 135.523438 C 500.738281 133.207031 496.5625 132.746094 494.5625 133.359375 C 491.21875 134.132812 489.546875 137.226562 489.382812 140.15625 C 489.046875 145.257812 496.230469 149.890625 500.738281 145.722656 C 502.910156 143.867188 503.914062 138.765625 501.90625 136.453125 " fill-opacity="1" fill-rule="nonzero"/><g clip-path="url(#eacb923126)"><path fill="#ff6a00" d="M 507.203125 97.890625 C 514.183594 105.601562 531.234375 99.476562 537.820312 93.285156 C 549.292969 83.957031 549.902344 68.832031 544.984375 57.144531 C 536.609375 36.773438 500.011719 32.445312 490.460938 57.144531 C 485.566406 68.441406 491.351562 90.085938 503.507812 95.25 " fill-opacity="1" fill-rule="nonzero"/></g><path fill="#000000" d="M 527.816406 118.152344 C 519.039062 111.445312 515.332031 99.089844 515.871094 88.402344 C 516.347656 78.941406 522.011719 70.351562 530.625 66.378906 C 538.324219 62.828125 547.476562 63.296875 555.246094 66.328125 C 564.09375 69.773438 570.003906 76.746094 572.148438 85.9375 C 573.472656 91.652344 573.214844 97.703125 571.332031 103.257812 C 569.285156 109.304688 564.890625 113.625 559.90625 117.359375 C 554.695312 121.265625 548.386719 123.808594 541.832031 123.75 C 538.539062 123.730469 533.925781 122.902344 531.28125 120.84375 C 530.125 119.949219 528.972656 119.050781 527.816406 118.152344 C 527.292969 117.75 527.371094 119.160156 527.753906 119.457031 L 531.078125 122.039062 C 533.332031 123.792969 536.847656 124.546875 539.597656 124.964844 C 545.382812 125.832031 551.464844 124.105469 556.46875 121.238281 C 566.035156 115.757812 572.75 107.566406 573.71875 96.363281 C 574.46875 87.738281 571.90625 78.3125 565.855469 71.976562 C 560.328125 66.191406 552.277344 63.070312 544.394531 62.550781 C 531.679688 61.710938 520.070312 68.871094 516.164062 81.179688 C 514.089844 87.722656 514.828125 95.140625 516.597656 101.652344 C 518.449219 108.472656 522.074219 115.113281 527.753906 119.457031 C 528.28125 119.859375 528.199219 118.449219 527.816406 118.152344 " fill-opacity="1" fill-rule="nonzero"/><path fill="#000000" d="M 550.90625 68.132812 C 561.296875 71.90625 568.871094 83.722656 569.675781 94.507812 C 570.375 103.839844 564.535156 112.144531 556.328125 116.019531 C 548.875 119.53125 539.671875 119.601562 532.222656 116.078125 C 521.699219 111.109375 516.332031 97.394531 519.328125 86.441406 C 521.191406 79.625 526.808594 72.945312 532.769531 69.289062 C 536.195312 67.195312 540.1875 66.265625 544.179688 66.398438 C 546.632812 66.484375 548.644531 67.300781 550.90625 68.132812 C 551.410156 68.320312 551.238281 66.917969 550.746094 66.738281 C 546.789062 65.277344 543.246094 64.585938 538.984375 65.351562 C 533.917969 66.265625 529.5 69.394531 526.046875 73.082031 C 522.582031 76.792969 519.667969 81.425781 518.328125 86.324219 C 516.902344 91.542969 517.632812 97.113281 519.390625 102.152344 C 522.320312 110.527344 528.53125 116.941406 537.152344 119.199219 C 544.710938 121.179688 553.128906 119.832031 559.757812 115.757812 C 567.882812 110.765625 571.738281 101.140625 570.160156 91.867188 C 568.390625 81.453125 560.910156 70.417969 550.746094 66.738281 C 550.238281 66.550781 550.414062 67.957031 550.90625 68.132812 " fill-opacity="1" fill-rule="nonzero"/><g clip-path="url(#190d7f0461)"><path fill="#ff6a00" d="M 688.515625 101.523438 C 685.636719 91.535156 667.628906 89.535156 658.988281 92.203125 C 644.585938 95.53125 637.390625 108.855469 636.664062 121.511719 C 635.226562 143.484375 666.191406 163.464844 685.636719 145.484375 C 695 137.492188 699.316406 115.511719 690.675781 105.523438 " fill-opacity="1" fill-rule="nonzero"/></g><path fill="#ff6a00" d="M 602.789062 100.570312 C 602.121094 98.253906 597.945312 97.792969 595.941406 98.410156 C 592.601562 99.179688 590.929688 102.273438 590.761719 105.207031 C 590.425781 110.304688 597.609375 114.941406 602.121094 110.773438 C 604.289062 108.914062 605.292969 103.8125 603.285156 101.503906 " fill-opacity="1" fill-rule="nonzero"/><path fill="#ff6a00" d="M 685.785156 28.417969 C 685.117188 26.101562 680.941406 25.636719 678.9375 26.253906 C 675.597656 27.027344 673.925781 30.117188 673.757812 33.050781 C 673.429688 38.152344 680.605469 42.785156 685.117188 38.613281 C 687.292969 36.761719 688.296875 31.660156 686.289062 29.34375 " fill-opacity="1" fill-rule="nonzero"/><path fill="#ff6a00" d="M 738.691406 135.523438 C 738.03125 133.207031 733.847656 132.746094 731.84375 133.359375 C 728.503906 134.132812 726.832031 137.226562 726.664062 140.15625 C 726.335938 145.257812 733.511719 149.890625 738.03125 145.722656 C 740.199219 143.867188 741.195312 138.765625 739.195312 136.453125 " fill-opacity="1" fill-rule="nonzero"/><path fill="#ff6a00" d="M 745.136719 97.890625 C 752.121094 105.601562 769.167969 99.476562 775.757812 93.285156 C 787.226562 83.957031 787.835938 68.832031 782.917969 57.144531 C 774.542969 36.773438 737.945312 32.445312 728.394531 57.144531 C 723.5 68.441406 729.292969 90.085938 741.441406 95.25 " fill-opacity="1" fill-rule="nonzero"/><g clip-path="url(#e2931256a7)"><path fill="#000000" d="M 628.113281 55.652344 C 638.101562 52.769531 640.101562 34.765625 637.433594 26.125 C 634.109375 11.726562 620.789062 4.523438 608.128906 3.804688 C 586.148438 2.363281 566.164062 33.328125 584.152344 52.769531 C 592.148438 62.132812 614.128906 66.453125 624.113281 57.8125 " fill-opacity="1" fill-rule="nonzero"/></g><path fill="#000000" d="M 671.148438 119.847656 C 662.375 113.132812 658.664062 100.777344 659.203125 90.097656 C 659.679688 80.628906 665.34375 72.039062 673.957031 68.070312 C 681.660156 64.523438 690.808594 64.988281 698.582031 68.019531 C 707.429688 71.472656 713.335938 78.433594 715.480469 87.632812 C 716.808594 93.347656 716.542969 99.398438 714.664062 104.945312 C 712.621094 111 708.21875 115.324219 703.242188 119.058594 C 698.03125 122.960938 691.726562 125.496094 685.164062 125.445312 C 681.875 125.417969 677.261719 124.597656 674.613281 122.539062 C 673.453125 121.640625 672.300781 120.746094 671.148438 119.847656 C 670.625 119.4375 670.703125 120.855469 671.085938 121.152344 C 672.191406 122.007812 673.304688 122.875 674.410156 123.730469 C 676.664062 125.484375 680.179688 126.242188 682.929688 126.65625 C 688.714844 127.53125 694.800781 125.792969 699.804688 122.925781 C 709.363281 117.453125 716.082031 109.265625 717.054688 98.058594 C 717.796875 89.425781 715.234375 80 709.183594 73.671875 C 703.65625 67.886719 695.609375 64.765625 687.726562 64.242188 C 675.007812 63.402344 663.402344 70.558594 659.492188 82.875 C 657.421875 89.414062 658.160156 96.832031 659.933594 103.339844 C 661.785156 110.164062 665.402344 116.804688 671.085938 121.152344 C 671.609375 121.554688 671.53125 120.136719 671.148438 119.847656 " fill-opacity="1" fill-rule="nonzero"/><path fill="#000000" d="M 694.238281 69.828125 C 704.632812 73.59375 712.203125 85.414062 713.007812 96.203125 C 713.707031 105.535156 707.867188 113.839844 699.65625 117.710938 C 692.203125 121.226562 683 121.289062 675.550781 117.773438 C 665.027344 112.804688 659.667969 99.089844 662.65625 88.136719 C 664.523438 81.320312 670.140625 74.644531 676.101562 70.984375 C 679.53125 68.886719 683.519531 67.957031 687.511719 68.09375 C 689.964844 68.175781 691.972656 68.992188 694.238281 69.828125 C 694.742188 70.015625 694.566406 68.609375 694.074219 68.429688 C 690.121094 66.96875 686.582031 66.28125 682.316406 67.046875 C 677.246094 67.957031 672.832031 71.089844 669.382812 74.777344 C 665.914062 78.480469 663 83.113281 661.660156 88.015625 C 660.230469 93.238281 660.960938 98.8125 662.722656 103.839844 C 665.65625 112.222656 671.863281 118.628906 680.484375 120.886719 C 688.042969 122.875 696.457031 121.523438 703.089844 117.453125 C 711.214844 112.460938 715.066406 102.835938 713.492188 93.5625 C 711.71875 83.148438 704.238281 72.113281 694.074219 68.429688 C 693.570312 68.246094 693.746094 69.644531 694.238281 69.828125 " fill-opacity="1" fill-rule="nonzero"/><path fill="#000000" d="M 765.753906 118.152344 C 756.976562 111.445312 753.265625 99.089844 753.804688 88.402344 C 754.28125 78.941406 759.945312 70.351562 768.5625 66.378906 C 776.261719 62.828125 785.410156 63.296875 793.183594 66.328125 C 802.03125 69.773438 807.941406 76.746094 810.082031 85.9375 C 811.410156 91.652344 811.144531 97.703125 809.265625 103.257812 C 807.222656 109.304688 802.828125 113.625 797.84375 117.359375 C 792.632812 121.265625 786.328125 123.808594 779.765625 123.75 C 776.476562 123.730469 771.863281 122.902344 769.214844 120.84375 C 768.054688 119.949219 766.902344 119.050781 765.753906 118.152344 C 765.226562 117.75 765.304688 119.160156 765.6875 119.457031 C 766.792969 120.320312 767.90625 121.179688 769.015625 122.039062 C 771.265625 123.792969 774.789062 124.546875 777.53125 124.964844 C 783.316406 125.832031 789.402344 124.105469 794.40625 121.238281 C 803.964844 115.757812 810.683594 107.566406 811.65625 96.363281 C 812.40625 87.738281 809.84375 78.3125 803.789062 71.976562 C 798.261719 66.191406 790.210938 63.070312 782.328125 62.550781 C 769.617188 61.710938 758.003906 68.871094 754.09375 81.179688 C 752.023438 87.722656 752.761719 95.140625 754.535156 101.652344 C 756.386719 108.472656 760.011719 115.113281 765.6875 119.457031 C 766.21875 119.859375 766.132812 118.449219 765.753906 118.152344 " fill-opacity="1" fill-rule="nonzero"/><path fill="#000000" d="M 788.839844 68.132812 C 799.234375 71.90625 806.808594 83.722656 807.609375 94.507812 C 808.308594 103.839844 802.46875 112.144531 794.257812 116.019531 C 786.8125 119.53125 777.601562 119.601562 770.160156 116.078125 C 759.636719 111.109375 754.269531 97.394531 757.261719 86.441406 C 759.125 79.625 764.742188 72.945312 770.703125 69.289062 C 774.128906 67.195312 778.121094 66.265625 782.113281 66.398438 C 784.566406 66.484375 786.582031 67.300781 788.839844 68.132812 C 789.34375 68.320312 789.175781 66.917969 788.683594 66.738281 C 784.722656 65.277344 781.183594 64.585938 776.917969 65.351562 C 771.855469 66.265625 767.433594 69.394531 763.984375 73.082031 C 760.515625 76.792969 757.601562 81.425781 756.261719 86.324219 C 754.832031 91.542969 755.5625 97.113281 757.324219 102.152344 C 760.257812 110.527344 766.464844 116.941406 775.085938 119.199219 C 782.644531 121.179688 791.058594 119.832031 797.695312 115.757812 C 805.816406 110.765625 809.675781 101.140625 808.09375 91.867188 C 806.320312 81.453125 798.847656 70.417969 788.683594 66.738281 C 788.171875 66.550781 788.347656 67.957031 788.839844 68.132812 " fill-opacity="1" fill-rule="nonzero"/></svg>