<svg xmlns="http://www.w3.org/2000/svg" xmlns:xlink="http://www.w3.org/1999/xlink" width="130" zoomAndPan="magnify" viewBox="0 0 97.5 34.499999" height="46" preserveAspectRatio="xMidYMid meet" version="1.0"><defs><g/></defs><g fill="#000000" fill-opacity="1"><g transform="translate(20.265544, 13.602772)"><g><path d="M 6.453125 -12.78125 C 6.734375 -12.78125 6.96875 -12.769531 7.15625 -12.75 C 7.34375 -12.726562 7.488281 -12.675781 7.59375 -12.59375 C 7.707031 -12.519531 7.785156 -12.390625 7.828125 -12.203125 C 7.878906 -12.015625 7.90625 -11.742188 7.90625 -11.390625 L 7.90625 -3.953125 C 7.90625 -2.984375 7.769531 -2.191406 7.5 -1.578125 C 7.238281 -0.972656 6.847656 -0.53125 6.328125 -0.25 C 5.816406 0.03125 5.1875 0.171875 4.4375 0.171875 C 3.914062 0.171875 3.457031 0.101562 3.0625 -0.03125 C 2.675781 -0.164062 2.34375 -0.332031 2.0625 -0.53125 C 1.789062 -0.738281 1.566406 -0.941406 1.390625 -1.140625 C 1.210938 -1.335938 1.082031 -1.503906 1 -1.640625 C 0.925781 -1.785156 0.890625 -1.859375 0.890625 -1.859375 C 1.191406 -2.035156 1.457031 -2.128906 1.6875 -2.140625 C 1.925781 -2.160156 2.132812 -2.125 2.3125 -2.03125 C 2.488281 -1.945312 2.644531 -1.84375 2.78125 -1.71875 C 2.976562 -1.53125 3.207031 -1.378906 3.46875 -1.265625 C 3.738281 -1.160156 4.0625 -1.109375 4.4375 -1.109375 C 5.164062 -1.109375 5.679688 -1.347656 5.984375 -1.828125 C 6.296875 -2.316406 6.453125 -3.023438 6.453125 -3.953125 Z M 6.453125 -12.78125 "/></g></g></g><g fill="#000000" fill-opacity="1"><g transform="translate(30.874596, 13.602772)"><g><path d="M 3.9375 -10.0625 L 5.609375 -11.9375 C 5.773438 -12.125 5.929688 -12.273438 6.078125 -12.390625 C 6.234375 -12.503906 6.394531 -12.585938 6.5625 -12.640625 C 6.738281 -12.691406 6.957031 -12.726562 7.21875 -12.75 C 7.488281 -12.769531 7.820312 -12.78125 8.21875 -12.78125 L 6.203125 -10.78125 C 5.960938 -10.539062 5.738281 -10.367188 5.53125 -10.265625 C 5.320312 -10.171875 5.09375 -10.113281 4.84375 -10.09375 C 4.59375 -10.070312 4.289062 -10.0625 3.9375 -10.0625 Z M 5.109375 -9.140625 C 5.785156 -9.140625 6.382812 -9.023438 6.90625 -8.796875 C 7.4375 -8.566406 7.878906 -8.242188 8.234375 -7.828125 C 8.597656 -7.410156 8.875 -6.914062 9.0625 -6.34375 C 9.25 -5.78125 9.34375 -5.160156 9.34375 -4.484375 C 9.34375 -3.804688 9.25 -3.179688 9.0625 -2.609375 C 8.875 -2.046875 8.597656 -1.554688 8.234375 -1.140625 C 7.878906 -0.722656 7.4375 -0.398438 6.90625 -0.171875 C 6.382812 0.0546875 5.785156 0.171875 5.109375 0.171875 C 4.429688 0.171875 3.832031 0.0546875 3.3125 -0.171875 C 2.789062 -0.398438 2.347656 -0.722656 1.984375 -1.140625 C 1.617188 -1.554688 1.34375 -2.046875 1.15625 -2.609375 C 0.976562 -3.179688 0.890625 -3.804688 0.890625 -4.484375 C 0.890625 -5.160156 0.976562 -5.78125 1.15625 -6.34375 C 1.34375 -6.914062 1.617188 -7.410156 1.984375 -7.828125 C 2.347656 -8.242188 2.789062 -8.566406 3.3125 -8.796875 C 3.832031 -9.023438 4.429688 -9.140625 5.109375 -9.140625 Z M 7.90625 -4.484375 C 7.90625 -5.140625 7.800781 -5.726562 7.59375 -6.25 C 7.394531 -6.78125 7.085938 -7.195312 6.671875 -7.5 C 6.265625 -7.8125 5.742188 -7.96875 5.109375 -7.96875 C 4.484375 -7.96875 3.960938 -7.8125 3.546875 -7.5 C 3.140625 -7.195312 2.832031 -6.78125 2.625 -6.25 C 2.414062 -5.726562 2.3125 -5.140625 2.3125 -4.484375 C 2.3125 -3.828125 2.414062 -3.234375 2.625 -2.703125 C 2.832031 -2.179688 3.140625 -1.765625 3.546875 -1.453125 C 3.960938 -1.148438 4.484375 -1 5.109375 -1 C 5.742188 -1 6.265625 -1.148438 6.671875 -1.453125 C 7.085938 -1.765625 7.394531 -2.179688 7.59375 -2.703125 C 7.800781 -3.234375 7.90625 -3.828125 7.90625 -4.484375 Z M 7.90625 -4.484375 "/></g></g></g><g fill="#000000" fill-opacity="1"><g transform="translate(42.383797, 13.602772)"><g><path d="M 4.5 0 C 4.21875 0 3.988281 -0.0820312 3.8125 -0.25 C 3.644531 -0.414062 3.5 -0.675781 3.375 -1.03125 L 0.453125 -8.96875 C 0.742188 -8.988281 0.988281 -8.988281 1.1875 -8.96875 C 1.382812 -8.957031 1.550781 -8.90625 1.6875 -8.8125 C 1.820312 -8.71875 1.945312 -8.5625 2.0625 -8.34375 C 2.1875 -8.132812 2.316406 -7.847656 2.453125 -7.484375 L 4.5 -1.75 L 6.546875 -7.484375 C 6.679688 -7.847656 6.804688 -8.132812 6.921875 -8.34375 C 7.046875 -8.5625 7.175781 -8.71875 7.3125 -8.8125 C 7.445312 -8.90625 7.613281 -8.957031 7.8125 -8.96875 C 8.019531 -8.988281 8.269531 -8.988281 8.5625 -8.96875 L 5.625 -1.03125 C 5.5 -0.675781 5.347656 -0.414062 5.171875 -0.25 C 5.003906 -0.0820312 4.78125 0 4.5 0 Z M 4.5 0 "/></g></g></g><g fill="#000000" fill-opacity="1"><g transform="translate(52.663089, 13.602772)"><g><path d="M 4.84375 0.171875 C 4.15625 0.171875 3.5625 0.0507812 3.0625 -0.1875 C 2.5625 -0.4375 2.148438 -0.773438 1.828125 -1.203125 C 1.503906 -1.640625 1.265625 -2.140625 1.109375 -2.703125 C 0.960938 -3.265625 0.890625 -3.859375 0.890625 -4.484375 C 0.890625 -5.109375 0.960938 -5.703125 1.109375 -6.265625 C 1.265625 -6.828125 1.503906 -7.320312 1.828125 -7.75 C 2.148438 -8.1875 2.5625 -8.523438 3.0625 -8.765625 C 3.5625 -9.015625 4.15625 -9.140625 4.84375 -9.140625 C 5.582031 -9.140625 6.234375 -8.984375 6.796875 -8.671875 C 7.367188 -8.359375 7.828125 -7.894531 8.171875 -7.28125 C 8.523438 -6.675781 8.726562 -5.9375 8.78125 -5.0625 C 8.789062 -4.832031 8.765625 -4.628906 8.703125 -4.453125 C 8.640625 -4.285156 8.515625 -4.148438 8.328125 -4.046875 C 8.148438 -3.941406 7.890625 -3.890625 7.546875 -3.890625 L 2.359375 -3.890625 C 2.367188 -3.503906 2.425781 -3.132812 2.53125 -2.78125 C 2.644531 -2.4375 2.800781 -2.128906 3 -1.859375 C 3.207031 -1.597656 3.460938 -1.390625 3.765625 -1.234375 C 4.078125 -1.078125 4.4375 -1 4.84375 -1 C 5.269531 -1 5.640625 -1.035156 5.953125 -1.109375 C 6.265625 -1.179688 6.554688 -1.257812 6.828125 -1.34375 C 6.941406 -1.375 7.0625 -1.398438 7.1875 -1.421875 C 7.320312 -1.453125 7.453125 -1.453125 7.578125 -1.421875 C 7.710938 -1.398438 7.832031 -1.328125 7.9375 -1.203125 C 8.039062 -1.085938 8.128906 -0.90625 8.203125 -0.65625 C 8.203125 -0.65625 8.128906 -0.613281 7.984375 -0.53125 C 7.835938 -0.445312 7.617188 -0.347656 7.328125 -0.234375 C 7.046875 -0.128906 6.695312 -0.0351562 6.28125 0.046875 C 5.863281 0.128906 5.382812 0.171875 4.84375 0.171875 Z M 2.359375 -5.078125 L 7.34375 -5.078125 C 7.34375 -5.453125 7.285156 -5.8125 7.171875 -6.15625 C 7.066406 -6.507812 6.910156 -6.820312 6.703125 -7.09375 C 6.492188 -7.363281 6.234375 -7.578125 5.921875 -7.734375 C 5.617188 -7.890625 5.257812 -7.96875 4.84375 -7.96875 C 4.4375 -7.96875 4.078125 -7.890625 3.765625 -7.734375 C 3.460938 -7.578125 3.203125 -7.363281 2.984375 -7.09375 C 2.773438 -6.820312 2.617188 -6.507812 2.515625 -6.15625 C 2.410156 -5.8125 2.359375 -5.453125 2.359375 -5.078125 Z M 2.359375 -5.078125 "/></g></g></g><g fill="#000000" fill-opacity="1"><g transform="translate(63.619725, 13.602772)"><g><path d="M 7.265625 -4.984375 C 7.265625 -5.566406 7.191406 -6.082031 7.046875 -6.53125 C 6.898438 -6.976562 6.65625 -7.328125 6.3125 -7.578125 C 5.976562 -7.835938 5.523438 -7.96875 4.953125 -7.96875 C 4.367188 -7.96875 3.90625 -7.835938 3.5625 -7.578125 C 3.226562 -7.328125 2.988281 -6.976562 2.84375 -6.53125 C 2.695312 -6.082031 2.625 -5.566406 2.625 -4.984375 L 2.625 0 C 2.375 0 2.160156 -0.00390625 1.984375 -0.015625 C 1.804688 -0.0351562 1.664062 -0.0859375 1.5625 -0.171875 C 1.457031 -0.253906 1.378906 -0.390625 1.328125 -0.578125 C 1.273438 -0.773438 1.25 -1.046875 1.25 -1.390625 L 1.25 -8.96875 C 1.5 -8.96875 1.707031 -8.957031 1.875 -8.9375 C 2.050781 -8.914062 2.191406 -8.863281 2.296875 -8.78125 C 2.410156 -8.707031 2.492188 -8.570312 2.546875 -8.375 C 2.597656 -8.1875 2.625 -7.921875 2.625 -7.578125 L 2.625 -7.421875 C 2.625 -7.441406 2.648438 -7.507812 2.703125 -7.625 C 2.765625 -7.75 2.851562 -7.894531 2.96875 -8.0625 C 3.082031 -8.226562 3.234375 -8.394531 3.421875 -8.5625 C 3.617188 -8.726562 3.859375 -8.863281 4.140625 -8.96875 C 4.429688 -9.082031 4.769531 -9.140625 5.15625 -9.140625 C 5.976562 -9.140625 6.644531 -8.972656 7.15625 -8.640625 C 7.664062 -8.316406 8.039062 -7.84375 8.28125 -7.21875 C 8.519531 -6.601562 8.640625 -5.859375 8.640625 -4.984375 L 8.640625 0 C 8.390625 0 8.175781 -0.00390625 8 -0.015625 C 7.832031 -0.0351562 7.691406 -0.0859375 7.578125 -0.171875 C 7.472656 -0.253906 7.394531 -0.390625 7.34375 -0.578125 C 7.289062 -0.773438 7.265625 -1.046875 7.265625 -1.390625 Z M 7.265625 -4.984375 "/></g></g></g><g fill="#000000" fill-opacity="1"><g transform="translate(74.790258, 13.602772)"><g><path d="M 4.84375 0.171875 C 4.15625 0.171875 3.5625 0.0507812 3.0625 -0.1875 C 2.5625 -0.4375 2.148438 -0.773438 1.828125 -1.203125 C 1.503906 -1.640625 1.265625 -2.140625 1.109375 -2.703125 C 0.960938 -3.265625 0.890625 -3.859375 0.890625 -4.484375 C 0.890625 -5.109375 0.960938 -5.703125 1.109375 -6.265625 C 1.265625 -6.828125 1.503906 -7.320312 1.828125 -7.75 C 2.148438 -8.1875 2.5625 -8.523438 3.0625 -8.765625 C 3.5625 -9.015625 4.15625 -9.140625 4.84375 -9.140625 C 5.582031 -9.140625 6.234375 -8.984375 6.796875 -8.671875 C 7.367188 -8.359375 7.828125 -7.894531 8.171875 -7.28125 C 8.523438 -6.675781 8.726562 -5.9375 8.78125 -5.0625 C 8.789062 -4.832031 8.765625 -4.628906 8.703125 -4.453125 C 8.640625 -4.285156 8.515625 -4.148438 8.328125 -4.046875 C 8.148438 -3.941406 7.890625 -3.890625 7.546875 -3.890625 L 2.359375 -3.890625 C 2.367188 -3.503906 2.425781 -3.132812 2.53125 -2.78125 C 2.644531 -2.4375 2.800781 -2.128906 3 -1.859375 C 3.207031 -1.597656 3.460938 -1.390625 3.765625 -1.234375 C 4.078125 -1.078125 4.4375 -1 4.84375 -1 C 5.269531 -1 5.640625 -1.035156 5.953125 -1.109375 C 6.265625 -1.179688 6.554688 -1.257812 6.828125 -1.34375 C 6.941406 -1.375 7.0625 -1.398438 7.1875 -1.421875 C 7.320312 -1.453125 7.453125 -1.453125 7.578125 -1.421875 C 7.710938 -1.398438 7.832031 -1.328125 7.9375 -1.203125 C 8.039062 -1.085938 8.128906 -0.90625 8.203125 -0.65625 C 8.203125 -0.65625 8.128906 -0.613281 7.984375 -0.53125 C 7.835938 -0.445312 7.617188 -0.347656 7.328125 -0.234375 C 7.046875 -0.128906 6.695312 -0.0351562 6.28125 0.046875 C 5.863281 0.128906 5.382812 0.171875 4.84375 0.171875 Z M 2.359375 -5.078125 L 7.34375 -5.078125 C 7.34375 -5.453125 7.285156 -5.8125 7.171875 -6.15625 C 7.066406 -6.507812 6.910156 -6.820312 6.703125 -7.09375 C 6.492188 -7.363281 6.234375 -7.578125 5.921875 -7.734375 C 5.617188 -7.890625 5.257812 -7.96875 4.84375 -7.96875 C 4.4375 -7.96875 4.078125 -7.890625 3.765625 -7.734375 C 3.460938 -7.578125 3.203125 -7.363281 2.984375 -7.09375 C 2.773438 -6.820312 2.617188 -6.507812 2.515625 -6.15625 C 2.410156 -5.8125 2.359375 -5.453125 2.359375 -5.078125 Z M 2.359375 -5.078125 "/></g></g></g><g fill="#000000" fill-opacity="1"><g transform="translate(85.746894, 13.602772)"><g><path d="M 6.875 -8.375 C 6.800781 -8.125 6.710938 -7.9375 6.609375 -7.8125 C 6.503906 -7.695312 6.382812 -7.625 6.25 -7.59375 C 6.125 -7.570312 5.992188 -7.570312 5.859375 -7.59375 C 5.734375 -7.625 5.609375 -7.65625 5.484375 -7.6875 C 5.265625 -7.75 5.03125 -7.8125 4.78125 -7.875 C 4.539062 -7.9375 4.253906 -7.96875 3.921875 -7.96875 C 3.328125 -7.96875 2.898438 -7.847656 2.640625 -7.609375 C 2.390625 -7.367188 2.265625 -7.0625 2.265625 -6.6875 C 2.265625 -6.3125 2.40625 -6.007812 2.6875 -5.78125 C 2.976562 -5.550781 3.46875 -5.375 4.15625 -5.25 C 4.832031 -5.125 5.410156 -4.953125 5.890625 -4.734375 C 6.367188 -4.515625 6.734375 -4.21875 6.984375 -3.84375 C 7.234375 -3.476562 7.359375 -3.007812 7.359375 -2.4375 C 7.359375 -1.570312 7.070312 -0.921875 6.5 -0.484375 C 5.9375 -0.046875 5.125 0.171875 4.0625 0.171875 C 3.519531 0.171875 3.039062 0.128906 2.625 0.046875 C 2.207031 -0.0351562 1.859375 -0.128906 1.578125 -0.234375 C 1.296875 -0.347656 1.082031 -0.445312 0.9375 -0.53125 C 0.789062 -0.613281 0.71875 -0.65625 0.71875 -0.65625 C 0.78125 -0.90625 0.863281 -1.085938 0.96875 -1.203125 C 1.070312 -1.328125 1.1875 -1.398438 1.3125 -1.421875 C 1.445312 -1.453125 1.578125 -1.453125 1.703125 -1.421875 C 1.835938 -1.398438 1.960938 -1.375 2.078125 -1.34375 C 2.359375 -1.257812 2.648438 -1.179688 2.953125 -1.109375 C 3.265625 -1.035156 3.632812 -1 4.0625 -1 C 4.675781 -1 5.144531 -1.117188 5.46875 -1.359375 C 5.789062 -1.597656 5.953125 -1.957031 5.953125 -2.4375 C 5.953125 -2.894531 5.796875 -3.242188 5.484375 -3.484375 C 5.179688 -3.734375 4.65625 -3.921875 3.90625 -4.046875 C 2.820312 -4.234375 2.039062 -4.550781 1.5625 -5 C 1.09375 -5.445312 0.859375 -6.007812 0.859375 -6.6875 C 0.859375 -7.132812 0.960938 -7.539062 1.171875 -7.90625 C 1.390625 -8.28125 1.722656 -8.578125 2.171875 -8.796875 C 2.628906 -9.023438 3.210938 -9.140625 3.921875 -9.140625 C 4.328125 -9.140625 4.707031 -9.097656 5.0625 -9.015625 C 5.425781 -8.941406 5.742188 -8.851562 6.015625 -8.75 C 6.285156 -8.644531 6.492188 -8.554688 6.640625 -8.484375 C 6.796875 -8.410156 6.875 -8.375 6.875 -8.375 Z M 6.875 -8.375 "/></g></g></g><g fill="#000000" fill-opacity="1"><g transform="translate(4.714225, 31.749443)"><g><path d="M 0.890625 -4.484375 C 0.890625 -5.160156 0.976562 -5.78125 1.15625 -6.34375 C 1.34375 -6.914062 1.617188 -7.410156 1.984375 -7.828125 C 2.347656 -8.242188 2.789062 -8.566406 3.3125 -8.796875 C 3.832031 -9.023438 4.429688 -9.140625 5.109375 -9.140625 C 5.566406 -9.140625 5.960938 -9.097656 6.296875 -9.015625 C 6.640625 -8.929688 6.925781 -8.828125 7.15625 -8.703125 C 7.382812 -8.585938 7.554688 -8.488281 7.671875 -8.40625 C 7.785156 -8.320312 7.84375 -8.28125 7.84375 -8.28125 C 7.78125 -8.03125 7.691406 -7.847656 7.578125 -7.734375 C 7.460938 -7.628906 7.332031 -7.570312 7.1875 -7.5625 C 7.050781 -7.5625 6.910156 -7.582031 6.765625 -7.625 C 6.617188 -7.664062 6.488281 -7.707031 6.375 -7.75 C 6.175781 -7.8125 5.976562 -7.863281 5.78125 -7.90625 C 5.59375 -7.945312 5.367188 -7.96875 5.109375 -7.96875 C 4.484375 -7.96875 3.960938 -7.8125 3.546875 -7.5 C 3.140625 -7.195312 2.832031 -6.78125 2.625 -6.25 C 2.414062 -5.726562 2.3125 -5.140625 2.3125 -4.484375 C 2.3125 -3.828125 2.414062 -3.234375 2.625 -2.703125 C 2.832031 -2.179688 3.140625 -1.765625 3.546875 -1.453125 C 3.960938 -1.148438 4.484375 -1 5.109375 -1 C 5.367188 -1 5.59375 -1.019531 5.78125 -1.0625 C 5.976562 -1.101562 6.175781 -1.15625 6.375 -1.21875 C 6.488281 -1.257812 6.617188 -1.300781 6.765625 -1.34375 C 6.910156 -1.382812 7.050781 -1.398438 7.1875 -1.390625 C 7.332031 -1.378906 7.460938 -1.320312 7.578125 -1.21875 C 7.691406 -1.113281 7.78125 -0.9375 7.84375 -0.6875 C 7.84375 -0.6875 7.785156 -0.640625 7.671875 -0.546875 C 7.554688 -0.460938 7.382812 -0.363281 7.15625 -0.25 C 6.925781 -0.132812 6.640625 -0.0351562 6.296875 0.046875 C 5.960938 0.128906 5.566406 0.171875 5.109375 0.171875 C 4.429688 0.171875 3.832031 0.0546875 3.3125 -0.171875 C 2.789062 -0.398438 2.347656 -0.722656 1.984375 -1.140625 C 1.617188 -1.554688 1.34375 -2.046875 1.15625 -2.609375 C 0.976562 -3.179688 0.890625 -3.804688 0.890625 -4.484375 Z M 0.890625 -4.484375 "/></g></g></g><g fill="#000000" fill-opacity="1"><g transform="translate(14.556813, 31.749443)"><g><path d="M 1.25 -8.96875 C 1.5 -8.96875 1.707031 -8.957031 1.875 -8.9375 C 2.050781 -8.914062 2.191406 -8.863281 2.296875 -8.78125 C 2.410156 -8.707031 2.492188 -8.570312 2.546875 -8.375 C 2.597656 -8.1875 2.625 -7.921875 2.625 -7.578125 C 2.625 -7.609375 2.644531 -7.679688 2.6875 -7.796875 C 2.738281 -7.910156 2.816406 -8.039062 2.921875 -8.1875 C 3.023438 -8.34375 3.160156 -8.492188 3.328125 -8.640625 C 3.503906 -8.785156 3.71875 -8.90625 3.96875 -9 C 4.226562 -9.09375 4.535156 -9.140625 4.890625 -9.140625 C 5.253906 -9.140625 5.566406 -9.113281 5.828125 -9.0625 C 6.085938 -9.007812 6.289062 -8.957031 6.4375 -8.90625 C 6.582031 -8.851562 6.65625 -8.828125 6.65625 -8.828125 C 6.570312 -8.503906 6.472656 -8.273438 6.359375 -8.140625 C 6.242188 -8.003906 6.109375 -7.925781 5.953125 -7.90625 C 5.804688 -7.894531 5.632812 -7.898438 5.4375 -7.921875 C 5.25 -7.953125 5.03125 -7.96875 4.78125 -7.96875 C 4.257812 -7.96875 3.835938 -7.835938 3.515625 -7.578125 C 3.203125 -7.328125 2.972656 -6.976562 2.828125 -6.53125 C 2.691406 -6.082031 2.625 -5.566406 2.625 -4.984375 L 2.625 0 C 2.375 0 2.160156 -0.00390625 1.984375 -0.015625 C 1.804688 -0.0351562 1.664062 -0.0859375 1.5625 -0.171875 C 1.457031 -0.253906 1.378906 -0.390625 1.328125 -0.578125 C 1.273438 -0.773438 1.25 -1.046875 1.25 -1.390625 Z M 1.25 -8.96875 "/></g></g></g><g fill="#000000" fill-opacity="1"><g transform="translate(23.116021, 31.749443)"><g><path d="M 4.84375 0.171875 C 4.15625 0.171875 3.5625 0.0507812 3.0625 -0.1875 C 2.5625 -0.4375 2.148438 -0.773438 1.828125 -1.203125 C 1.503906 -1.640625 1.265625 -2.140625 1.109375 -2.703125 C 0.960938 -3.265625 0.890625 -3.859375 0.890625 -4.484375 C 0.890625 -5.109375 0.960938 -5.703125 1.109375 -6.265625 C 1.265625 -6.828125 1.503906 -7.320312 1.828125 -7.75 C 2.148438 -8.1875 2.5625 -8.523438 3.0625 -8.765625 C 3.5625 -9.015625 4.15625 -9.140625 4.84375 -9.140625 C 5.582031 -9.140625 6.234375 -8.984375 6.796875 -8.671875 C 7.367188 -8.359375 7.828125 -7.894531 8.171875 -7.28125 C 8.523438 -6.675781 8.726562 -5.9375 8.78125 -5.0625 C 8.789062 -4.832031 8.765625 -4.628906 8.703125 -4.453125 C 8.640625 -4.285156 8.515625 -4.148438 8.328125 -4.046875 C 8.148438 -3.941406 7.890625 -3.890625 7.546875 -3.890625 L 2.359375 -3.890625 C 2.367188 -3.503906 2.425781 -3.132812 2.53125 -2.78125 C 2.644531 -2.4375 2.800781 -2.128906 3 -1.859375 C 3.207031 -1.597656 3.460938 -1.390625 3.765625 -1.234375 C 4.078125 -1.078125 4.4375 -1 4.84375 -1 C 5.269531 -1 5.640625 -1.035156 5.953125 -1.109375 C 6.265625 -1.179688 6.554688 -1.257812 6.828125 -1.34375 C 6.941406 -1.375 7.0625 -1.398438 7.1875 -1.421875 C 7.320312 -1.453125 7.453125 -1.453125 7.578125 -1.421875 C 7.710938 -1.398438 7.832031 -1.328125 7.9375 -1.203125 C 8.039062 -1.085938 8.128906 -0.90625 8.203125 -0.65625 C 8.203125 -0.65625 8.128906 -0.613281 7.984375 -0.53125 C 7.835938 -0.445312 7.617188 -0.347656 7.328125 -0.234375 C 7.046875 -0.128906 6.695312 -0.0351562 6.28125 0.046875 C 5.863281 0.128906 5.382812 0.171875 4.84375 0.171875 Z M 2.359375 -5.078125 L 7.34375 -5.078125 C 7.34375 -5.453125 7.285156 -5.8125 7.171875 -6.15625 C 7.066406 -6.507812 6.910156 -6.820312 6.703125 -7.09375 C 6.492188 -7.363281 6.234375 -7.578125 5.921875 -7.734375 C 5.617188 -7.890625 5.257812 -7.96875 4.84375 -7.96875 C 4.4375 -7.96875 4.078125 -7.890625 3.765625 -7.734375 C 3.460938 -7.578125 3.203125 -7.363281 2.984375 -7.09375 C 2.773438 -6.820312 2.617188 -6.507812 2.515625 -6.15625 C 2.410156 -5.8125 2.359375 -5.453125 2.359375 -5.078125 Z M 2.359375 -5.078125 "/></g></g></g><g fill="#000000" fill-opacity="1"><g transform="translate(34.072655, 31.749443)"><g><path d="M 8.1875 -5.265625 L 8.1875 -1.59375 C 8.1875 -1.363281 8.226562 -1.207031 8.3125 -1.125 C 8.40625 -1.039062 8.570312 -1 8.8125 -1 C 8.8125 -0.695312 8.738281 -0.453125 8.59375 -0.265625 C 8.445312 -0.0859375 8.207031 0 7.875 0 C 7.59375 0 7.375 -0.0546875 7.21875 -0.171875 C 7.0625 -0.296875 6.953125 -0.472656 6.890625 -0.703125 C 6.835938 -0.929688 6.8125 -1.195312 6.8125 -1.5 C 6.800781 -1.445312 6.765625 -1.351562 6.703125 -1.21875 C 6.640625 -1.09375 6.539062 -0.945312 6.40625 -0.78125 C 6.28125 -0.625 6.109375 -0.472656 5.890625 -0.328125 C 5.671875 -0.179688 5.40625 -0.0625 5.09375 0.03125 C 4.789062 0.125 4.429688 0.171875 4.015625 0.171875 C 3.410156 0.171875 2.867188 0.0664062 2.390625 -0.140625 C 1.921875 -0.359375 1.550781 -0.679688 1.28125 -1.109375 C 1.019531 -1.546875 0.890625 -2.09375 0.890625 -2.75 C 0.890625 -3.269531 0.984375 -3.710938 1.171875 -4.078125 C 1.359375 -4.453125 1.613281 -4.757812 1.9375 -5 C 2.257812 -5.238281 2.625 -5.421875 3.03125 -5.546875 C 3.4375 -5.679688 3.859375 -5.769531 4.296875 -5.8125 C 4.742188 -5.863281 5.179688 -5.882812 5.609375 -5.875 C 6.035156 -5.863281 6.4375 -5.835938 6.8125 -5.796875 C 6.800781 -6.128906 6.78125 -6.425781 6.75 -6.6875 C 6.71875 -6.945312 6.640625 -7.171875 6.515625 -7.359375 C 6.398438 -7.554688 6.210938 -7.707031 5.953125 -7.8125 C 5.703125 -7.914062 5.347656 -7.96875 4.890625 -7.96875 C 4.484375 -7.96875 4.101562 -7.929688 3.75 -7.859375 C 3.394531 -7.785156 3.082031 -7.703125 2.8125 -7.609375 C 2.550781 -7.523438 2.34375 -7.445312 2.1875 -7.375 C 2.039062 -7.300781 1.96875 -7.265625 1.96875 -7.265625 C 1.84375 -7.515625 1.78125 -7.722656 1.78125 -7.890625 C 1.78125 -8.066406 1.828125 -8.210938 1.921875 -8.328125 C 2.015625 -8.453125 2.140625 -8.550781 2.296875 -8.625 C 2.460938 -8.707031 2.632812 -8.78125 2.8125 -8.84375 C 3.007812 -8.90625 3.207031 -8.957031 3.40625 -9 C 3.601562 -9.050781 3.816406 -9.085938 4.046875 -9.109375 C 4.285156 -9.128906 4.566406 -9.140625 4.890625 -9.140625 C 5.523438 -9.140625 6.046875 -9.078125 6.453125 -8.953125 C 6.859375 -8.828125 7.175781 -8.648438 7.40625 -8.421875 C 7.644531 -8.191406 7.816406 -7.914062 7.921875 -7.59375 C 8.035156 -7.28125 8.109375 -6.925781 8.140625 -6.53125 C 8.171875 -6.132812 8.1875 -5.710938 8.1875 -5.265625 Z M 2.296875 -2.75 C 2.296875 -2.425781 2.359375 -2.128906 2.484375 -1.859375 C 2.617188 -1.597656 2.832031 -1.390625 3.125 -1.234375 C 3.414062 -1.078125 3.800781 -1 4.28125 -1 C 4.707031 -1 5.078125 -1.078125 5.390625 -1.234375 C 5.703125 -1.390625 5.960938 -1.597656 6.171875 -1.859375 C 6.390625 -2.128906 6.550781 -2.429688 6.65625 -2.765625 C 6.757812 -3.109375 6.8125 -3.46875 6.8125 -3.84375 L 6.8125 -4.71875 C 6.425781 -4.75 6.019531 -4.757812 5.59375 -4.75 C 5.175781 -4.75 4.769531 -4.71875 4.375 -4.65625 C 3.988281 -4.601562 3.640625 -4.5 3.328125 -4.34375 C 3.015625 -4.195312 2.765625 -3.992188 2.578125 -3.734375 C 2.390625 -3.472656 2.296875 -3.144531 2.296875 -2.75 Z M 2.296875 -2.75 "/></g></g></g><g fill="#ff6a00" fill-opacity="1"><g transform="translate(45.145386, 31.749443)"><g><path d="M 5.078125 -11.5 L 0.890625 -11.5 C 0.890625 -11.65625 0.894531 -11.8125 0.90625 -11.96875 C 0.925781 -12.125 0.96875 -12.257812 1.03125 -12.375 C 1.09375 -12.5 1.203125 -12.597656 1.359375 -12.671875 C 1.515625 -12.742188 1.726562 -12.78125 2 -12.78125 L 10.71875 -12.78125 C 10.71875 -12.613281 10.707031 -12.453125 10.6875 -12.296875 C 10.675781 -12.148438 10.640625 -12.015625 10.578125 -11.890625 C 10.515625 -11.765625 10.40625 -11.664062 10.25 -11.59375 C 10.101562 -11.53125 9.890625 -11.5 9.609375 -11.5 L 6.515625 -11.5 L 6.515625 0 C 6.242188 0 6.015625 -0.00390625 5.828125 -0.015625 C 5.640625 -0.0351562 5.488281 -0.0859375 5.375 -0.171875 C 5.269531 -0.253906 5.191406 -0.390625 5.140625 -0.578125 C 5.097656 -0.773438 5.078125 -1.046875 5.078125 -1.390625 Z M 5.078125 -11.5 "/></g></g></g><g fill="#ff6a00" fill-opacity="1"><g transform="translate(58.027092, 31.749443)"><g><path d="M 1.609375 -12.78125 C 1.878906 -12.78125 2.109375 -12.769531 2.296875 -12.75 C 2.484375 -12.726562 2.628906 -12.675781 2.734375 -12.59375 C 2.847656 -12.519531 2.925781 -12.390625 2.96875 -12.203125 C 3.019531 -12.015625 3.046875 -11.742188 3.046875 -11.390625 L 3.046875 0 C 2.765625 0 2.53125 -0.00390625 2.34375 -0.015625 C 2.15625 -0.0351562 2.003906 -0.0859375 1.890625 -0.171875 C 1.785156 -0.253906 1.710938 -0.390625 1.671875 -0.578125 C 1.628906 -0.773438 1.609375 -1.046875 1.609375 -1.390625 Z M 1.609375 -12.78125 "/></g></g></g><g fill="#000000" fill-opacity="1"><g transform="translate(63.957435, 31.749443)"><g><path d="M 4.5 0 C 4.21875 0 3.988281 -0.0820312 3.8125 -0.25 C 3.644531 -0.414062 3.5 -0.675781 3.375 -1.03125 L 0.453125 -8.96875 C 0.742188 -8.988281 0.988281 -8.988281 1.1875 -8.96875 C 1.382812 -8.957031 1.550781 -8.90625 1.6875 -8.8125 C 1.820312 -8.71875 1.945312 -8.5625 2.0625 -8.34375 C 2.1875 -8.132812 2.316406 -7.847656 2.453125 -7.484375 L 4.5 -1.75 L 6.546875 -7.484375 C 6.679688 -7.847656 6.804688 -8.132812 6.921875 -8.34375 C 7.046875 -8.5625 7.175781 -8.71875 7.3125 -8.8125 C 7.445312 -8.90625 7.613281 -8.957031 7.8125 -8.96875 C 8.019531 -8.988281 8.269531 -8.988281 8.5625 -8.96875 L 5.625 -1.03125 C 5.5 -0.675781 5.347656 -0.414062 5.171875 -0.25 C 5.003906 -0.0820312 4.78125 0 4.5 0 Z M 4.5 0 "/></g></g></g><g fill="#000000" fill-opacity="1"><g transform="translate(74.23673, 31.749443)"><g><path d="M 5.109375 -9.140625 C 5.785156 -9.140625 6.382812 -9.023438 6.90625 -8.796875 C 7.4375 -8.566406 7.878906 -8.242188 8.234375 -7.828125 C 8.597656 -7.410156 8.875 -6.914062 9.0625 -6.34375 C 9.25 -5.78125 9.34375 -5.160156 9.34375 -4.484375 C 9.34375 -3.804688 9.25 -3.179688 9.0625 -2.609375 C 8.875 -2.046875 8.597656 -1.554688 8.234375 -1.140625 C 7.878906 -0.722656 7.4375 -0.398438 6.90625 -0.171875 C 6.382812 0.0546875 5.785156 0.171875 5.109375 0.171875 C 4.429688 0.171875 3.832031 0.0546875 3.3125 -0.171875 C 2.789062 -0.398438 2.347656 -0.722656 1.984375 -1.140625 C 1.617188 -1.554688 1.34375 -2.046875 1.15625 -2.609375 C 0.976562 -3.179688 0.890625 -3.804688 0.890625 -4.484375 C 0.890625 -5.160156 0.976562 -5.78125 1.15625 -6.34375 C 1.34375 -6.914062 1.617188 -7.410156 1.984375 -7.828125 C 2.347656 -8.242188 2.789062 -8.566406 3.3125 -8.796875 C 3.832031 -9.023438 4.429688 -9.140625 5.109375 -9.140625 Z M 7.90625 -4.484375 C 7.90625 -5.140625 7.800781 -5.726562 7.59375 -6.25 C 7.394531 -6.78125 7.085938 -7.195312 6.671875 -7.5 C 6.265625 -7.8125 5.742188 -7.96875 5.109375 -7.96875 C 4.484375 -7.96875 3.960938 -7.8125 3.546875 -7.5 C 3.140625 -7.195312 2.832031 -6.78125 2.625 -6.25 C 2.414062 -5.726562 2.3125 -5.140625 2.3125 -4.484375 C 2.3125 -3.828125 2.414062 -3.234375 2.625 -2.703125 C 2.832031 -2.179688 3.140625 -1.765625 3.546875 -1.453125 C 3.960938 -1.148438 4.484375 -1 5.109375 -1 C 5.742188 -1 6.265625 -1.148438 6.671875 -1.453125 C 7.085938 -1.765625 7.394531 -2.179688 7.59375 -2.703125 C 7.800781 -3.234375 7.90625 -3.828125 7.90625 -4.484375 Z M 7.90625 -4.484375 "/></g></g></g><g fill="#000000" fill-opacity="1"><g transform="translate(85.745931, 31.749443)"><g><path d="M 6.875 -8.375 C 6.800781 -8.125 6.710938 -7.9375 6.609375 -7.8125 C 6.503906 -7.695312 6.382812 -7.625 6.25 -7.59375 C 6.125 -7.570312 5.992188 -7.570312 5.859375 -7.59375 C 5.734375 -7.625 5.609375 -7.65625 5.484375 -7.6875 C 5.265625 -7.75 5.03125 -7.8125 4.78125 -7.875 C 4.539062 -7.9375 4.253906 -7.96875 3.921875 -7.96875 C 3.328125 -7.96875 2.898438 -7.847656 2.640625 -7.609375 C 2.390625 -7.367188 2.265625 -7.0625 2.265625 -6.6875 C 2.265625 -6.3125 2.40625 -6.007812 2.6875 -5.78125 C 2.976562 -5.550781 3.46875 -5.375 4.15625 -5.25 C 4.832031 -5.125 5.410156 -4.953125 5.890625 -4.734375 C 6.367188 -4.515625 6.734375 -4.21875 6.984375 -3.84375 C 7.234375 -3.476562 7.359375 -3.007812 7.359375 -2.4375 C 7.359375 -1.570312 7.070312 -0.921875 6.5 -0.484375 C 5.9375 -0.046875 5.125 0.171875 4.0625 0.171875 C 3.519531 0.171875 3.039062 0.128906 2.625 0.046875 C 2.207031 -0.0351562 1.859375 -0.128906 1.578125 -0.234375 C 1.296875 -0.347656 1.082031 -0.445312 0.9375 -0.53125 C 0.789062 -0.613281 0.71875 -0.65625 0.71875 -0.65625 C 0.78125 -0.90625 0.863281 -1.085938 0.96875 -1.203125 C 1.070312 -1.328125 1.1875 -1.398438 1.3125 -1.421875 C 1.445312 -1.453125 1.578125 -1.453125 1.703125 -1.421875 C 1.835938 -1.398438 1.960938 -1.375 2.078125 -1.34375 C 2.359375 -1.257812 2.648438 -1.179688 2.953125 -1.109375 C 3.265625 -1.035156 3.632812 -1 4.0625 -1 C 4.675781 -1 5.144531 -1.117188 5.46875 -1.359375 C 5.789062 -1.597656 5.953125 -1.957031 5.953125 -2.4375 C 5.953125 -2.894531 5.796875 -3.242188 5.484375 -3.484375 C 5.179688 -3.734375 4.65625 -3.921875 3.90625 -4.046875 C 2.820312 -4.234375 2.039062 -4.550781 1.5625 -5 C 1.09375 -5.445312 0.859375 -6.007812 0.859375 -6.6875 C 0.859375 -7.132812 0.960938 -7.539062 1.171875 -7.90625 C 1.390625 -8.28125 1.722656 -8.578125 2.171875 -8.796875 C 2.628906 -9.023438 3.210938 -9.140625 3.921875 -9.140625 C 4.328125 -9.140625 4.707031 -9.097656 5.0625 -9.015625 C 5.425781 -8.941406 5.742188 -8.851562 6.015625 -8.75 C 6.285156 -8.644531 6.492188 -8.554688 6.640625 -8.484375 C 6.796875 -8.410156 6.875 -8.375 6.875 -8.375 Z M 6.875 -8.375 "/></g></g></g></svg>